<?xml version="1.0" encoding="UTF-8"?>
<!DOCTYPE svg PUBLIC "-//W3C//DTD SVG 1.1//EN" "http://www.w3.org/Graphics/SVG/1.1/DTD/svg11.dtd">
<svg xmlns="http://www.w3.org/2000/svg" version="1.1" width="999px" height="249px" style="shape-rendering:geometricPrecision; text-rendering:geometricPrecision; image-rendering:optimizeQuality; fill-rule:evenodd; clip-rule:evenodd" xmlns:xlink="http://www.w3.org/1999/xlink">
<g><path style="opacity:0.004" fill="#000000" d="M 671.5,0.5 C 672.833,1.16667 672.833,1.16667 671.5,0.5 Z"/></g>
<g><path style="opacity:0.004" fill="#000000" d="M 218.5,2.5 C 219.833,3.16667 219.833,3.16667 218.5,2.5 Z"/></g>
<g><path style="opacity:0.004" fill="#000000" d="M 653.5,8.5 C 654.833,9.16667 654.833,9.16667 653.5,8.5 Z"/></g>
<g><path style="opacity:0.004" fill="#000000" d="M 170.5,14.5 C 171.833,15.1667 171.833,15.1667 170.5,14.5 Z"/></g>
<g><path style="opacity:0.004" fill="#000000" d="M 443.5,14.5 C 444.833,15.1667 444.833,15.1667 443.5,14.5 Z"/></g>
<g><path style="opacity:0.004" fill="#000000" d="M 257.5,16.5 C 258.833,17.1667 258.833,17.1667 257.5,16.5 Z"/></g>
<g><path style="opacity:0.004" fill="#000000" d="M 740.5,16.5 C 741.833,17.1667 741.833,17.1667 740.5,16.5 Z"/></g>
<g><path style="opacity:0.004" fill="#000000" d="M 956.5,27.5 C 957.833,28.1667 957.833,28.1667 956.5,27.5 Z"/></g>
<g><path style="opacity:0.004" fill="#000000" d="M 341.5,29.5 C 342.833,30.1667 342.833,30.1667 341.5,29.5 Z"/></g>
<g><path style="opacity:0.004" fill="#000000" d="M 107.5,31.5 C 108.833,32.1667 108.833,32.1667 107.5,31.5 Z"/></g>
<g><path style="opacity:0.004" fill="#000000" d="M 14.5,33.5 C 15.8333,34.1667 15.8333,34.1667 14.5,33.5 Z"/></g>
<g><path style="opacity:0.004" fill="#000000" d="M 218.5,40.5 C 219.833,41.1667 219.833,41.1667 218.5,40.5 Z"/></g>
<g><path style="opacity:0.004" fill="#000000" d="M 623.5,42.5 C 624.833,43.1667 624.833,43.1667 623.5,42.5 Z"/></g>
<g><path style="opacity:0.004" fill="#000000" d="M 674.5,42.5 C 675.833,43.1667 675.833,43.1667 674.5,42.5 Z"/></g>
<g><path style="opacity:0.004" fill="#000000" d="M 755.5,42.5 C 756.833,43.1667 756.833,43.1667 755.5,42.5 Z"/></g>
<g><path style="opacity:0.004" fill="#000000" d="M 524.5,45.5 C 525.833,46.1667 525.833,46.1667 524.5,45.5 Z"/></g>
<g><path style="opacity:0.004" fill="#000000" d="M 497.5,47.5 C 498.833,48.1667 498.833,48.1667 497.5,47.5 Z"/></g>
<g><path style="opacity:0.004" fill="#000000" d="M 56.5,49.5 C 57.8333,50.1667 57.8333,50.1667 56.5,49.5 Z"/></g>
<g><path style="opacity:0.004" fill="#000000" d="M 470.5,51.5 C 471.833,52.1667 471.833,52.1667 470.5,51.5 Z"/></g>
<g><path style="opacity:0.004" fill="#000000" d="M 29.5,52.5 C 30.8333,53.1667 30.8333,53.1667 29.5,52.5 Z"/></g>
<g><path style="opacity:0.004" fill="#000000" d="M 977.5,59.5 C 978.833,60.1667 978.833,60.1667 977.5,59.5 Z"/></g>
<g><path style="opacity:0.998" fill="#f7f7f7" d="M 96.5,68.5 C 105.833,68.5 115.167,68.5 124.5,68.5C 124.5,100.167 124.5,131.833 124.5,163.5C 114.833,164.833 105.167,164.833 95.5,163.5C 95.1685,131.662 95.5018,99.9956 96.5,68.5 Z"/></g>
<g><path style="opacity:0.997" fill="#f5f5f5" d="M 493.5,68.5 C 493.169,94.672 493.502,120.672 494.5,146.5C 498.5,146.5 502.5,146.5 506.5,146.5C 507.489,151.975 507.822,157.642 507.5,163.5C 498.451,164.97 489.451,164.804 480.5,163C 475.032,158.533 469.865,153.7 465,148.5C 464.333,121.833 464.333,95.1667 465,68.5C 474.598,67.1716 484.098,67.1716 493.5,68.5 Z"/></g>
<g><path style="opacity:0.397" fill="#757575" d="M 96.5,68.5 C 105.986,67.5062 115.652,67.1729 125.5,67.5C 126.561,99.666 126.228,131.666 124.5,163.5C 124.5,131.833 124.5,100.167 124.5,68.5C 115.167,68.5 105.833,68.5 96.5,68.5 Z"/></g>
<g><path style="opacity:0.004" fill="#000000" d="M 416.5,73.5 C 417.833,74.1667 417.833,74.1667 416.5,73.5 Z"/></g>
<g><path style="opacity:0.113" fill="#575757" d="M 70.5,77.5 C 59.0857,77.1894 47.7524,77.5227 36.5,78.5C 35.2617,78.19 35.2617,77.69 36.5,77C 48.0076,76.1741 59.3409,76.3407 70.5,77.5 Z"/></g>
<g><path style="opacity:0.997" fill="#f6f6f6" d="M 3.5,77.5 C 12.8333,77.5 22.1667,77.5 31.5,77.5C 31.5,106.167 31.5,134.833 31.5,163.5C 21.8588,164.238 12.1921,164.238 2.5,163.5C 2.19557,134.445 2.5289,105.779 3.5,77.5 Z"/></g>
<g><path style="opacity:0.998" fill="#f8f8f8" d="M 70.5,77.5 C 76.1314,82.6303 81.6314,87.9637 87,93.5C 87.6667,111.5 87.6667,129.5 87,147.5C 82.1667,152.333 77.3333,157.167 72.5,162C 70.913,162.862 69.2464,163.529 67.5,164C 57.1863,163.774 46.8529,163.607 36.5,163.5C 36.5,157.833 36.5,152.167 36.5,146.5C 43.8333,146.5 51.1667,146.5 58.5,146.5C 58.5,129.167 58.5,111.833 58.5,94.5C 51.1667,94.5 43.8333,94.5 36.5,94.5C 36.5,89.1667 36.5,83.8333 36.5,78.5C 47.7524,77.5227 59.0857,77.1894 70.5,77.5 Z"/></g>
<g><path style="opacity:0.997" fill="#f2f2f2" d="M 566.5,85.5 C 566.12,87.698 566.787,89.3646 568.5,90.5C 568.5,90.8333 568.5,91.1667 568.5,91.5C 568.12,93.698 568.787,95.3646 570.5,96.5C 571.363,98.4214 572.029,100.421 572.5,102.5C 572.528,105.916 573.528,108.916 575.5,111.5C 575.12,113.698 575.787,115.365 577.5,116.5C 577.5,116.833 577.5,117.167 577.5,117.5C 577.12,119.698 577.787,121.365 579.5,122.5C 579.171,125.228 579.837,127.562 581.5,129.5C 582.338,129.842 582.672,130.508 582.5,131.5C 582.12,133.698 582.787,135.365 584.5,136.5C 586.696,142.421 588.696,148.421 590.5,154.5C 590.557,155.609 590.89,156.609 591.5,157.5C 591.5,157.833 591.5,158.167 591.5,158.5C 591.833,159.167 592.167,159.833 592.5,160.5C 592.804,161.15 593.137,161.817 593.5,162.5C 591.922,163.298 590.256,163.798 588.5,164C 581.167,164.667 573.833,164.667 566.5,164C 563.778,162.728 562.444,160.561 562.5,157.5C 562.598,155.447 561.931,153.78 560.5,152.5C 559.262,150.786 558.595,148.786 558.5,146.5C 558.598,144.447 557.931,142.78 556.5,141.5C 555.262,139.786 554.595,137.786 554.5,135.5C 554.598,133.447 553.931,131.78 552.5,130.5C 552.33,129.178 552.663,128.011 553.5,127C 552.309,126.302 551.309,125.469 550.5,124.5C 546.595,115.457 543.262,106.124 540.5,96.5C 540.598,94.4471 539.931,92.7804 538.5,91.5C 536.605,87.356 534.938,83.0227 533.5,78.5C 533.709,77.914 534.043,77.414 534.5,77C 543.833,76.3333 553.167,76.3333 562.5,77C 564.697,79.4214 566.03,82.2548 566.5,85.5 Z"/></g>
<g><path style="opacity:0.997" fill="#efefef" d="M 623.5,87.5 C 621.733,89.7916 620.733,92.4582 620.5,95.5C 613.336,117.492 605.336,139.158 596.5,160.5C 595.824,159.398 595.158,158.398 594.5,157.5C 594.5,156.833 594.5,156.167 594.5,155.5C 593.935,151.463 592.601,147.797 590.5,144.5C 589.596,143.791 589.263,142.791 589.5,141.5C 590.962,138.358 590.295,136.358 587.5,135.5C 585.928,132.785 584.928,129.785 584.5,126.5C 584.5,124.167 584.5,121.833 584.5,119.5C 584.259,117.102 584.926,115.102 586.5,113.5C 587.924,111.485 588.59,109.152 588.5,106.5C 590.277,103.495 591.277,100.162 591.5,96.5C 593.277,93.4954 594.277,90.1621 594.5,86.5C 594.777,83.1102 595.777,79.9435 597.5,77C 607.161,76.5002 616.828,76.3335 626.5,76.5C 626.483,80.5339 625.483,84.2006 623.5,87.5 Z"/></g>
<g><path style="opacity:0.004" fill="#000000" d="M 890.5,77.5 C 891.833,78.1667 891.833,78.1667 890.5,77.5 Z"/></g>
<g><path style="opacity:0.004" fill="#000000" d="M 590.5,80.5 C 591.833,81.1667 591.833,81.1667 590.5,80.5 Z"/></g>
<g><path style="opacity:0.004" fill="#000000" d="M 992.5,83.5 C 993.833,84.1667 993.833,84.1667 992.5,83.5 Z"/></g>
<g><path style="opacity:0.004" fill="#000000" d="M 521.5,87.5 C 522.833,88.1667 522.833,88.1667 521.5,87.5 Z"/></g>
<g><path style="opacity:0.004" fill="#000000" d="M 824.5,87.5 C 825.833,88.1667 825.833,88.1667 824.5,87.5 Z"/></g>
<g><path style="opacity:0.525" fill="#626262" d="M 566.5,85.5 C 567.537,86.9303 568.204,88.597 568.5,90.5C 566.787,89.3646 566.12,87.698 566.5,85.5 Z"/></g>
<g><path style="opacity:0.565" fill="#686868" d="M 594.5,86.5 C 594.277,90.1621 593.277,93.4954 591.5,96.5C 591.723,92.8379 592.723,89.5046 594.5,86.5 Z"/></g>
<g><path style="opacity:0.004" fill="#000000" d="M 926.5,92.5 C 927.833,93.1667 927.833,93.1667 926.5,92.5 Z"/></g>
<g><path style="opacity:0.004" fill="#000000" d="M 944.5,92.5 C 945.833,93.1667 945.833,93.1667 944.5,92.5 Z"/></g>
<g><path style="opacity:0.106" fill="#3c3c3c" d="M 623.5,87.5 C 623.267,90.5418 622.267,93.2084 620.5,95.5C 620.733,92.4582 621.733,89.7916 623.5,87.5 Z"/></g>
<g><path style="opacity:0.997" fill="#f3f3f3" d="M 239.5,95.5 C 240.757,98.4274 242.757,100.761 245.5,102.5C 248.751,105.246 251.917,108.246 255,111.5C 255.5,128.83 255.667,146.163 255.5,163.5C 245.848,164.528 236.182,164.528 226.5,163.5C 226.293,146.58 226.293,129.747 226.5,113C 212.833,112.667 199.167,112.333 185.5,112C 185.711,109.831 185.378,107.497 184.5,105C 186.396,100.766 189.396,97.4323 193.5,95C 208.908,94.1839 224.241,94.3505 239.5,95.5 Z"/></g>
<g><path style="opacity:0.137" fill="#585858" d="M 538.5,91.5 C 539.931,92.7804 540.598,94.4471 540.5,96.5C 539.069,95.2196 538.402,93.5529 538.5,91.5 Z"/></g>
<g><path style="opacity:0.616" fill="#737373" d="M 568.5,91.5 C 569.537,92.9303 570.204,94.597 570.5,96.5C 568.787,95.3646 568.12,93.698 568.5,91.5 Z"/></g>
<g><path style="opacity:0.997" fill="#fafafa" d="M 702.5,110.5 C 702.5,118.833 702.5,127.167 702.5,135.5C 688.833,135.5 675.167,135.5 661.5,135.5C 661.5,131.833 661.5,128.167 661.5,124.5C 666.5,124.5 671.5,124.5 676.5,124.5C 676.5,121.833 676.5,119.167 676.5,116.5C 676.5,115.833 676.5,115.167 676.5,114.5C 676.5,113.5 676.5,112.5 676.5,111.5C 671.5,111.5 666.5,111.5 661.5,111.5C 661.214,105.741 661.548,100.075 662.5,94.5C 670.087,94.8142 677.587,94.4808 685,93.5C 691.337,98.6707 697.17,104.337 702.5,110.5 Z"/></g>
<g><path style="opacity:0.997" fill="#efefef" d="M 778.5,100.5 C 779.08,102.749 780.413,104.415 782.5,105.5C 783.5,105.833 784.167,106.5 784.5,107.5C 784.427,109.027 785.094,110.027 786.5,110.5C 787.826,116.568 787.826,122.734 786.5,129C 777.167,129.667 767.833,129.667 758.5,129C 757.748,128.329 757.414,127.496 757.5,126.5C 757.5,121.5 757.5,116.5 757.5,111.5C 753.5,111.5 749.5,111.5 745.5,111.5C 744.366,109.034 744.199,106.367 745,103.5C 752.476,94.7252 761.976,91.8919 773.5,95C 775.373,96.7038 777.04,98.5372 778.5,100.5 Z"/></g>
<g><path style="opacity:0.998" fill="#f1f1f1" d="M 142.5,163.5 C 142.5,146.167 142.5,128.833 142.5,111.5C 138.167,111.5 133.833,111.5 129.5,111.5C 128.671,108.531 128.505,105.531 129,102.5C 131.5,100 134,97.5 136.5,95C 142.833,94.3333 149.167,94.3333 155.5,95C 160.667,100.167 165.833,105.333 171,110.5C 172.139,119.07 172.639,127.736 172.5,136.5C 172.458,145.532 172.125,154.532 171.5,163.5C 161.841,164.764 152.174,164.764 142.5,163.5 Z"/></g>
<g><path style="opacity:0.998" fill="#f5f5f5" d="M 285.5,97.5 C 286.057,102.165 287.39,106.498 289.5,110.5C 289.415,113.649 290.415,116.316 292.5,118.5C 292.5,118.833 292.5,119.167 292.5,119.5C 292.506,122.85 293.506,125.85 295.5,128.5C 296.386,127.675 296.719,126.675 296.5,125.5C 297.737,119.546 299.737,113.879 302.5,108.5C 304.651,110.789 306.318,113.456 307.5,116.5C 309.085,123.592 311.085,130.592 313.5,137.5C 312.844,139.453 312.511,141.453 312.5,143.5C 312.072,146.785 311.072,149.785 309.5,152.5C 308.076,154.515 307.41,156.848 307.5,159.5C 307.158,162.355 305.491,163.855 302.5,164C 295.802,164.757 289.136,164.591 282.5,163.5C 279.201,159.895 277.201,155.562 276.5,150.5C 276.267,147.458 275.267,144.792 273.5,142.5C 272.262,140.786 271.595,138.786 271.5,136.5C 271.598,134.447 270.931,132.78 269.5,131.5C 268.262,129.786 267.595,127.786 267.5,125.5C 267.267,122.458 266.267,119.792 264.5,117.5C 263.262,115.786 262.595,113.786 262.5,111.5C 262.598,109.447 261.931,107.78 260.5,106.5C 259.175,102.862 257.842,99.1951 256.5,95.5C 265.816,94.3346 275.149,94.1679 284.5,95C 285.252,95.6708 285.586,96.5041 285.5,97.5 Z"/></g>
<g><path style="opacity:0.998" fill="#f8f8f8" d="M 332.5,97.5 C 332.259,99.8984 332.926,101.898 334.5,103.5C 334.259,105.898 334.926,107.898 336.5,109.5C 336.677,113.708 338.01,117.374 340.5,120.5C 344.254,134.425 348.587,148.091 353.5,161.5C 353.03,162.693 352.03,163.36 350.5,163.5C 342.421,164.97 334.421,164.637 326.5,162.5C 325.873,161.583 325.539,160.583 325.5,159.5C 325.33,158.178 325.663,157.011 326.5,156C 325.309,155.302 324.309,154.469 323.5,153.5C 323.405,151.214 322.738,149.214 321.5,147.5C 320.542,145.698 319.875,143.698 319.5,141.5C 317.932,134.458 315.599,127.791 312.5,121.5C 311.566,120.432 311.232,119.099 311.5,117.5C 310.602,112.466 308.935,107.799 306.5,103.5C 305.424,100.698 304.424,97.8646 303.5,95C 312.833,94.3333 322.167,94.3333 331.5,95C 332.252,95.6708 332.586,96.5041 332.5,97.5 Z"/></g>
<g><path style="opacity:0.998" fill="#f3f3f3" d="M 378.5,97.5 C 376.399,100.797 375.065,104.463 374.5,108.5C 374.072,111.785 373.072,114.785 371.5,117.5C 370.069,118.78 369.402,120.447 369.5,122.5C 366.301,133.239 362.801,143.906 359,154.5C 358.303,156.584 357.136,158.251 355.5,159.5C 355.5,158.833 355.5,158.167 355.5,157.5C 351.941,145.655 348.274,133.821 344.5,122C 345.233,120.234 345.567,118.401 345.5,116.5C 346.267,112.673 347.267,109.006 348.5,105.5C 350.472,102.916 351.472,99.9164 351.5,96.5C 355.783,95.1734 360.449,94.5067 365.5,94.5C 370.167,94.6667 374.833,94.8333 379.5,95C 378.748,95.6708 378.414,96.5041 378.5,97.5 Z"/></g>
<g><path style="opacity:0.997" fill="#f5f5f5" d="M 450.5,106.5 C 451.5,108.167 452.833,109.5 454.5,110.5C 455.117,110.611 455.617,110.944 456,111.5C 456.792,128.865 456.625,146.198 455.5,163.5C 446.174,164.76 436.841,164.76 427.5,163.5C 427.5,146.167 427.5,128.833 427.5,111.5C 413.833,111.5 400.167,111.5 386.5,111.5C 385.362,108.696 385.195,105.696 386,102.5C 389.035,99.1298 392.368,96.1298 396,93.5C 410.425,94.3246 424.925,94.8246 439.5,95C 443.37,98.7023 447.037,102.536 450.5,106.5 Z"/></g>
<g><path style="opacity:0.004" fill="#000000" d="M 509.5,95.5 C 510.833,96.1667 510.833,96.1667 509.5,95.5 Z"/></g>
<g><path style="opacity:0.997" fill="#f2f2f2" d="M 628.5,147.5 C 628.205,134.784 628.538,122.117 629.5,109.5C 632.833,108.833 634.833,106.833 635.5,103.5C 638.462,100.036 641.629,96.7025 645,93.5C 649.066,94.4637 653.233,94.797 657.5,94.5C 657.5,117.5 657.5,140.5 657.5,163.5C 652.768,164.916 648.102,164.749 643.5,163C 638.297,157.965 633.297,152.798 628.5,147.5 Z"/></g>
<g><path style="opacity:0.146" fill="#555555" d="M 662.5,94.5 C 661.548,100.075 661.214,105.741 661.5,111.5C 660.348,106.015 660.182,100.349 661,94.5C 661.69,93.2617 662.19,93.2617 662.5,94.5 Z"/></g>
<g><path style="opacity:0.998" fill="#f7f7f7" d="M 740.5,94.5 C 740.5,117.5 740.5,140.5 740.5,163.5C 730.845,164.771 721.178,164.771 711.5,163.5C 711.5,140.5 711.5,117.5 711.5,94.5C 721.014,94.2739 730.68,94.2739 740.5,94.5 Z"/></g>
<g><path style="opacity:0.998" fill="#ededed" d="M 792.5,94.5 C 802.5,94.5 812.5,94.5 822.5,94.5C 823.703,117.515 823.703,140.515 822.5,163.5C 812.496,164.802 802.496,164.802 792.5,163.5C 792.5,140.5 792.5,117.5 792.5,94.5 Z"/></g>
<g><path style="opacity:0.998" fill="#fafafa" d="M 866.5,102.5 C 866.5,122.833 866.5,143.167 866.5,163.5C 857.08,164.263 847.747,164.263 838.5,163.5C 838.5,146.167 838.5,128.833 838.5,111.5C 834.5,111.5 830.5,111.5 826.5,111.5C 825.366,109.034 825.199,106.367 826,103.5C 829.333,100.167 832.667,96.8333 836,93.5C 843.754,94.3166 851.588,94.8166 859.5,95C 862.039,97.3697 864.372,99.8697 866.5,102.5 Z"/></g>
<g><path style="opacity:0.999" fill="#f1f1f1" d="M 904.5,99.5 C 905.419,102.089 907.086,104.089 909.5,105.5C 910.794,106.29 911.961,107.29 913,108.5C 913.825,126.74 913.659,144.907 912.5,163C 910.109,163.287 907.776,163.787 905.5,164.5C 900.68,163.192 895.846,163.192 891,164.5C 888.273,163.937 885.607,163.27 883,162.5C 882.349,148.242 882.515,133.909 883.5,119.5C 883.5,116.833 883.5,114.167 883.5,111.5C 879.5,111.5 875.5,111.5 871.5,111.5C 870.366,109.034 870.199,106.367 871,103.5C 873.833,100.667 876.667,97.8333 879.5,95C 886.167,94.3333 892.833,94.3333 899.5,95C 901.037,96.7073 902.704,98.2073 904.5,99.5 Z"/></g>
<g><path style="opacity:0.997" fill="#fcfcfc" d="M 994.5,109.5 C 995.473,127.453 995.807,145.453 995.5,163.5C 986.443,163.84 977.443,163.84 968.5,163.5C 968.5,146.167 968.5,128.833 968.5,111.5C 954.5,111.5 940.5,111.5 926.5,111.5C 926.335,108.482 926.502,105.482 927,102.5C 927.383,101.944 927.883,101.611 928.5,101.5C 930.167,100.5 931.5,99.1667 932.5,97.5C 932.953,96.5416 933.619,95.7083 934.5,95C 949.5,94.3333 964.5,94.3333 979.5,95C 985.03,99.3644 990.03,104.198 994.5,109.5 Z"/></g>
<g><path style="opacity:0.227" fill="#464646" d="M 239.5,95.5 C 242.243,97.2393 244.243,99.5726 245.5,102.5C 242.757,100.761 240.757,98.4274 239.5,95.5 Z"/></g>
<g><path style="opacity:0.42" fill="#5a5a5a" d="M 932.5,97.5 C 931.5,99.1667 930.167,100.5 928.5,101.5C 928.833,99.1667 930.167,97.8333 932.5,97.5 Z"/></g>
<g><path style="opacity:0.82" fill="#8d8d8d" d="M 351.5,96.5 C 351.472,99.9164 350.472,102.916 348.5,105.5C 348.69,102.145 349.69,99.145 351.5,96.5 Z"/></g>
<g><path style="opacity:0.604" fill="#717171" d="M 591.5,96.5 C 591.277,100.162 590.277,103.495 588.5,106.5C 588.723,102.838 589.723,99.5046 591.5,96.5 Z"/></g>
<g><path style="opacity:0.616" fill="#616161" d="M 285.5,97.5 C 287.606,101.491 288.939,105.824 289.5,110.5C 287.39,106.498 286.057,102.165 285.5,97.5 Z"/></g>
<g><path style="opacity:0.616" fill="#6a6a6a" d="M 332.5,97.5 C 333.738,99.2143 334.405,101.214 334.5,103.5C 332.926,101.898 332.259,99.8984 332.5,97.5 Z"/></g>
<g><path style="opacity:0.129" fill="#414141" d="M 378.5,97.5 C 377.935,101.537 376.601,105.203 374.5,108.5C 375.065,104.463 376.399,100.797 378.5,97.5 Z"/></g>
<g><path style="opacity:0.212" fill="#383838" d="M 904.5,99.5 C 906.914,100.911 908.581,102.911 909.5,105.5C 907.086,104.089 905.419,102.089 904.5,99.5 Z"/></g>
<g><path style="opacity:0.467" fill="#545454" d="M 778.5,100.5 C 780.587,101.585 781.92,103.251 782.5,105.5C 780.413,104.415 779.08,102.749 778.5,100.5 Z"/></g>
<g><path style="opacity:0.22" fill="#393939" d="M 306.5,103.5 C 308.935,107.799 310.602,112.466 311.5,117.5C 309.147,113.282 307.147,108.782 305.5,104C 305.728,103.601 306.062,103.435 306.5,103.5 Z"/></g>
<g><path style="opacity:0.011" fill="#313131" d="M 740.5,94.5 C 741.556,99.1355 742.223,103.969 742.5,109C 742.335,127.302 741.668,145.469 740.5,163.5C 740.5,140.5 740.5,117.5 740.5,94.5 Z"/></g>
<g><path style="opacity:0.673" fill="#919191" d="M 866.5,102.5 C 867.289,102.783 867.956,103.283 868.5,104C 867.237,118.528 867.237,133.194 868.5,148C 868.621,153.411 867.954,158.577 866.5,163.5C 866.5,143.167 866.5,122.833 866.5,102.5 Z"/></g>
<g><path style="opacity:0.443" fill="#585858" d="M 572.5,102.5 C 574.072,105.215 575.072,108.215 575.5,111.5C 573.528,108.916 572.528,105.916 572.5,102.5 Z"/></g>
<g><path style="opacity:0.58" fill="#616161" d="M 334.5,103.5 C 335.738,105.214 336.405,107.214 336.5,109.5C 334.926,107.898 334.259,105.898 334.5,103.5 Z"/></g>
<g><path style="opacity:0.012" fill="#2d2d2d" d="M 450.5,106.5 C 452.833,106.833 454.167,108.167 454.5,110.5C 452.833,109.5 451.5,108.167 450.5,106.5 Z"/></g>
<g><path style="opacity:0.682" fill="#959595" d="M 635.5,103.5 C 634.833,106.833 632.833,108.833 629.5,109.5C 631.167,107.167 633.167,105.167 635.5,103.5 Z"/></g>
<g><path style="opacity:0.614" fill="#6b6b6b" d="M 3.5,77.5 C 12.9856,76.5062 22.6522,76.1729 32.5,76.5C 33.1131,102.925 33.4464,129.258 33.5,155.5C 33.7135,158.527 33.0468,161.193 31.5,163.5C 31.5,134.833 31.5,106.167 31.5,77.5C 22.1667,77.5 12.8333,77.5 3.5,77.5 Z"/></g>
<g><path style="opacity:0.533" fill="#737373" d="M 784.5,107.5 C 785.906,107.973 786.573,108.973 786.5,110.5C 785.094,110.027 784.427,109.027 784.5,107.5 Z"/></g>
<g><path style="opacity:0.122" fill="#414141" d="M 260.5,106.5 C 261.931,107.78 262.598,109.447 262.5,111.5C 261.069,110.22 260.402,108.553 260.5,106.5 Z"/></g>
<g><path style="opacity:0.678" fill="#858585" d="M 588.5,106.5 C 588.59,109.152 587.924,111.485 586.5,113.5C 586.41,110.848 587.076,108.515 588.5,106.5 Z"/></g>
<g><path style="opacity:0.496" fill="#707070" d="M 629.5,109.5 C 628.538,122.117 628.205,134.784 628.5,147.5C 626.97,140.903 626.303,134.07 626.5,127C 626.667,122.167 626.833,117.333 627,112.5C 627.377,111.058 628.21,110.058 629.5,109.5 Z"/></g>
<g><path style="opacity:0.082" fill="#4e4e4e" d="M 661.5,111.5 C 666.5,111.5 671.5,111.5 676.5,111.5C 676.5,112.5 676.5,113.5 676.5,114.5C 671.609,112.944 666.609,111.944 661.5,111.5 Z"/></g>
<g><path style="opacity:0.137" fill="#454545" d="M 871.5,111.5 C 875.5,111.5 879.5,111.5 883.5,111.5C 883.5,114.167 883.5,116.833 883.5,119.5C 882.532,117.393 882.198,115.059 882.5,112.5C 878.629,112.815 874.962,112.482 871.5,111.5 Z"/></g>
<g><path style="opacity:0.004" fill="#000000" d="M 296.5,112.5 C 297.833,113.167 297.833,113.167 296.5,112.5 Z"/></g>
<g><path style="opacity:0.357" fill="#5f5f5f" d="M 307.5,116.5 C 306.318,113.456 304.651,110.789 302.5,108.5C 302.461,107.244 302.961,106.244 304,105.5C 306.076,108.893 307.242,112.56 307.5,116.5 Z"/></g>
<g><path style="opacity:0.565" fill="#414141" d="M 336.5,109.5 C 338.642,112.8 339.975,116.467 340.5,120.5C 338.01,117.374 336.677,113.708 336.5,109.5 Z"/></g>
<g><path style="opacity:0.02" fill="#1e1e1e" d="M 745.5,111.5 C 749.5,111.5 753.5,111.5 757.5,111.5C 757.5,116.5 757.5,121.5 757.5,126.5C 756.514,122.03 756.181,117.363 756.5,112.5C 752.629,112.815 748.962,112.482 745.5,111.5 Z"/></g>
<g><path style="opacity:0.004" fill="#000000" d="M 617.5,113.5 C 618.833,114.167 618.833,114.167 617.5,113.5 Z"/></g>
<g><path style="opacity:0.532" fill="#696969" d="M 994.5,109.5 C 995.79,110.058 996.623,111.058 997,112.5C 997.667,128.833 997.667,145.167 997,161.5C 996.722,162.416 996.222,163.082 995.5,163.5C 995.807,145.453 995.473,127.453 994.5,109.5 Z"/></g>
<g><path style="opacity:0.643" fill="#666666" d="M 575.5,111.5 C 576.537,112.93 577.204,114.597 577.5,116.5C 575.787,115.365 575.12,113.698 575.5,111.5 Z"/></g>
<g><path style="opacity:0.365" fill="#565656" d="M 289.5,110.5 C 291.267,112.792 292.267,115.458 292.5,118.5C 290.415,116.316 289.415,113.649 289.5,110.5 Z"/></g>
<g><path style="opacity:0.502" fill="#707070" d="M 926.5,111.5 C 940.5,111.5 954.5,111.5 968.5,111.5C 968.5,128.833 968.5,146.167 968.5,163.5C 967.754,159.148 967.087,154.648 966.5,150C 966.262,137.542 966.595,125.209 967.5,113C 953.661,112.831 939.994,112.331 926.5,111.5 Z"/></g>
<g><path style="opacity:0.004" fill="#000000" d="M 176.5,119.5 C 177.833,120.167 177.833,120.167 176.5,119.5 Z"/></g>
<g><path style="opacity:0.553" fill="#575757" d="M 307.5,116.5 C 310.329,122.145 312.496,128.145 314,134.5C 314.781,137.817 314.281,140.817 312.5,143.5C 312.511,141.453 312.844,139.453 313.5,137.5C 311.085,130.592 309.085,123.592 307.5,116.5 Z"/></g>
<g><path style="opacity:0.11" fill="#4c4c4c" d="M 371.5,117.5 C 371.598,119.553 370.931,121.22 369.5,122.5C 369.402,120.447 370.069,118.78 371.5,117.5 Z"/></g>
<g><path style="opacity:0.702" fill="#686868" d="M 577.5,117.5 C 578.931,118.78 579.598,120.447 579.5,122.5C 577.787,121.365 577.12,119.698 577.5,117.5 Z"/></g>
<g><path style="opacity:0.184" fill="#4e4e4e" d="M 386.5,111.5 C 400.167,111.5 413.833,111.5 427.5,111.5C 427.5,128.833 427.5,146.167 427.5,163.5C 426.04,146.656 425.707,129.656 426.5,112.5C 412.99,112.829 399.656,112.496 386.5,111.5 Z"/></g>
<g><path style="opacity:0.576" fill="#4e4e4e" d="M 292.5,119.5 C 293.293,121.918 294.626,123.918 296.5,125.5C 296.719,126.675 296.386,127.675 295.5,128.5C 293.506,125.85 292.506,122.85 292.5,119.5 Z"/></g>
<g><path style="opacity:0.298" fill="#5f5f5f" d="M 584.5,119.5 C 584.5,121.833 584.5,124.167 584.5,126.5C 583.751,125.469 583.085,124.302 582.5,123C 583.085,121.698 583.751,120.531 584.5,119.5 Z"/></g>
<g><path style="opacity:0.997" fill="#f2f2f2" d="M 217.5,123.5 C 218.833,123.5 220.167,123.5 221.5,123.5C 221.5,127.5 221.5,131.5 221.5,135.5C 216.653,135.715 211.986,135.715 207.5,135.5C 206.517,139.298 206.183,143.298 206.5,147.5C 209.167,147.5 211.833,147.5 214.5,147.5C 215.833,147.5 217.167,147.5 218.5,147.5C 219.5,147.5 220.5,147.5 221.5,147.5C 221.5,150.5 221.5,153.5 221.5,156.5C 219.215,158.118 217.215,160.118 215.5,162.5C 200.184,168.325 188.017,164.659 179,151.5C 178.333,145.833 178.333,140.167 179,134.5C 179.383,133.944 179.883,133.611 180.5,133.5C 183.167,132.833 184.833,131.167 185.5,128.5C 187.442,126.609 189.275,124.609 191,122.5C 199.749,123.484 208.582,123.817 217.5,123.5 Z"/></g>
<g><path style="opacity:0.387" fill="#505050" d="M 217.5,123.5 C 219.223,122.193 221.057,122.193 223,123.5C 223.667,127.167 223.667,130.833 223,134.5C 222.617,135.056 222.117,135.389 221.5,135.5C 221.5,131.5 221.5,127.5 221.5,123.5C 220.167,123.5 218.833,123.5 217.5,123.5 Z"/></g>
<g><path style="opacity:0.094" fill="#404040" d="M 264.5,117.5 C 266.267,119.792 267.267,122.458 267.5,125.5C 265.733,123.208 264.733,120.542 264.5,117.5 Z"/></g>
<g><path style="opacity:0.996" fill="#f0f0f0" d="M 410.5,135.5 C 409.5,135.5 408.5,135.5 407.5,135.5C 407.5,139.5 407.5,143.5 407.5,147.5C 412.5,147.5 417.5,147.5 422.5,147.5C 423.634,149.966 423.801,152.633 423,155.5C 420.131,158.704 416.965,161.537 413.5,164C 405.768,164.856 398.102,164.523 390.5,163C 387,159.5 383.5,156 380,152.5C 379.333,146.5 379.333,140.5 380,134.5C 384.015,130.318 388.182,126.318 392.5,122.5C 402.913,123.751 413.08,123.751 423,122.5C 423.667,126.833 423.667,131.167 423,135.5C 419.045,135.629 414.878,135.629 410.5,135.5 Z"/></g>
<g><path style="opacity:0.488" fill="#676767" d="M 676.5,116.5 C 676.5,119.167 676.5,121.833 676.5,124.5C 671.5,124.5 666.5,124.5 661.5,124.5C 661.5,124.167 661.5,123.833 661.5,123.5C 665.803,122.172 670.136,122.172 674.5,123.5C 675.168,121.031 675.835,118.698 676.5,116.5 Z"/></g>
<g><path style="opacity:0.997" fill="#fafafa" d="M 949.5,135.5 C 948.517,139.298 948.183,143.298 948.5,147.5C 950.833,147.5 953.167,147.5 955.5,147.5C 958.119,147.768 960.619,147.435 963,146.5C 963.667,149.5 963.667,152.5 963,155.5C 960,158.5 957,161.5 954,164.5C 947,163.167 940,163.167 933,164.5C 931.955,163.627 931.122,162.627 930.5,161.5C 928.761,158.757 926.427,156.757 923.5,155.5C 923.167,154.833 922.833,154.167 922.5,153.5C 921.167,146.833 921.167,140.167 922.5,133.5C 925.296,130.203 928.296,127.036 931.5,124C 942.161,123.5 952.828,123.333 963.5,123.5C 963.5,127.5 963.5,131.5 963.5,135.5C 958.653,135.715 953.986,135.715 949.5,135.5 Z"/></g>
<g><path style="opacity:0.984" fill="#7f7f7f" d="M 550.5,124.5 C 551.309,125.469 552.309,126.302 553.5,127C 552.663,128.011 552.33,129.178 552.5,130.5C 551.262,128.786 550.595,126.786 550.5,124.5 Z"/></g>
<g><path style="opacity:0.741" fill="#707070" d="M 579.5,122.5 C 580.924,124.515 581.59,126.848 581.5,129.5C 579.837,127.562 579.171,125.228 579.5,122.5 Z"/></g>
<g><path style="opacity:0.004" fill="#000000" d="M 224.5,127.5 C 225.613,128.946 225.78,130.613 225,132.5C 224.506,130.866 224.34,129.199 224.5,127.5 Z"/></g>
<g><path style="opacity:0.144" fill="#494949" d="M 36.5,94.5 C 43.8333,94.5 51.1667,94.5 58.5,94.5C 58.5,111.833 58.5,129.167 58.5,146.5C 51.1667,146.5 43.8333,146.5 36.5,146.5C 43.3134,145.509 50.3134,145.175 57.5,145.5C 57.5,128.833 57.5,112.167 57.5,95.5C 50.3134,95.8245 43.3134,95.4912 36.5,94.5 Z"/></g>
<g><path style="opacity:0.047" fill="#2f2f2f" d="M 312.5,121.5 C 315.599,127.791 317.932,134.458 319.5,141.5C 316.394,135.187 314.061,128.52 312.5,121.5 Z"/></g>
<g><path style="opacity:0.651" fill="#898989" d="M 185.5,128.5 C 184.833,131.167 183.167,132.833 180.5,133.5C 181.833,131.5 183.5,129.833 185.5,128.5 Z"/></g>
<g><path style="opacity:0.004" fill="#000000" d="M 458.5,132.5 C 459.833,133.167 459.833,133.167 458.5,132.5 Z"/></g>
<g><path style="opacity:0.286" fill="#767676" d="M 493.5,68.5 C 494.198,86.8491 494.865,105.349 495.5,124C 494.606,130.131 494.273,136.298 494.5,142.5C 494.5,143.833 494.5,145.167 494.5,146.5C 493.502,120.672 493.169,94.672 493.5,68.5 Z"/></g>
<g><path style="opacity:0.145" fill="#3d3d3d" d="M 552.5,130.5 C 553.931,131.78 554.598,133.447 554.5,135.5C 553.069,134.22 552.402,132.553 552.5,130.5 Z"/></g>
<g><path style="opacity:0.039" fill="#383838" d="M 826.5,111.5 C 830.5,111.5 834.5,111.5 838.5,111.5C 838.5,128.833 838.5,146.167 838.5,163.5C 837.503,146.675 837.17,129.675 837.5,112.5C 833.629,112.815 829.962,112.482 826.5,111.5 Z"/></g>
<g><path style="opacity:0.118" fill="#3f3f3f" d="M 269.5,131.5 C 270.931,132.78 271.598,134.447 271.5,136.5C 270.069,135.22 269.402,133.553 269.5,131.5 Z"/></g>
<g><path style="opacity:0.482" fill="#595959" d="M 582.5,131.5 C 583.537,132.93 584.204,134.597 584.5,136.5C 582.787,135.365 582.12,133.698 582.5,131.5 Z"/></g>
<g><path style="opacity:0.413" fill="#6c6c6c" d="M 207.5,135.5 C 207.547,139.002 207.547,142.502 207.5,146C 210.036,146.186 212.369,146.686 214.5,147.5C 211.833,147.5 209.167,147.5 206.5,147.5C 206.183,143.298 206.517,139.298 207.5,135.5 Z"/></g>
<g><path style="opacity:0.195" fill="#767676" d="M 702.5,110.5 C 703.493,118.984 703.826,127.651 703.5,136.5C 689.167,136.5 674.833,136.5 660.5,136.5C 660.182,131.968 660.515,127.634 661.5,123.5C 661.5,123.833 661.5,124.167 661.5,124.5C 661.5,128.167 661.5,131.833 661.5,135.5C 675.167,135.5 688.833,135.5 702.5,135.5C 702.5,127.167 702.5,118.833 702.5,110.5 Z"/></g>
<g><path style="opacity:0.249" fill="#7b7b7b" d="M 922.5,133.5 C 921.167,140.167 921.167,146.833 922.5,153.5C 921.18,150.572 920.514,147.239 920.5,143.5C 920.514,139.761 921.18,136.428 922.5,133.5 Z"/></g>
<g><path style="opacity:0.031" fill="#191919" d="M 345.5,116.5 C 345.567,118.401 345.233,120.234 344.5,122C 348.274,133.821 351.941,145.655 355.5,157.5C 354.167,158.167 354.167,158.833 355.5,159.5C 355.167,160.5 354.5,161.167 353.5,161.5C 348.587,148.091 344.254,134.425 340.5,120.5C 341.558,121.6 342.392,122.934 343,124.5C 343.279,121.543 344.113,118.877 345.5,116.5 Z"/></g>
<g><path style="opacity:0.98" fill="#898989" d="M 587.5,135.5 C 590.295,136.358 590.962,138.358 589.5,141.5C 588.262,139.786 587.595,137.786 587.5,135.5 Z"/></g>
<g><path style="opacity:0.102" fill="#282828" d="M 949.5,135.5 C 949.5,139.167 949.5,142.833 949.5,146.5C 951.735,146.205 953.735,146.539 955.5,147.5C 953.167,147.5 950.833,147.5 948.5,147.5C 948.183,143.298 948.517,139.298 949.5,135.5 Z"/></g>
<g><path style="opacity:0.133" fill="#3e3e3e" d="M 556.5,141.5 C 557.931,142.78 558.598,144.447 558.5,146.5C 557.069,145.22 556.402,143.553 556.5,141.5 Z"/></g>
<g><path style="opacity:0.206" fill="#383838" d="M 494.5,142.5 C 495.267,143.172 495.934,144.005 496.5,145C 500.025,145.179 503.359,145.679 506.5,146.5C 502.5,146.5 498.5,146.5 494.5,146.5C 494.5,145.167 494.5,143.833 494.5,142.5 Z"/></g>
<g><path style="opacity:0.061" fill="#3c3c3c" d="M 410.5,135.5 C 408.702,138.831 408.036,142.498 408.5,146.5C 413.363,146.181 418.03,146.514 422.5,147.5C 417.5,147.5 412.5,147.5 407.5,147.5C 407.5,143.5 407.5,139.5 407.5,135.5C 408.5,135.5 409.5,135.5 410.5,135.5 Z"/></g>
<g><path style="opacity:0.09" fill="#454545" d="M 273.5,142.5 C 275.267,144.792 276.267,147.458 276.5,150.5C 274.733,148.208 273.733,145.542 273.5,142.5 Z"/></g>
<g><path style="opacity:0.995" fill="#e7e7e7" d="M 661.5,146.5 C 674.363,146.534 687.197,146.534 700,146.5C 700.667,149.5 700.667,152.5 700,155.5C 697.5,158.667 694.667,161.5 691.5,164C 681.048,163.595 670.714,163.428 660.5,163.5C 660.214,157.741 660.548,152.075 661.5,146.5 Z"/></g>
<g><path style="opacity:0.004" fill="#2a2a2a" d="M 321.5,147.5 C 322.738,149.214 323.405,151.214 323.5,153.5C 321.926,151.898 321.259,149.898 321.5,147.5 Z"/></g>
<g><path style="opacity:0.331" fill="#434343" d="M 218.5,147.5 C 219.884,146.199 221.384,146.199 223,147.5C 223.927,150.863 223.427,153.863 221.5,156.5C 221.5,153.5 221.5,150.5 221.5,147.5C 220.5,147.5 219.5,147.5 218.5,147.5 Z"/></g>
<g><path style="opacity:0.015" fill="#232323" d="M 590.5,144.5 C 592.601,147.797 593.935,151.463 594.5,155.5C 593.167,156.167 593.167,156.833 594.5,157.5C 594.068,158.71 593.401,159.71 592.5,160.5C 592.167,159.833 591.833,159.167 591.5,158.5C 592.833,158.167 592.833,157.833 591.5,157.5C 590.89,156.609 590.557,155.609 590.5,154.5C 592.009,155.859 592.676,155.359 592.5,153C 591.725,150.178 591.058,147.344 590.5,144.5 Z"/></g>
<g><path style="opacity:0.008" fill="#333333" d="M 309.5,152.5 C 309.59,155.152 308.924,157.485 307.5,159.5C 307.41,156.848 308.076,154.515 309.5,152.5 Z"/></g>
<g><path style="opacity:0.976" fill="#808080" d="M 323.5,153.5 C 324.309,154.469 325.309,155.302 326.5,156C 325.663,157.011 325.33,158.178 325.5,159.5C 324.262,157.786 323.595,155.786 323.5,153.5 Z"/></g>
<g><path style="opacity:0.004" fill="#000000" d="M 464.5,155.5 C 465.833,156.167 465.833,156.167 464.5,155.5 Z"/></g>
<g><path style="opacity:0.18" fill="#404040" d="M 560.5,152.5 C 561.931,153.78 562.598,155.447 562.5,157.5C 561.069,156.22 560.402,154.553 560.5,152.5 Z"/></g>
<g><path style="opacity:0.431" fill="#565656" d="M 923.5,155.5 C 926.427,156.757 928.761,158.757 930.5,161.5C 927.573,160.243 925.239,158.243 923.5,155.5 Z"/></g>
<g><path style="opacity:0.09" fill="#4e4e4e" d="M 129.5,111.5 C 133.833,111.5 138.167,111.5 142.5,111.5C 142.5,128.833 142.5,146.167 142.5,163.5C 141.503,146.675 141.17,129.675 141.5,112.5C 137.298,112.817 133.298,112.483 129.5,111.5 Z"/></g>
<g><path style="opacity:0.004" fill="#000000" d="M 782.5,156.5 C 783.833,157.167 783.833,157.167 782.5,156.5 Z"/></g>
<g><path style="opacity:0.004" fill="#000000" d="M 707.5,160.5 C 708.833,161.167 708.833,161.167 707.5,160.5 Z"/></g>
<g><path style="opacity:0.004" fill="#000000" d="M 623.5,163.5 C 624.833,164.167 624.833,164.167 623.5,163.5 Z"/></g>
<g><path style="opacity:0.004" fill="#000000" d="M 125.5,174.5 C 126.833,175.167 126.833,175.167 125.5,174.5 Z"/></g>
<g><path style="opacity:0.004" fill="#000000" d="M 44.5,176.5 C 45.8333,177.167 45.8333,177.167 44.5,176.5 Z"/></g>
<g><path style="opacity:0.004" fill="#000000" d="M 938.5,185.5 C 939.833,186.167 939.833,186.167 938.5,185.5 Z"/></g>
<g><path style="opacity:0.004" fill="#000000" d="M 170.5,186.5 C 171.833,187.167 171.833,187.167 170.5,186.5 Z"/></g>
<g><path style="opacity:0.004" fill="#000000" d="M 941.5,189.5 C 942.833,190.167 942.833,190.167 941.5,189.5 Z"/></g>
<g><path style="opacity:0.004" fill="#000000" d="M 581.5,190.5 C 582.833,191.167 582.833,191.167 581.5,190.5 Z"/></g>
<g><path style="opacity:0.004" fill="#000000" d="M 947.5,195.5 C 948.833,196.167 948.833,196.167 947.5,195.5 Z"/></g>
<g><path style="opacity:0.004" fill="#000000" d="M 290.5,198.5 C 291.833,199.167 291.833,199.167 290.5,198.5 Z"/></g>
<g><path style="opacity:0.004" fill="#000000" d="M 845.5,198.5 C 846.833,199.167 846.833,199.167 845.5,198.5 Z"/></g>
<g><path style="opacity:0.004" fill="#000000" d="M 68.5,200.5 C 69.8333,201.167 69.8333,201.167 68.5,200.5 Z"/></g>
<g><path style="opacity:0.004" fill="#000000" d="M 77.5,214.5 C 78.8333,215.167 78.8333,215.167 77.5,214.5 Z"/></g>
<g><path style="opacity:0.004" fill="#000000" d="M 194.5,215.5 C 195.833,216.167 195.833,216.167 194.5,215.5 Z"/></g>
<g><path style="opacity:0.004" fill="#000000" d="M 128.5,218.5 C 129.833,219.167 129.833,219.167 128.5,218.5 Z"/></g>
<g><path style="opacity:0.004" fill="#000000" d="M 461.5,220.5 C 462.833,221.167 462.833,221.167 461.5,220.5 Z"/></g>
<g><path style="opacity:0.004" fill="#000000" d="M 41.5,229.5 C 42.8333,230.167 42.8333,230.167 41.5,229.5 Z"/></g>
<g><path style="opacity:0.004" fill="#000000" d="M 113.5,231.5 C 114.833,232.167 114.833,232.167 113.5,231.5 Z"/></g>
<g><path style="opacity:0.004" fill="#000000" d="M 230.5,234.5 C 231.833,235.167 231.833,235.167 230.5,234.5 Z"/></g>
<g><path style="opacity:0.004" fill="#000000" d="M 752.5,239.5 C 753.833,240.167 753.833,240.167 752.5,239.5 Z"/></g>
<g><path style="opacity:0.004" fill="#000000" d="M 143.5,240.5 C 144.833,241.167 144.833,241.167 143.5,240.5 Z"/></g>
<g><path style="opacity:0.004" fill="#000000" d="M 119.5,243.5 C 120.833,244.167 120.833,244.167 119.5,243.5 Z"/></g>
<g><path style="opacity:0.004" fill="#000000" d="M 779.5,243.5 C 780.833,244.167 780.833,244.167 779.5,243.5 Z"/></g>
<g><path style="opacity:0.004" fill="#000000" d="M 875.5,243.5 C 876.833,244.167 876.833,244.167 875.5,243.5 Z"/></g>
<g><path style="opacity:0.004" fill="#000000" d="M 773.5,246.5 C 774.833,247.167 774.833,247.167 773.5,246.5 Z"/></g>
</svg>
