<?xml version="1.0" encoding="UTF-8"?>
<!DOCTYPE svg PUBLIC "-//W3C//DTD SVG 1.1//EN" "http://www.w3.org/Graphics/SVG/1.1/DTD/svg11.dtd">
<svg xmlns="http://www.w3.org/2000/svg" version="1.1" width="999px" height="249px" style="shape-rendering:geometricPrecision; text-rendering:geometricPrecision; image-rendering:optimizeQuality; fill-rule:evenodd; clip-rule:evenodd" xmlns:xlink="http://www.w3.org/1999/xlink">
<g><path style="opacity:0.004" fill="#000000" d="M 152.5,-0.5 C 152.833,-0.5 153.167,-0.5 153.5,-0.5C 153.315,0.170143 152.981,0.170143 152.5,-0.5 Z"/></g>
<g><path style="opacity:0.004" fill="#000000" d="M 218.5,-0.5 C 218.833,-0.5 219.167,-0.5 219.5,-0.5C 219.315,0.170143 218.981,0.170143 218.5,-0.5 Z"/></g>
<g><path style="opacity:0.004" fill="#000000" d="M 875.5,-0.5 C 875.833,-0.5 876.167,-0.5 876.5,-0.5C 876.315,0.170143 875.981,0.170143 875.5,-0.5 Z"/></g>
<g><path style="opacity:0.004" fill="#000000" d="M 434.5,0.5 C 435.833,1.16667 435.833,1.16667 434.5,0.5 Z"/></g>
<g><path style="opacity:0.004" fill="#000000" d="M 803.5,4.5 C 804.833,5.16667 804.833,5.16667 803.5,4.5 Z"/></g>
<g><path style="opacity:0.004" fill="#000000" d="M 176.5,6.5 C 177.833,7.16667 177.833,7.16667 176.5,6.5 Z"/></g>
<g><path style="opacity:0.004" fill="#000000" d="M 140.5,8.5 C 141.833,9.16667 141.833,9.16667 140.5,8.5 Z"/></g>
<g><path style="opacity:0.004" fill="#000000" d="M 368.5,8.5 C 369.833,9.16667 369.833,9.16667 368.5,8.5 Z"/></g>
<g><path style="opacity:0.004" fill="#000000" d="M 656.5,14.5 C 657.833,15.1667 657.833,15.1667 656.5,14.5 Z"/></g>
<g><path style="opacity:0.004" fill="#000000" d="M 65.5,17.5 C 66.8333,18.1667 66.8333,18.1667 65.5,17.5 Z"/></g>
<g><path style="opacity:0.004" fill="#000000" d="M 251.5,21.5 C 252.833,22.1667 252.833,22.1667 251.5,21.5 Z"/></g>
<g><path style="opacity:0.004" fill="#000000" d="M 953.5,22.5 C 954.833,23.1667 954.833,23.1667 953.5,22.5 Z"/></g>
<g><path style="opacity:0.004" fill="#000000" d="M 392.5,25.5 C 393.833,26.1667 393.833,26.1667 392.5,25.5 Z"/></g>
<g><path style="opacity:0.004" fill="#000000" d="M 197.5,26.5 C 198.833,27.1667 198.833,27.1667 197.5,26.5 Z"/></g>
<g><path style="opacity:0.004" fill="#000000" d="M 650.5,29.5 C 651.833,30.1667 651.833,30.1667 650.5,29.5 Z"/></g>
<g><path style="opacity:0.004" fill="#000000" d="M 662.5,34.5 C 663.833,35.1667 663.833,35.1667 662.5,34.5 Z"/></g>
<g><path style="opacity:0.004" fill="#000000" d="M 956.5,34.5 C 957.833,35.1667 957.833,35.1667 956.5,34.5 Z"/></g>
<g><path style="opacity:0.004" fill="#000000" d="M 8.5,36.5 C 9.83333,37.1667 9.83333,37.1667 8.5,36.5 Z"/></g>
<g><path style="opacity:0.004" fill="#000000" d="M 200.5,37.5 C 201.833,38.1667 201.833,38.1667 200.5,37.5 Z"/></g>
<g><path style="opacity:0.004" fill="#000000" d="M 461.5,39.5 C 462.833,40.1667 462.833,40.1667 461.5,39.5 Z"/></g>
<g><path style="opacity:0.004" fill="#000000" d="M 572.5,46.5 C 573.833,47.1667 573.833,47.1667 572.5,46.5 Z"/></g>
<g><path style="opacity:0.004" fill="#000000" d="M 785.5,51.5 C 786.833,52.1667 786.833,52.1667 785.5,51.5 Z"/></g>
<g><path style="opacity:0.004" fill="#000000" d="M 950.5,51.5 C 951.833,52.1667 951.833,52.1667 950.5,51.5 Z"/></g>
<g><path style="opacity:0.004" fill="#000000" d="M 452.5,52.5 C 453.833,53.1667 453.833,53.1667 452.5,52.5 Z"/></g>
<g><path style="opacity:0.004" fill="#000000" d="M 47.5,53.5 C 48.8333,54.1667 48.8333,54.1667 47.5,53.5 Z"/></g>
<g><path style="opacity:0.004" fill="#000000" d="M 107.5,56.5 C 108.833,57.1667 108.833,57.1667 107.5,56.5 Z"/></g>
<g><path style="opacity:0.212" fill="#383838" d="M 107.5,60.5 C 107.167,60.5 106.833,60.5 106.5,60.5C 99.1104,60.2363 91.7771,60.5696 84.5,61.5C 84.6107,60.8826 84.944,60.3826 85.5,60C 91.4155,59.8104 97.2488,59.3104 103,58.5C 104.622,59.0989 106.122,59.7656 107.5,60.5 Z"/></g>
<g><path style="opacity:1" fill="#f2f2f2" d="M 145.5,85.5 C 150.797,84.7255 156.13,84.3921 161.5,84.5C 163.806,84.9926 166.139,85.3259 168.5,85.5C 176.208,88.546 180.541,94.2126 181.5,102.5C 181.5,112.167 181.5,121.833 181.5,131.5C 182.833,131.5 184.167,131.5 185.5,131.5C 191.095,132.56 192.929,135.893 191,141.5C 190.167,143 189,144.167 187.5,145C 179.167,145.667 170.833,145.667 162.5,145C 160.676,144.34 159.343,143.173 158.5,141.5C 158.5,139.5 158.5,137.5 158.5,135.5C 158.833,133.167 160.167,131.833 162.5,131.5C 164.5,131.5 166.5,131.5 168.5,131.5C 168.182,121.917 168.515,112.417 169.5,103C 168.473,102.487 167.473,101.987 166.5,101.5C 156.156,96.1774 147.156,98.0107 139.5,107C 140.833,114.667 140.833,122.333 139.5,130C 143.828,130.326 147.328,132.16 150,135.5C 150.539,139.59 149.039,142.757 145.5,145C 137.167,145.667 128.833,145.667 120.5,145C 118.598,143.204 116.598,143.037 114.5,144.5C 107.833,144.5 101.167,144.5 94.5,144.5C 94.719,143.325 94.3857,142.325 93.5,141.5C 92.8933,141.624 92.56,141.957 92.5,142.5C 92.5,142.833 92.5,143.167 92.5,143.5C 89.0091,145.108 85.3424,146.108 81.5,146.5C 74.0455,146.848 66.7121,146.182 59.5,144.5C 51.648,141.982 45.9813,136.982 42.5,129.5C 42.7406,127.102 42.0739,125.102 40.5,123.5C 40.5,123.167 40.5,122.833 40.5,122.5C 40.4126,117.463 40.746,112.463 41.5,107.5C 41.5,106.833 41.5,106.167 41.5,105.5C 42.6737,104.486 43.3404,103.153 43.5,101.5C 44.9063,101.027 45.573,100.027 45.5,98.5C 46.9063,98.0269 47.573,97.0269 47.5,95.5C 49.1667,94.5 50.5,93.1667 51.5,91.5C 53.0269,91.573 54.0269,90.9063 54.5,89.5C 56.0269,89.573 57.0269,88.9063 57.5,87.5C 57.8417,86.6618 58.5084,86.3284 59.5,86.5C 67.7524,84.3501 76.0857,84.0167 84.5,85.5C 86.7028,85.6036 88.7028,86.2702 90.5,87.5C 90.7869,89.1207 91.7869,90.1207 93.5,90.5C 94.4954,84.8722 94.8288,79.2055 94.5,73.5C 92.1667,73.5 89.8333,73.5 87.5,73.5C 87.1667,73.5 86.8333,73.5 86.5,73.5C 86.0269,72.0937 85.0269,71.427 83.5,71.5C 83.6716,70.5084 83.3382,69.8417 82.5,69.5C 82.0231,67.6616 81.6897,65.8283 81.5,64C 82.6906,63.3021 83.6906,62.4687 84.5,61.5C 91.7771,60.5696 99.1104,60.2363 106.5,60.5C 106.169,84.3392 106.502,108.006 107.5,131.5C 110.545,131.508 113.545,131.841 116.5,132.5C 118.117,131.962 119.784,131.629 121.5,131.5C 123.167,131.5 124.833,131.5 126.5,131.5C 126.5,112.167 126.5,92.8333 126.5,73.5C 123.833,73.5 121.167,73.5 118.5,73.5C 117.167,72.8333 116.167,71.8333 115.5,70.5C 115.5,68.1667 115.5,65.8333 115.5,63.5C 116.833,62.8333 117.833,61.8333 118.5,60.5C 125.321,59.3454 132.321,59.1787 139.5,60C 140.319,69.089 140.819,78.2556 141,87.5C 142.33,86.4178 143.83,85.7512 145.5,85.5 Z M 67.5,98.5 C 72.2142,98.3531 76.8809,98.6864 81.5,99.5C 82.391,100.11 83.391,100.443 84.5,100.5C 85.2623,102.262 86.5956,103.262 88.5,103.5C 89.5839,106.004 90.9172,108.337 92.5,110.5C 91.1285,112.477 91.4618,114.144 93.5,115.5C 93.5,116.167 93.5,116.833 93.5,117.5C 92.7515,118.531 92.0848,119.698 91.5,121C 91.7284,121.399 92.0618,121.565 92.5,121.5C 91.279,125.385 88.9457,128.385 85.5,130.5C 79.3192,132.252 72.9859,132.919 66.5,132.5C 64.0713,131.449 61.738,130.116 59.5,128.5C 58.8333,127.167 57.8333,126.167 56.5,125.5C 55.8333,123.5 55.1667,121.5 54.5,119.5C 54.4595,116.119 54.7929,112.786 55.5,109.5C 58.2227,104.444 62.2227,100.777 67.5,98.5 Z"/></g>
<g><path style="opacity:0.999" fill="#f3f3f3" d="M 467.5,60.5 C 467.5,84.1667 467.5,107.833 467.5,131.5C 474.167,131.5 480.833,131.5 487.5,131.5C 493.369,133.304 494.869,136.971 492,142.5C 491.097,143.701 489.931,144.535 488.5,145C 470.167,145.667 451.833,145.667 433.5,145C 432.058,144.623 431.058,143.79 430.5,142.5C 430.414,141.504 430.748,140.671 431.5,140C 429.893,138.951 429.227,137.451 429.5,135.5C 429.967,132.703 431.633,131.369 434.5,131.5C 441.167,131.5 447.833,131.5 454.5,131.5C 454.5,112.167 454.5,92.8333 454.5,73.5C 449.167,73.5 443.833,73.5 438.5,73.5C 437.29,73.0679 436.29,72.4013 435.5,71.5C 435.5,68.8333 435.5,66.1667 435.5,63.5C 436.833,62.8333 437.833,61.8333 438.5,60.5C 448.167,59.1667 457.833,59.1667 467.5,60.5 Z"/></g>
<g><path style="opacity:0.004" fill="#000000" d="M 767.5,60.5 C 768.833,61.1667 768.833,61.1667 767.5,60.5 Z"/></g>
<g><path style="opacity:0.004" fill="#000000" d="M 242.5,61.5 C 243.833,62.1667 243.833,62.1667 242.5,61.5 Z"/></g>
<g><path style="opacity:0.733" fill="#ababab" d="M 106.5,60.5 C 106.833,60.5 107.167,60.5 107.5,60.5C 107.546,83.6305 107.546,106.964 107.5,130.5C 107.5,130.833 107.5,131.167 107.5,131.5C 106.502,108.006 106.169,84.3392 106.5,60.5 Z"/></g>
<g><path style="opacity:0.318" fill="#414141" d="M 118.5,60.5 C 117.833,61.8333 116.833,62.8333 115.5,63.5C 115.5,61.5 116.5,60.5 118.5,60.5 Z"/></g>
<g><path style="opacity:0.588" fill="#717171" d="M 438.5,60.5 C 437.833,61.8333 436.833,62.8333 435.5,63.5C 435.5,61.5 436.5,60.5 438.5,60.5 Z"/></g>
<g><path style="opacity:0.132" fill="#292929" d="M 467.5,60.5 C 468.498,83.6607 468.831,106.994 468.5,130.5C 475.022,130.177 481.355,130.51 487.5,131.5C 480.833,131.5 474.167,131.5 467.5,131.5C 467.5,107.833 467.5,84.1667 467.5,60.5 Z"/></g>
<g><path style="opacity:0.004" fill="#000000" d="M 311.5,65.5 C 312.833,66.1667 312.833,66.1667 311.5,65.5 Z"/></g>
<g><path style="opacity:0.004" fill="#000000" d="M 764.5,65.5 C 765.833,66.1667 765.833,66.1667 764.5,65.5 Z"/></g>
<g><path style="opacity:0.627" fill="#676767" d="M 115.5,63.5 C 115.5,65.8333 115.5,68.1667 115.5,70.5C 114.711,70.2172 114.044,69.7172 113.5,69C 114.833,67.6667 114.833,66.3333 113.5,65C 114.044,64.2828 114.711,63.7828 115.5,63.5 Z"/></g>
<g><path style="opacity:0.906" fill="#7f7f7f" d="M 435.5,63.5 C 435.5,66.1667 435.5,68.8333 435.5,71.5C 433.028,68.7857 433.028,66.1191 435.5,63.5 Z"/></g>
<g><path style="opacity:0.4" fill="#373837" d="M 82.5,69.5 C 83.3382,69.8417 83.6716,70.5084 83.5,71.5C 81.8946,70.9941 81.5613,70.3274 82.5,69.5 Z"/></g>
<g><path style="opacity:0.004" fill="#000000" d="M 497.5,69.5 C 498.833,70.1667 498.833,70.1667 497.5,69.5 Z"/></g>
<g><path style="opacity:0.004" fill="#000000" d="M 758.5,69.5 C 759.833,70.1667 759.833,70.1667 758.5,69.5 Z"/></g>
<g><path style="opacity:0.004" fill="#000000" d="M 326.5,70.5 C 327.833,71.1667 327.833,71.1667 326.5,70.5 Z"/></g>
<g><path style="opacity:0.004" fill="#000000" d="M 212.5,71.5 C 213.833,72.1667 213.833,72.1667 212.5,71.5 Z"/></g>
<g><path style="opacity:0.004" fill="#000000" d="M 266.5,71.5 C 267.833,72.1667 267.833,72.1667 266.5,71.5 Z"/></g>
<g><path style="opacity:0.004" fill="#000000" d="M 923.5,71.5 C 924.833,72.1667 924.833,72.1667 923.5,71.5 Z"/></g>
<g><path style="opacity:0.278" fill="#4b4b4b" d="M 83.5,71.5 C 85.0269,71.427 86.0269,72.0937 86.5,73.5C 84.9731,73.573 83.9731,72.9063 83.5,71.5 Z"/></g>
<g><path style="opacity:0.004" fill="#000000" d="M 953.5,73.5 C 954.833,74.1667 954.833,74.1667 953.5,73.5 Z"/></g>
<g><path style="opacity:0.004" fill="#000000" d="M 497.5,74.5 C 498.833,75.1667 498.833,75.1667 497.5,74.5 Z"/></g>
<g><path style="opacity:0.004" fill="#000000" d="M 482.5,75.5 C 483.833,76.1667 483.833,76.1667 482.5,75.5 Z"/></g>
<g><path style="opacity:0.677" fill="#777777" d="M 87.5,73.5 C 89.8333,73.5 92.1667,73.5 94.5,73.5C 94.8288,79.2055 94.4954,84.8722 93.5,90.5C 91.7869,90.1207 90.7869,89.1207 90.5,87.5C 91.4232,88.3029 92.4232,88.4696 93.5,88C 92.4379,83.7927 92.4379,79.2927 93.5,74.5C 91.2646,74.7947 89.2646,74.4614 87.5,73.5 Z"/></g>
<g><path style="opacity:0.346" fill="#4a4a4a" d="M 438.5,73.5 C 443.833,73.5 449.167,73.5 454.5,73.5C 454.5,92.8333 454.5,112.167 454.5,131.5C 447.833,131.5 441.167,131.5 434.5,131.5C 440.679,130.833 447.012,130.167 453.5,129.5C 453.485,111.508 453.485,93.5081 453.5,75.5C 448.349,74.8332 443.349,74.1665 438.5,73.5 Z"/></g>
<g><path style="opacity:0.44" fill="#5b5b5b" d="M 118.5,73.5 C 121.167,73.5 123.833,73.5 126.5,73.5C 126.5,92.8333 126.5,112.167 126.5,131.5C 124.833,131.5 123.167,131.5 121.5,131.5C 122.718,130.839 124.051,130.172 125.5,129.5C 125.044,111.462 125.044,93.4618 125.5,75.5C 123.031,74.8319 120.698,74.1653 118.5,73.5 Z"/></g>
<g><path style="opacity:0.053" fill="#343434" d="M 161.5,84.5 C 161.5,84.1667 161.5,83.8333 161.5,83.5C 164.152,83.4095 166.485,84.0762 168.5,85.5C 166.139,85.3259 163.806,84.9926 161.5,84.5 Z"/></g>
<g><path style="opacity:0.702" fill="#636363" d="M 84.5,85.5 C 76.0857,84.0167 67.7524,84.3501 59.5,86.5C 61.2774,85.3995 63.2774,84.5662 65.5,84C 71.5935,82.7814 77.5935,82.7814 83.5,84C 84.056,84.3826 84.3893,84.8826 84.5,85.5 Z"/></g>
<g><path style="opacity:0.733" fill="#848484" d="M 161.5,83.5 C 161.5,83.8333 161.5,84.1667 161.5,84.5C 156.13,84.3921 150.797,84.7255 145.5,85.5C 146.263,84.7321 147.263,84.2321 148.5,84C 152.821,83.501 157.154,83.3343 161.5,83.5 Z"/></g>
<g><path style="opacity:0.999" fill="#f1f1f1" d="M 251.5,91.5 C 251.427,93.0269 252.094,94.0269 253.5,94.5C 254.931,95.7804 255.598,97.4471 255.5,99.5C 255.5,110.167 255.5,120.833 255.5,131.5C 256.5,131.5 257.5,131.5 258.5,131.5C 261.527,131.986 264.193,133.32 266.5,135.5C 268.213,139.748 266.88,142.748 262.5,144.5C 255.219,145.071 248.219,144.405 241.5,142.5C 240.833,142.5 240.5,142.833 240.5,143.5C 228.049,148.922 215.715,148.755 203.5,143C 200.152,140.499 197.818,137.332 196.5,133.5C 196.5,130.167 196.5,126.833 196.5,123.5C 197.169,120.151 198.836,117.484 201.5,115.5C 203.749,114.92 205.415,113.587 206.5,111.5C 206.973,110.094 207.973,109.427 209.5,109.5C 211.898,109.741 213.898,109.074 215.5,107.5C 224.5,106.167 233.5,106.167 242.5,107.5C 242.795,105.265 242.461,103.265 241.5,101.5C 239.784,99.9752 237.784,98.9752 235.5,98.5C 231.167,97.1667 226.833,97.1667 222.5,98.5C 218.279,99.817 213.946,100.817 209.5,101.5C 207.164,100.999 205.164,99.999 203.5,98.5C 203.443,97.391 203.11,96.391 202.5,95.5C 201.461,92.6531 202.128,90.3197 204.5,88.5C 208.162,88.2766 211.495,87.2766 214.5,85.5C 215.609,84.71 216.942,84.21 218.5,84C 225.5,83.3333 232.5,83.3333 239.5,84C 244.374,85.2617 248.374,87.7617 251.5,91.5 Z M 238.5,120.5 C 239.398,121.158 240.398,121.824 241.5,122.5C 240.974,124.265 240.641,125.932 240.5,127.5C 237.256,128.463 234.256,129.796 231.5,131.5C 229.435,131.517 227.435,131.85 225.5,132.5C 222.105,132.423 218.771,132.423 215.5,132.5C 215.167,132.5 214.833,132.5 214.5,132.5C 213.71,131.599 212.71,130.932 211.5,130.5C 210.833,130.5 210.5,130.167 210.5,129.5C 211.833,128.5 211.833,127.5 210.5,126.5C 213.356,123.903 216.689,122.07 220.5,121C 226.491,120.501 232.491,120.334 238.5,120.5 Z"/></g>
<g><path style="opacity:1" fill="#f2f2f2" d="M 404.5,90.5 C 404.427,92.0269 405.094,93.0269 406.5,93.5C 407.558,94.6002 408.392,95.9336 409,97.5C 409.244,107.186 409.744,116.853 410.5,126.5C 410.43,127.772 410.097,128.938 409.5,130C 412.627,130.392 415.627,131.225 418.5,132.5C 421.779,135.396 422.279,138.73 420,142.5C 419.184,143.823 418.017,144.489 416.5,144.5C 409.219,145.071 402.219,144.405 395.5,142.5C 394.833,142.5 394.5,142.833 394.5,143.5C 390.282,144.971 385.949,145.971 381.5,146.5C 375.464,146.64 369.464,146.307 363.5,145.5C 357.293,143.917 352.959,140.25 350.5,134.5C 350.437,129.797 350.771,125.13 351.5,120.5C 352.906,120.027 353.573,119.027 353.5,117.5C 356.418,113.043 360.418,110.043 365.5,108.5C 375.745,106.242 386.078,105.909 396.5,107.5C 396.795,105.265 396.461,103.265 395.5,101.5C 394.128,100.488 392.795,99.4884 391.5,98.5C 386.167,97.1667 380.833,97.1667 375.5,98.5C 375.167,98.5 374.833,98.5 374.5,98.5C 371.772,98.1706 369.438,98.8372 367.5,100.5C 364.456,101.829 361.456,101.663 358.5,100C 357.177,99.1841 356.511,98.0174 356.5,96.5C 356.5,94.5 356.5,92.5 356.5,90.5C 357.5,90.1667 358.167,89.5 358.5,88.5C 358.842,87.6618 359.508,87.3284 360.5,87.5C 363.152,87.5905 365.485,86.9238 367.5,85.5C 376.015,83.4986 384.681,82.9986 393.5,84C 397.858,85.1723 401.525,87.3389 404.5,90.5 Z M 373.5,120.5 C 379.954,120.694 386.287,120.694 392.5,120.5C 393.398,121.158 394.398,121.824 395.5,122.5C 395.421,124.128 395.088,125.795 394.5,127.5C 389.095,130.034 383.429,131.701 377.5,132.5C 373.766,132.677 370.099,132.344 366.5,131.5C 364.623,130.341 364.123,128.674 365,126.5C 367.637,124.109 370.47,122.109 373.5,120.5 Z"/></g>
<g><path style="opacity:0.812" fill="#bababa" d="M 295.5,87.5 C 294.883,87.6107 294.383,87.944 294,88.5C 286.106,86.5506 277.939,85.884 269.5,86.5C 270.172,85.7326 271.005,85.0659 272,84.5C 279.421,85.3158 286.921,85.8158 294.5,86C 295.056,86.3826 295.389,86.8826 295.5,87.5 Z"/></g>
<g><path style="opacity:0.812" fill="#b9b9b9" d="M 344.5,86.5 C 335.779,86.2246 327.113,86.5579 318.5,87.5C 319.315,86.1634 320.482,85.1634 322,84.5C 329.599,85.1518 337.099,85.8185 344.5,86.5 Z"/></g>
<g><path style="opacity:0.835" fill="#989898" d="M 214.5,85.5 C 211.495,87.2766 208.162,88.2766 204.5,88.5C 207.505,86.7234 210.838,85.7234 214.5,85.5 Z"/></g>
<g><path style="opacity:1" fill="#f4f4f4" d="M 269.5,86.5 C 277.939,85.884 286.106,86.5506 294,88.5C 294.383,87.944 294.883,87.6107 295.5,87.5C 296.519,90.7943 296.519,94.1276 295.5,97.5C 295.5,98.1667 295.167,98.5 294.5,98.5C 292.167,98.5 289.833,98.5 287.5,98.5C 287.723,102.162 288.723,105.495 290.5,108.5C 291.913,111.219 292.58,114.219 292.5,117.5C 292.846,119.705 293.513,119.872 294.5,118C 295.871,115.681 296.538,113.181 296.5,110.5C 296.5,110.167 296.5,109.833 296.5,109.5C 298.834,107.824 299.834,105.491 299.5,102.5C 299.5,102.167 299.5,101.833 299.5,101.5C 300.404,100.791 300.737,99.791 300.5,98.5C 305.48,97.9853 310.146,98.652 314.5,100.5C 316.109,104.054 317.442,107.721 318.5,111.5C 318.12,113.698 318.787,115.365 320.5,116.5C 320.5,116.833 320.5,117.167 320.5,117.5C 320.393,119.379 320.893,119.712 322,118.5C 322.977,116.26 323.477,113.927 323.5,111.5C 323.5,111.167 323.5,110.833 323.5,110.5C 324.234,109.292 324.567,107.959 324.5,106.5C 324.629,104.784 324.962,103.117 325.5,101.5C 326.404,100.791 326.737,99.791 326.5,98.5C 324.5,98.5 322.5,98.5 320.5,98.5C 318.856,98.1898 317.856,97.1898 317.5,95.5C 317.5,93.5 317.5,91.5 317.5,89.5C 317.328,88.5084 317.662,87.8417 318.5,87.5C 327.113,86.5579 335.779,86.2246 344.5,86.5C 349.307,89.9076 349.64,93.741 345.5,98C 343.975,99.0086 342.308,99.5086 340.5,99.5C 340.483,101.565 340.15,103.565 339.5,105.5C 337.837,107.438 337.171,109.772 337.5,112.5C 336.815,117.239 335.815,121.905 334.5,126.5C 332.837,128.438 332.171,130.772 332.5,133.5C 332.634,135.292 332.301,136.958 331.5,138.5C 330.262,140.214 329.595,142.214 329.5,144.5C 325.167,144.5 320.833,144.5 316.5,144.5C 315.463,143.07 314.796,141.403 314.5,139.5C 314.737,138.209 314.404,137.209 313.5,136.5C 312.662,136.158 312.328,135.492 312.5,134.5C 312.737,133.209 312.404,132.209 311.5,131.5C 310.069,130.22 309.402,128.553 309.5,126.5C 308.3,120.853 306.967,120.52 305.5,125.5C 303.738,132.127 301.405,138.461 298.5,144.5C 293.52,145.015 288.854,144.348 284.5,142.5C 283.072,139.697 282.405,136.697 282.5,133.5C 282.741,131.102 282.074,129.102 280.5,127.5C 280.5,127.167 280.5,126.833 280.5,126.5C 280.768,124.901 280.434,123.568 279.5,122.5C 279.5,122.167 279.5,121.833 279.5,121.5C 279.741,119.102 279.074,117.102 277.5,115.5C 277.5,114.833 277.5,114.167 277.5,113.5C 277.768,111.901 277.434,110.568 276.5,109.5C 276.672,108.508 276.338,107.842 275.5,107.5C 275.436,103.424 273.769,100.424 270.5,98.5C 270.027,97.0937 269.027,96.427 267.5,96.5C 267.5,93.8333 267.5,91.1667 267.5,88.5C 268.5,88.1667 269.167,87.5 269.5,86.5 Z"/></g>
<g><path style="opacity:0.706" fill="#6b6b6b" d="M 367.5,85.5 C 365.485,86.9238 363.152,87.5905 360.5,87.5C 362.515,86.0762 364.848,85.4095 367.5,85.5 Z"/></g>
<g><path style="opacity:0.235" fill="#383838" d="M 269.5,86.5 C 269.167,87.5 268.5,88.1667 267.5,88.5C 267.5,87.1667 268.167,86.5 269.5,86.5 Z"/></g>
<g><path style="opacity:0.878" fill="#8f8f8f" d="M 685.5,86.5 C 683.485,87.9238 681.152,88.5905 678.5,88.5C 680.515,87.0762 682.848,86.4095 685.5,86.5 Z"/></g>
<g><path style="opacity:0.999" fill="#dfdfdf" d="M 716.5,99.5 C 716.427,101.027 717.094,102.027 718.5,102.5C 718.41,105.152 719.076,107.485 720.5,109.5C 720.5,112.167 720.5,114.833 720.5,117.5C 702.167,117.5 683.833,117.5 665.5,117.5C 665.263,118.791 665.596,119.791 666.5,120.5C 667.345,123.543 668.345,126.543 669.5,129.5C 670.5,132.5 672.5,134.5 675.5,135.5C 677.875,136.902 680.209,138.235 682.5,139.5C 685.526,141.019 688.859,141.685 692.5,141.5C 695.025,141.497 697.359,141.163 699.5,140.5C 704.473,139.065 709.473,137.398 714.5,135.5C 716.315,134.37 718.315,133.704 720.5,133.5C 722.744,135.68 722.411,137.846 719.5,140C 704.444,149.006 689.11,149.672 673.5,142C 659.772,131.809 655.939,118.642 662,102.5C 662.949,100.907 664.115,99.5736 665.5,98.5C 666.906,98.0269 667.573,97.0269 667.5,95.5C 670.358,91.9905 674.024,89.6571 678.5,88.5C 681.152,88.5905 683.485,87.9238 685.5,86.5C 698.502,84.3916 708.835,88.7249 716.5,99.5 Z M 693.5,92.5 C 697.602,93.2012 701.602,94.5345 705.5,96.5C 706.5,98.1667 707.833,99.5 709.5,100.5C 711.694,102.9 713.361,105.566 714.5,108.5C 713.402,109.397 713.402,110.23 714.5,111C 706.5,111.167 698.5,111.333 690.5,111.5C 682.138,111.498 674.138,110.831 666.5,109.5C 669.446,101.887 674.779,96.554 682.5,93.5C 686.278,92.7162 689.945,92.3829 693.5,92.5 Z"/></g>
<g><path style="opacity:0.998" fill="#e1e1e1" d="M 783.5,93.5 C 782.508,93.3284 781.842,93.6618 781.5,94.5C 775.177,98.6721 769.177,103.339 763.5,108.5C 761.525,118.446 760.858,128.779 761.5,139.5C 770.5,139.5 779.5,139.5 788.5,139.5C 791.124,141.198 791.124,143.031 788.5,145C 772.5,145.667 756.5,145.667 740.5,145C 737.638,142.442 737.971,140.609 741.5,139.5C 746.5,139.5 751.5,139.5 756.5,139.5C 756.5,124.167 756.5,108.833 756.5,93.5C 752.167,93.5 747.833,93.5 743.5,93.5C 740.996,91.4584 741.33,89.7917 744.5,88.5C 750.167,88.5 755.833,88.5 761.5,88.5C 761.174,92.8839 761.508,97.2172 762.5,101.5C 763.107,101.376 763.44,101.043 763.5,100.5C 769.771,92.9007 777.771,88.234 787.5,86.5C 793.012,86.838 797.512,89.1714 801,93.5C 802.167,97.6667 800.667,99.1667 796.5,98C 792.973,94.2393 788.639,92.7393 783.5,93.5 Z"/></g>
<g><path style="opacity:0.222" fill="#383838" d="M 808.5,88.5 C 812.634,87.5151 816.968,87.1818 821.5,87.5C 821.737,88.791 821.404,89.791 820.5,90.5C 816.971,88.5772 812.971,87.9106 808.5,88.5 Z"/></g>
<g><path style="opacity:0.995" fill="#d4d4d4" d="M 840.5,87.5 C 841.785,89.4516 843.451,91.1182 845.5,92.5C 846.222,92.9175 846.722,93.5842 847,94.5C 852.905,86.4168 860.405,84.2502 869.5,88C 871.373,89.7038 873.04,91.5372 874.5,93.5C 875.436,108.805 875.769,124.138 875.5,139.5C 878.167,139.5 880.833,139.5 883.5,139.5C 886.07,141.177 886.07,143.01 883.5,145C 878.913,145.799 874.413,145.632 870,144.5C 869.667,128.833 869.333,113.167 869,97.5C 868.487,96.4734 867.987,95.4734 867.5,94.5C 866.384,92.4924 864.551,91.4924 862,91.5C 860.124,91.5247 858.624,92.1914 857.5,93.5C 851.466,97.5404 848.466,103.207 848.5,110.5C 846.533,110.261 844.699,110.594 843,111.5C 843.467,104.891 841.967,98.8915 838.5,93.5C 835.757,90.9405 833.09,90.9405 830.5,93.5C 826.88,95.285 824.047,97.9517 822,101.5C 821.823,113.742 821.323,125.909 820.5,138C 822.833,138.333 825.167,138.667 827.5,139C 830.167,141 830.167,143 827.5,145C 820.833,145.667 814.167,145.667 807.5,145C 804.876,143.031 804.876,141.198 807.5,139.5C 810.167,139.5 812.833,139.5 815.5,139.5C 815.829,124.324 815.496,109.324 814.5,94.5C 812.143,94.6633 809.81,94.4966 807.5,94C 804.638,91.4425 804.971,89.6092 808.5,88.5C 812.971,87.9106 816.971,88.5772 820.5,90.5C 820.369,91.2389 820.536,91.9056 821,92.5C 826.434,86.181 832.934,84.5143 840.5,87.5 Z"/></g>
<g><path style="opacity:0.999" fill="#d2d2d2" d="M 938.5,91.5 C 938.427,93.0269 939.094,94.0269 940.5,94.5C 941.79,95.0577 942.623,96.0577 943,97.5C 943.818,100.107 944.318,102.774 944.5,105.5C 944.714,116.263 944.38,127.097 943.5,138C 946.833,138.333 950.167,138.667 953.5,139C 954.576,140.726 954.743,142.559 954,144.5C 948.584,145.639 943.084,145.806 937.5,145C 936.68,142.667 936.347,140.5 936.5,138.5C 931.22,142.807 925.22,145.474 918.5,146.5C 913.13,146.608 907.797,146.275 902.5,145.5C 900.326,145.25 898.659,144.25 897.5,142.5C 897.027,141.094 896.027,140.427 894.5,140.5C 888.263,130.917 889.596,122.417 898.5,115C 908.565,109.816 919.232,108.149 930.5,110C 932.708,110.191 934.708,110.691 936.5,111.5C 936.56,112.043 936.893,112.376 937.5,112.5C 937.833,110.667 938.167,108.833 938.5,107C 938.7,104.134 938.033,101.634 936.5,99.5C 935.139,97.4727 933.473,95.806 931.5,94.5C 931.158,93.6618 930.492,93.3284 929.5,93.5C 927.585,93.7845 925.919,93.4511 924.5,92.5C 920.71,91.0976 917.044,91.4309 913.5,93.5C 908.63,95.2951 903.63,96.1284 898.5,96C 896.82,93.1892 897.487,91.3559 900.5,90.5C 903.152,90.5905 905.485,89.9238 907.5,88.5C 918.311,83.8485 928.645,84.8485 938.5,91.5 Z M 932.5,116.5 C 934.158,117.181 935.825,118.015 937.5,119C 937.682,122.781 937.348,126.614 936.5,130.5C 932.988,133.17 929.322,135.67 925.5,138C 917.459,141.229 909.459,141.229 901.5,138C 899.779,136.056 898.446,133.89 897.5,131.5C 897.5,130.167 897.5,128.833 897.5,127.5C 900.253,121.595 904.92,118.095 911.5,117C 918.492,116.5 925.492,116.334 932.5,116.5 Z"/></g>
<g><path style="opacity:0.004" fill="#000000" d="M 11.5,88.5 C 12.8333,89.1667 12.8333,89.1667 11.5,88.5 Z"/></g>
<g><path style="opacity:0.702" fill="#757575" d="M 57.5,87.5 C 57.0269,88.9063 56.0269,89.573 54.5,89.5C 54.9731,88.0937 55.9731,87.427 57.5,87.5 Z"/></g>
<g><path style="opacity:0.999" fill="#cecece" d="M 605.5,93.5 C 601.445,93.1758 597.445,93.5091 593.5,94.5C 593.624,95.1067 593.957,95.44 594.5,95.5C 601.011,108.528 607.011,121.861 612.5,135.5C 612.5,136.833 612.5,138.167 612.5,139.5C 614.483,139.843 615.817,139.176 616.5,137.5C 622.129,123.59 628.129,109.924 634.5,96.5C 635.404,95.791 635.737,94.791 635.5,93.5C 631.5,93.5 627.5,93.5 623.5,93.5C 622.035,91.4537 622.368,89.6204 624.5,88C 632.833,87.3333 641.167,87.3333 649.5,88C 651.698,89.67 652.032,91.67 650.5,94C 647.447,94.1786 644.447,94.6786 641.5,95.5C 634.819,112.041 627.653,128.374 620,144.5C 616.333,145.833 612.667,145.833 609,144.5C 602.125,128.042 594.958,111.709 587.5,95.5C 584.5,94.8333 581.5,94.1667 578.5,93.5C 577.047,91.3561 577.38,89.5227 579.5,88C 587.833,87.3333 596.167,87.3333 604.5,88C 607.716,89.6051 608.049,91.4384 605.5,93.5 Z"/></g>
<g><path style="opacity:0.941" fill="#707070" d="M 840.5,87.5 C 843.189,88.1894 844.856,89.856 845.5,92.5C 843.451,91.1182 841.785,89.4516 840.5,87.5 Z"/></g>
<g><path style="opacity:0.306" fill="#3f3f3f" d="M 358.5,88.5 C 358.167,89.5 357.5,90.1667 356.5,90.5C 356.5,89.1667 357.167,88.5 358.5,88.5 Z"/></g>
<g><path style="opacity:0.761" fill="#7e7e7e" d="M 907.5,88.5 C 905.485,89.9238 903.152,90.5905 900.5,90.5C 902.515,89.0762 904.848,88.4095 907.5,88.5 Z"/></g>
<g><path style="opacity:0.671" fill="#6b6b6b" d="M 54.5,89.5 C 54.0269,90.9063 53.0269,91.573 51.5,91.5C 51.9731,90.0937 52.9731,89.427 54.5,89.5 Z"/></g>
<g><path style="opacity:0.718" fill="#5c5c5c" d="M 267.5,88.5 C 267.5,91.1667 267.5,93.8333 267.5,96.5C 266.711,96.2172 266.044,95.7172 265.5,95C 265.5,93.3333 265.5,91.6667 265.5,90C 266.044,89.2828 266.711,88.7828 267.5,88.5 Z"/></g>
<g><path style="opacity:0.586" fill="#7c7c7c" d="M 295.5,87.5 C 297.026,88.4919 297.693,89.9919 297.5,92C 297.607,94.2206 296.94,96.0539 295.5,97.5C 296.519,94.1276 296.519,90.7943 295.5,87.5 Z"/></g>
<g><path style="opacity:0.725" fill="#6c6c6c" d="M 404.5,90.5 C 405.906,90.9731 406.573,91.9731 406.5,93.5C 405.094,93.0269 404.427,92.0269 404.5,90.5 Z"/></g>
<g><path style="opacity:0.476" fill="#5d5d5d" d="M 693.5,92.5 C 689.945,92.3829 686.278,92.7162 682.5,93.5C 686.044,91.4309 689.71,91.0976 693.5,92.5 Z"/></g>
<g><path style="opacity:0.502" fill="#636363" d="M 838.5,93.5 C 835.833,92.1667 833.167,92.1667 830.5,93.5C 833.09,90.9405 835.757,90.9405 838.5,93.5 Z"/></g>
<g><path style="opacity:0.486" fill="#6f6f6f" d="M 867.5,94.5 C 864.326,92.4394 860.993,92.1061 857.5,93.5C 858.624,92.1914 860.124,91.5247 862,91.5C 864.551,91.4924 866.384,92.4924 867.5,94.5 Z"/></g>
<g><path style="opacity:0.004" fill="#000000" d="M 887.5,91.5 C 888.833,92.1667 888.833,92.1667 887.5,91.5 Z"/></g>
<g><path style="opacity:0.473" fill="#6e6e6e" d="M 924.5,92.5 C 920.821,92.7244 917.154,93.0578 913.5,93.5C 917.044,91.4309 920.71,91.0976 924.5,92.5 Z"/></g>
<g><path style="opacity:0.235" fill="#2e2e2e" d="M 51.5,91.5 C 50.5,93.1667 49.1667,94.5 47.5,95.5C 47.8333,93.1667 49.1667,91.8333 51.5,91.5 Z"/></g>
<g><path style="opacity:0.482" fill="#434343" d="M 317.5,89.5 C 317.5,91.5 317.5,93.5 317.5,95.5C 314.833,93.5 314.833,91.5 317.5,89.5 Z"/></g>
<g><path style="opacity:0.663" fill="#616161" d="M 938.5,91.5 C 939.906,91.9731 940.573,92.9731 940.5,94.5C 939.094,94.0269 938.427,93.0269 938.5,91.5 Z"/></g>
<g><path style="opacity:0.463" fill="#6c6c6c" d="M 251.5,91.5 C 252.906,91.9731 253.573,92.9731 253.5,94.5C 252.094,94.0269 251.427,93.0269 251.5,91.5 Z"/></g>
<g><path style="opacity:0.322" fill="#2b2b2b" d="M 356.5,90.5 C 356.5,92.5 356.5,94.5 356.5,96.5C 353.833,94.5 353.833,92.5 356.5,90.5 Z"/></g>
<g><path style="opacity:0.482" fill="#7d7d7d" d="M 605.5,93.5 C 601.833,94.1667 598.167,94.8333 594.5,95.5C 593.957,95.44 593.624,95.1067 593.5,94.5C 597.445,93.5091 601.445,93.1758 605.5,93.5 Z"/></g>
<g><path style="opacity:0.476" fill="#7c7c7c" d="M 623.5,93.5 C 627.5,93.5 631.5,93.5 635.5,93.5C 635.737,94.791 635.404,95.791 634.5,96.5C 631.109,94.8746 627.442,93.8746 623.5,93.5 Z"/></g>
<g><path style="opacity:0.161" fill="#333333" d="M 781.5,94.5 C 781.842,93.6618 782.508,93.3284 783.5,93.5C 783.591,95.6977 782.925,96.0311 781.5,94.5 Z"/></g>
<g><path style="opacity:0.723" fill="#838383" d="M 814.5,94.5 C 815.496,109.324 815.829,124.324 815.5,139.5C 812.833,139.5 810.167,139.5 807.5,139.5C 809.631,138.686 811.964,138.186 814.5,138C 814.407,123.508 814.407,109.008 814.5,94.5 Z"/></g>
<g><path style="opacity:0.004" fill="#1d1d1d" d="M 929.5,93.5 C 930.492,93.3284 931.158,93.6618 931.5,94.5C 930.075,96.0311 929.409,95.6977 929.5,93.5 Z"/></g>
<g><path style="opacity:0.008" fill="#151515" d="M 202.5,95.5 C 203.11,96.391 203.443,97.391 203.5,98.5C 201.618,97.779 201.285,96.779 202.5,95.5 Z"/></g>
<g><path style="opacity:0.237" fill="#444444" d="M 743.5,93.5 C 747.833,93.5 752.167,93.5 756.5,93.5C 756.5,108.833 756.5,124.167 756.5,139.5C 751.5,139.5 746.5,139.5 741.5,139.5C 745.97,138.514 750.637,138.181 755.5,138.5C 755.5,123.833 755.5,109.167 755.5,94.5C 751.298,94.8168 747.298,94.4834 743.5,93.5 Z"/></g>
<g><path style="opacity:0.71" fill="#686868" d="M 667.5,95.5 C 667.573,97.0269 666.906,98.0269 665.5,98.5C 665.427,96.9731 666.094,95.9731 667.5,95.5 Z"/></g>
<g><path style="opacity:0.863" fill="#6e6e6e" d="M 705.5,96.5 C 707.833,96.8333 709.167,98.1667 709.5,100.5C 707.833,99.5 706.5,98.1667 705.5,96.5 Z"/></g>
<g><path style="opacity:0.427" fill="#595959" d="M 47.5,95.5 C 47.573,97.0269 46.9063,98.0269 45.5,98.5C 45.427,96.9731 46.0937,95.9731 47.5,95.5 Z"/></g>
<g><path style="opacity:0.073" fill="#2a2a2a" d="M 67.5,98.5 C 69.3035,97.838 71.3035,97.5046 73.5,97.5C 76.5267,97.2865 79.1934,97.9532 81.5,99.5C 76.8809,98.6864 72.2142,98.3531 67.5,98.5 Z"/></g>
<g><path style="opacity:0.059" fill="#212121" d="M 222.5,98.5 C 226.833,97.1667 231.167,97.1667 235.5,98.5C 230.956,98.6597 226.622,98.6597 222.5,98.5 Z"/></g>
<g><path style="opacity:0.494" fill="#6f6f6f" d="M 267.5,96.5 C 269.027,96.427 270.027,97.0937 270.5,98.5C 268.973,98.573 267.973,97.9063 267.5,96.5 Z"/></g>
<g><path style="opacity:0.154" fill="#242424" d="M 314.5,100.5 C 310.146,98.652 305.48,97.9853 300.5,98.5C 305.024,97.0209 309.691,96.6875 314.5,97.5C 314.5,98.5 314.5,99.5 314.5,100.5 Z"/></g>
<g><path style="opacity:0.048" fill="#2b2b2b" d="M 375.5,98.5 C 380.833,97.1667 386.167,97.1667 391.5,98.5C 386.198,98.555 380.864,98.555 375.5,98.5 Z"/></g>
<g><path style="opacity:0.349" fill="#4a4a4a" d="M 744.5,88.5 C 750.31,87.5104 756.31,87.1771 762.5,87.5C 762.511,92.1703 762.844,96.5036 763.5,100.5C 763.44,101.043 763.107,101.376 762.5,101.5C 761.508,97.2172 761.174,92.8839 761.5,88.5C 755.833,88.5 750.167,88.5 744.5,88.5 Z"/></g>
<g><path style="opacity:0.498" fill="#6a6a6a" d="M 320.5,98.5 C 322.5,98.5 324.5,98.5 326.5,98.5C 326.737,99.791 326.404,100.791 325.5,101.5C 324.198,99.9724 322.531,98.9724 320.5,98.5 Z"/></g>
<g><path style="opacity:0.224" fill="#454545" d="M 374.5,98.5 C 372.401,99.6118 370.067,100.279 367.5,100.5C 369.438,98.8372 371.772,98.1706 374.5,98.5 Z"/></g>
<g><path style="opacity:0.306" fill="#505050" d="M 45.5,98.5 C 45.573,100.027 44.9063,101.027 43.5,101.5C 43.427,99.9731 44.0937,98.9731 45.5,98.5 Z"/></g>
<g><path style="opacity:0.765" fill="#6c6c6c" d="M 84.5,100.5 C 86.4044,100.738 87.7377,101.738 88.5,103.5C 86.5956,103.262 85.2623,102.262 84.5,100.5 Z"/></g>
<g><path style="opacity:0.263" fill="#242424" d="M 300.5,98.5 C 300.737,99.791 300.404,100.791 299.5,101.5C 299.062,101.565 298.728,101.399 298.5,101C 299.066,100.005 299.733,99.172 300.5,98.5 Z"/></g>
<g><path style="opacity:0.941" fill="#8b8b8b" d="M 294.5,98.5 C 292.631,99.1646 290.631,99.8313 288.5,100.5C 289.35,102.621 290.35,104.788 291.5,107C 290.944,107.383 290.611,107.883 290.5,108.5C 288.723,105.495 287.723,102.162 287.5,98.5C 289.833,98.5 292.167,98.5 294.5,98.5 Z"/></g>
<g><path style="opacity:0.329" fill="#575757" d="M 716.5,99.5 C 717.906,99.9731 718.573,100.973 718.5,102.5C 717.094,102.027 716.427,101.027 716.5,99.5 Z"/></g>
<g><path style="opacity:0.314" fill="#2a2a2a" d="M 43.5,101.5 C 43.3404,103.153 42.6737,104.486 41.5,105.5C 41.2291,103.62 41.8958,102.287 43.5,101.5 Z"/></g>
<g><path style="opacity:0.681" fill="#9a9a9a" d="M 874.5,93.5 C 875.268,94.2625 875.768,95.2625 876,96.5C 876.5,110.496 876.667,124.496 876.5,138.5C 879.059,138.198 881.393,138.532 883.5,139.5C 880.833,139.5 878.167,139.5 875.5,139.5C 875.769,124.138 875.436,108.805 874.5,93.5 Z"/></g>
<g><path style="opacity:0.133" fill="#2b2b2b" d="M 255.5,99.5 C 256.494,109.653 256.828,119.986 256.5,130.5C 258.415,130.216 260.081,130.549 261.5,131.5C 260.5,131.5 259.5,131.5 258.5,131.5C 257.5,131.5 256.5,131.5 255.5,131.5C 255.5,120.833 255.5,110.167 255.5,99.5 Z"/></g>
<g><path style="opacity:0.318" fill="#555555" d="M 241.5,101.5 C 242.461,103.265 242.795,105.265 242.5,107.5C 233.5,106.167 224.5,106.167 215.5,107.5C 215.393,105.621 215.893,105.288 217,106.5C 219,105.833 221,105.167 223,104.5C 229,105.167 235,105.833 241,106.5C 240.474,104.773 240.641,103.106 241.5,101.5 Z"/></g>
<g><path style="opacity:0.672" fill="#7d7d7d" d="M 936.5,99.5 C 938.033,101.634 938.7,104.134 938.5,107C 938.167,108.833 937.833,110.667 937.5,112.5C 936.893,112.376 936.56,112.043 936.5,111.5C 936.693,107.588 936.693,103.588 936.5,99.5 Z"/></g>
<g><path style="opacity:0.957" fill="#757575" d="M 299.5,102.5 C 299.834,105.491 298.834,107.824 296.5,109.5C 296.598,108.451 296.598,107.285 296.5,106C 297.636,104.855 298.636,103.688 299.5,102.5 Z"/></g>
<g><path style="opacity:0.571" fill="#717171" d="M 395.5,101.5 C 396.461,103.265 396.795,105.265 396.5,107.5C 386.078,105.909 375.745,106.242 365.5,108.5C 367.091,107.781 368.591,106.781 370,105.5C 378.012,105.204 386.178,105.538 394.5,106.5C 394.389,104.891 394.722,103.225 395.5,101.5 Z"/></g>
<g><path style="opacity:0.882" fill="#8a8a8a" d="M 718.5,102.5 C 719.924,104.515 720.59,106.848 720.5,109.5C 719.076,107.485 718.41,105.152 718.5,102.5 Z"/></g>
<g><path style="opacity:0.464" fill="#787878" d="M 166.5,101.5 C 167.473,101.987 168.473,102.487 169.5,103C 168.515,112.417 168.182,121.917 168.5,131.5C 166.5,131.5 164.5,131.5 162.5,131.5C 163.919,130.549 165.585,130.216 167.5,130.5C 167.782,120.781 167.449,111.114 166.5,101.5 Z"/></g>
<g><path style="opacity:0.231" fill="#2a2a2a" d="M 275.5,107.5 C 276.338,107.842 276.672,108.508 276.5,109.5C 274.895,108.994 274.561,108.327 275.5,107.5 Z"/></g>
<g><path style="opacity:0.004" fill="#000000" d="M 20.5,108.5 C 21.8333,109.167 21.8333,109.167 20.5,108.5 Z"/></g>
<g><path style="opacity:0.961" fill="#9b9b9b" d="M 215.5,107.5 C 213.898,109.074 211.898,109.741 209.5,109.5C 211.102,107.926 213.102,107.259 215.5,107.5 Z"/></g>
<g><path style="opacity:0.008" fill="#161616" d="M 324.5,106.5 C 324.567,107.959 324.234,109.292 323.5,110.5C 322.529,109.038 322.862,107.705 324.5,106.5 Z"/></g>
<g><path style="opacity:0.347" fill="#595959" d="M 763.5,108.5 C 762.526,118.418 762.193,128.418 762.5,138.5C 771.349,138.174 780.016,138.507 788.5,139.5C 779.5,139.5 770.5,139.5 761.5,139.5C 760.858,128.779 761.525,118.446 763.5,108.5 Z"/></g>
<g><path style="opacity:0.125" fill="#444444" d="M 339.5,105.5 C 339.034,107.201 339.034,108.701 339.5,110C 338.934,110.995 338.267,111.828 337.5,112.5C 337.171,109.772 337.837,107.438 339.5,105.5 Z"/></g>
<g><path style="opacity:0.29" fill="#494949" d="M 276.5,109.5 C 277.434,110.568 277.768,111.901 277.5,113.5C 275.255,112.708 274.922,111.375 276.5,109.5 Z"/></g>
<g><path style="opacity:0.246" fill="#444444" d="M 714.5,108.5 C 715.434,109.568 715.768,110.901 715.5,112.5C 698.833,112.5 682.167,112.5 665.5,112.5C 665.263,111.209 665.596,110.209 666.5,109.5C 674.138,110.831 682.138,111.498 690.5,111.5C 698.5,111.333 706.5,111.167 714.5,111C 713.402,110.23 713.402,109.397 714.5,108.5 Z"/></g>
<g><path style="opacity:0.114" fill="#2b2b2b" d="M 92.5,110.5 C 93.4511,111.919 93.7845,113.585 93.5,115.5C 91.4618,114.144 91.1285,112.477 92.5,110.5 Z"/></g>
<g><path style="opacity:0.953" fill="#898989" d="M 296.5,110.5 C 296.538,113.181 295.871,115.681 294.5,118C 293.513,119.872 292.846,119.705 292.5,117.5C 293.833,115.167 295.167,112.833 296.5,110.5 Z"/></g>
<g><path style="opacity:0.004" fill="#000000" d="M 983.5,113.5 C 984.833,114.167 984.833,114.167 983.5,113.5 Z"/></g>
<g><path style="opacity:0.196" fill="#2b2b2b" d="M 41.5,107.5 C 40.746,112.463 40.4126,117.463 40.5,122.5C 37.8557,118.441 37.8557,114.274 40.5,110C 39.434,108.841 39.7673,108.008 41.5,107.5 Z"/></g>
<g><path style="opacity:0.898" fill="#9c9c9c" d="M 206.5,111.5 C 205.415,113.587 203.749,114.92 201.5,115.5C 202.585,113.413 204.251,112.08 206.5,111.5 Z"/></g>
<g><path style="opacity:0.831" fill="#747474" d="M 318.5,111.5 C 319.537,112.93 320.204,114.597 320.5,116.5C 318.787,115.365 318.12,113.698 318.5,111.5 Z"/></g>
<g><path style="opacity:0.694" fill="#5f5f5f" d="M 323.5,111.5 C 323.477,113.927 322.977,116.26 322,118.5C 320.893,119.712 320.393,119.379 320.5,117.5C 321.203,115.371 322.203,113.371 323.5,111.5 Z"/></g>
<g><path style="opacity:0.416" fill="#848484" d="M 55.5,109.5 C 54.7929,112.786 54.4595,116.119 54.5,119.5C 53.8442,118.378 53.5108,117.045 53.5,115.5C 53.361,113.117 54.0277,111.117 55.5,109.5 Z"/></g>
<g><path style="opacity:0.344" fill="#616161" d="M 720.5,109.5 C 721.289,109.783 721.956,110.283 722.5,111C 721.707,113.432 721.374,115.766 721.5,118C 703.833,118.333 686.167,118.667 668.5,119C 667.956,119.717 667.289,120.217 666.5,120.5C 665.596,119.791 665.263,118.791 665.5,117.5C 683.833,117.5 702.167,117.5 720.5,117.5C 720.5,114.833 720.5,112.167 720.5,109.5 Z"/></g>
<g><path style="opacity:0.529" fill="#5c5c5c" d="M 277.5,115.5 C 279.074,117.102 279.741,119.102 279.5,121.5C 278.711,121.217 278.044,120.717 277.5,120C 277.966,118.701 277.966,117.201 277.5,115.5 Z"/></g>
<g><path style="opacity:0.42" fill="#626262" d="M 353.5,117.5 C 353.573,119.027 352.906,120.027 351.5,120.5C 351.427,118.973 352.094,117.973 353.5,117.5 Z"/></g>
<g><path style="opacity:0.055" fill="#373737" d="M 373.5,120.5 C 379.833,119.167 386.167,119.167 392.5,120.5C 386.287,120.694 379.954,120.694 373.5,120.5 Z"/></g>
<g><path style="opacity:0.674" fill="#919191" d="M 932.5,116.5 C 937.948,115.932 939.948,118.432 938.5,124C 938.467,126.61 937.8,128.777 936.5,130.5C 937.348,126.614 937.682,122.781 937.5,119C 935.825,118.015 934.158,117.181 932.5,116.5 Z"/></g>
<g><path style="opacity:0.204" fill="#242424" d="M 93.5,117.5 C 93.7678,119.099 93.4345,120.432 92.5,121.5C 92.0618,121.565 91.7284,121.399 91.5,121C 92.0848,119.698 92.7515,118.531 93.5,117.5 Z"/></g>
<g><path style="opacity:0.004" fill="#000000" d="M 608.5,121.5 C 609.833,122.167 609.833,122.167 608.5,121.5 Z"/></g>
<g><path style="opacity:0.329" fill="#4e4e4e" d="M 238.5,120.5 C 239.833,120.5 241.167,120.5 242.5,120.5C 243.01,123.388 242.344,125.721 240.5,127.5C 240.641,125.932 240.974,124.265 241.5,122.5C 240.398,121.824 239.398,121.158 238.5,120.5 Z"/></g>
<g><path style="opacity:0.009" fill="#1c1c1c" d="M 309.5,126.5 C 308.295,124.862 306.962,124.529 305.5,125.5C 306.967,120.52 308.3,120.853 309.5,126.5 Z"/></g>
<g><path style="opacity:0.306" fill="#3a3a3a" d="M 279.5,122.5 C 280.434,123.568 280.768,124.901 280.5,126.5C 278.891,125.335 278.557,124.001 279.5,122.5 Z"/></g>
<g><path style="opacity:0.567" fill="#808080" d="M 392.5,120.5 C 393.833,120.5 395.167,120.5 396.5,120.5C 397.01,123.388 396.344,125.721 394.5,127.5C 395.088,125.795 395.421,124.128 395.5,122.5C 394.398,121.824 393.398,121.158 392.5,120.5 Z"/></g>
<g><path style="opacity:0.141" fill="#292929" d="M 181.5,102.5 C 182.494,111.652 182.827,120.985 182.5,130.5C 183.791,130.263 184.791,130.596 185.5,131.5C 184.167,131.5 182.833,131.5 181.5,131.5C 181.5,121.833 181.5,112.167 181.5,102.5 Z"/></g>
<g><path style="opacity:0.004" fill="#000000" d="M 644.5,125.5 C 645.833,126.167 645.833,126.167 644.5,125.5 Z"/></g>
<g><path style="opacity:0.431" fill="#515151" d="M 40.5,123.5 C 42.0739,125.102 42.7406,127.102 42.5,129.5C 41.2616,127.786 40.595,125.786 40.5,123.5 Z"/></g>
<g><path style="opacity:0.769" fill="#686868" d="M 56.5,125.5 C 57.8333,126.167 58.8333,127.167 59.5,128.5C 57.5,128.5 56.5,127.5 56.5,125.5 Z"/></g>
<g><path style="opacity:0.361" fill="#575757" d="M 210.5,126.5 C 211.833,127.5 211.833,128.5 210.5,129.5C 209.167,128.5 209.167,127.5 210.5,126.5 Z"/></g>
<g><path style="opacity:0.888" fill="#a6a6a6" d="M 351.5,120.5 C 350.771,125.13 350.437,129.797 350.5,134.5C 349.838,132.696 349.505,130.696 349.5,128.5C 349.287,125.473 349.953,122.807 351.5,120.5 Z"/></g>
<g><path style="opacity:0.675" fill="#7b7b7b" d="M 196.5,123.5 C 196.5,126.833 196.5,130.167 196.5,133.5C 195.711,133.217 195.044,132.717 194.5,132C 195.128,129.061 195.795,126.228 196.5,123.5 Z"/></g>
<g><path style="opacity:0.894" fill="#a2a2a2" d="M 240.5,127.5 C 238.236,130.126 235.236,131.459 231.5,131.5C 234.256,129.796 237.256,128.463 240.5,127.5 Z"/></g>
<g><path style="opacity:0.533" fill="#5b5b5b" d="M 334.5,126.5 C 334.279,129.067 333.612,131.401 332.5,133.5C 332.171,130.772 332.837,128.438 334.5,126.5 Z"/></g>
<g><path style="opacity:0.067" fill="#242424" d="M 107.5,131.5 C 107.5,131.167 107.5,130.833 107.5,130.5C 110.877,130.068 113.877,130.735 116.5,132.5C 113.545,131.841 110.545,131.508 107.5,131.5 Z"/></g>
<g><path style="opacity:0.549" fill="#686868" d="M 280.5,127.5 C 282.074,129.102 282.741,131.102 282.5,133.5C 281.262,131.786 280.595,129.786 280.5,127.5 Z"/></g>
<g><path style="opacity:0.914" fill="#747474" d="M 669.5,129.5 C 671.833,131.167 673.833,133.167 675.5,135.5C 672.5,134.5 670.5,132.5 669.5,129.5 Z"/></g>
<g><path style="opacity:0.887" fill="#d3d3d3" d="M 847.5,129.5 C 848.477,132.287 848.81,135.287 848.5,138.5C 850.857,138.337 853.19,138.503 855.5,139C 858.167,141 858.167,143 855.5,145C 851.179,145.499 846.846,145.666 842.5,145.5C 841.205,139.066 842.872,133.732 847.5,129.5 Z"/></g>
<g><path style="opacity:0.498" fill="#5d5d5d" d="M 897.5,127.5 C 897.5,128.833 897.5,130.167 897.5,131.5C 896.167,130.167 896.167,128.833 897.5,127.5 Z"/></g>
<g><path style="opacity:0.812" fill="#656565" d="M 211.5,130.5 C 212.71,130.932 213.71,131.599 214.5,132.5C 212.821,132.715 211.821,132.048 211.5,130.5 Z"/></g>
<g><path style="opacity:0.922" fill="#9d9d9d" d="M 258.5,131.5 C 259.5,131.5 260.5,131.5 261.5,131.5C 264.367,131.369 266.033,132.703 266.5,135.5C 264.193,133.32 261.527,131.986 258.5,131.5 Z"/></g>
<g><path style="opacity:0.804" fill="#6c6c6c" d="M 85.5,130.5 C 84.653,131.966 83.3197,132.8 81.5,133C 76.3158,133.816 71.3158,133.65 66.5,132.5C 72.9859,132.919 79.3192,132.252 85.5,130.5 Z"/></g>
<g><path style="opacity:0.098" fill="#2b2b2b" d="M 225.5,132.5 C 222.167,133.833 218.833,133.833 215.5,132.5C 218.771,132.423 222.105,132.423 225.5,132.5 Z"/></g>
<g><path style="opacity:0.2" fill="#343434" d="M 311.5,131.5 C 312.404,132.209 312.737,133.209 312.5,134.5C 310.519,133.895 310.185,132.895 311.5,131.5 Z"/></g>
<g><path style="opacity:0.091" fill="#3b3b3b" d="M 366.5,131.5 C 370.099,132.344 373.766,132.677 377.5,132.5C 374.36,133.641 371.027,133.808 367.5,133C 366.944,132.617 366.611,132.117 366.5,131.5 Z"/></g>
<g><path style="opacity:0.91" fill="#818181" d="M 720.5,133.5 C 718.315,133.704 716.315,134.37 714.5,135.5C 715.92,132.651 717.92,131.984 720.5,133.5 Z"/></g>
<g><path style="opacity:0.231" fill="#383838" d="M 313.5,136.5 C 314.404,137.209 314.737,138.209 314.5,139.5C 312.519,138.895 312.185,137.895 313.5,136.5 Z"/></g>
<g><path style="opacity:0.31" fill="#2b2b2b" d="M 158.5,135.5 C 158.5,137.5 158.5,139.5 158.5,141.5C 155.833,139.5 155.833,137.5 158.5,135.5 Z"/></g>
<g><path style="opacity:0.494" fill="#6c6c6c" d="M 612.5,135.5 C 613.158,136.398 613.824,137.398 614.5,138.5C 615.183,138.137 615.85,137.804 616.5,137.5C 615.817,139.176 614.483,139.843 612.5,139.5C 612.5,138.167 612.5,136.833 612.5,135.5 Z"/></g>
<g><path style="opacity:0.004" fill="#000000" d="M 44.5,139.5 C 45.8333,140.167 45.8333,140.167 44.5,139.5 Z"/></g>
<g><path style="opacity:1" fill="#8f8f8f" d="M 429.5,135.5 C 429.227,137.451 429.893,138.951 431.5,140C 430.748,140.671 430.414,141.504 430.5,142.5C 428.466,140.345 428.133,138.012 429.5,135.5 Z"/></g>
<g><path style="opacity:0.198" fill="#585858" d="M 682.5,139.5 C 688.13,140.292 693.797,140.625 699.5,140.5C 697.359,141.163 695.025,141.497 692.5,141.5C 688.859,141.685 685.526,141.019 682.5,139.5 Z"/></g>
<g><path style="opacity:0.635" fill="#5b5b5b" d="M 894.5,140.5 C 896.027,140.427 897.027,141.094 897.5,142.5C 895.973,142.573 894.973,141.906 894.5,140.5 Z"/></g>
<g><path style="opacity:0.236" fill="#4d4d4d" d="M 92.5,142.5 C 92.56,141.957 92.8933,141.624 93.5,141.5C 94.3857,142.325 94.719,143.325 94.5,144.5C 101.167,144.5 107.833,144.5 114.5,144.5C 107.679,145.655 100.679,145.821 93.5,145C 92.944,144.617 92.6107,144.117 92.5,143.5C 93.8333,143.167 93.8333,142.833 92.5,142.5 Z"/></g>
<g><path style="opacity:0.234" fill="#424242" d="M 241.5,142.5 C 248.219,144.405 255.219,145.071 262.5,144.5C 255.679,145.655 248.679,145.821 241.5,145C 240.944,144.617 240.611,144.117 240.5,143.5C 241.167,143.5 241.5,143.167 241.5,142.5 Z"/></g>
<g><path style="opacity:0.24" fill="#494949" d="M 284.5,142.5 C 288.854,144.348 293.52,145.015 298.5,144.5C 294.03,145.486 289.363,145.819 284.5,145.5C 284.5,144.5 284.5,143.5 284.5,142.5 Z"/></g>
<g><path style="opacity:0.239" fill="#414141" d="M 331.5,138.5 C 331.326,140.861 330.993,143.194 330.5,145.5C 325.637,145.819 320.97,145.486 316.5,144.5C 320.833,144.5 325.167,144.5 329.5,144.5C 329.595,142.214 330.262,140.214 331.5,138.5 Z"/></g>
<g><path style="opacity:0.228" fill="#464646" d="M 395.5,142.5 C 402.219,144.405 409.219,145.071 416.5,144.5C 409.679,145.655 402.679,145.821 395.5,145C 394.944,144.617 394.611,144.117 394.5,143.5C 395.167,143.5 395.5,143.167 395.5,142.5 Z"/></g>
<g><path style="opacity:0.398" fill="#5a5a5a" d="M 59.5,144.5 C 66.7121,146.182 74.0455,146.848 81.5,146.5C 76.3497,147.651 71.0164,147.817 65.5,147C 63.2774,146.434 61.2774,145.6 59.5,144.5 Z"/></g>
<g><path style="opacity:0.29" fill="#464646" d="M 363.5,145.5 C 369.464,146.307 375.464,146.64 381.5,146.5C 379.19,147.164 376.69,147.497 374,147.5C 370.195,147.696 366.695,147.03 363.5,145.5 Z"/></g>
<g><path style="opacity:0.235" fill="#4e4e4e" d="M 902.5,145.5 C 907.797,146.275 913.13,146.608 918.5,146.5C 916.527,147.163 914.361,147.496 912,147.5C 908.523,147.672 905.356,147.006 902.5,145.5 Z"/></g>
<g><path style="opacity:0.004" fill="#000000" d="M 908.5,148.5 C 909.833,149.167 909.833,149.167 908.5,148.5 Z"/></g>
<g><path style="opacity:0.004" fill="#000000" d="M 365.5,149.5 C 366.833,150.167 366.833,150.167 365.5,149.5 Z"/></g>
<g><path style="opacity:0.004" fill="#000000" d="M 974.5,149.5 C 975.833,150.167 975.833,150.167 974.5,149.5 Z"/></g>
<g><path style="opacity:0.004" fill="#000000" d="M 995.5,149.5 C 996.833,150.167 996.833,150.167 995.5,149.5 Z"/></g>
<g><path style="opacity:0.004" fill="#000000" d="M 749.5,152.5 C 750.833,153.167 750.833,153.167 749.5,152.5 Z"/></g>
<g><path style="opacity:0.004" fill="#000000" d="M 890.5,155.5 C 891.833,156.167 891.833,156.167 890.5,155.5 Z"/></g>
<g><path style="opacity:0.004" fill="#000000" d="M 119.5,157.5 C 120.833,158.167 120.833,158.167 119.5,157.5 Z"/></g>
<g><path style="opacity:0.004" fill="#000000" d="M 617.5,157.5 C 618.833,158.167 618.833,158.167 617.5,157.5 Z"/></g>
<g><path style="opacity:0.004" fill="#000000" d="M 23.5,177.5 C 24.8333,178.167 24.8333,178.167 23.5,177.5 Z"/></g>
<g><path style="opacity:0.004" fill="#000000" d="M 647.5,178.5 C 648.833,179.167 648.833,179.167 647.5,178.5 Z"/></g>
<g><path style="opacity:0.004" fill="#000000" d="M 722.5,178.5 C 723.833,179.167 723.833,179.167 722.5,178.5 Z"/></g>
<g><path style="opacity:0.004" fill="#000000" d="M 89.5,185.5 C 90.8333,186.167 90.8333,186.167 89.5,185.5 Z"/></g>
<g><path style="opacity:0.004" fill="#000000" d="M 566.5,190.5 C 567.833,191.167 567.833,191.167 566.5,190.5 Z"/></g>
<g><path style="opacity:0.004" fill="#000000" d="M 260.5,199.5 C 261.833,200.167 261.833,200.167 260.5,199.5 Z"/></g>
<g><path style="opacity:0.004" fill="#000000" d="M 944.5,201.5 C 945.833,202.167 945.833,202.167 944.5,201.5 Z"/></g>
<g><path style="opacity:0.004" fill="#000000" d="M 695.5,214.5 C 696.833,215.167 696.833,215.167 695.5,214.5 Z"/></g>
<g><path style="opacity:0.004" fill="#000000" d="M 959.5,216.5 C 960.833,217.167 960.833,217.167 959.5,216.5 Z"/></g>
<g><path style="opacity:0.004" fill="#000000" d="M 767.5,217.5 C 768.833,218.167 768.833,218.167 767.5,217.5 Z"/></g>
<g><path style="opacity:0.004" fill="#000000" d="M 314.5,220.5 C 315.833,221.167 315.833,221.167 314.5,220.5 Z"/></g>
<g><path style="opacity:0.004" fill="#000000" d="M 476.5,221.5 C 477.833,222.167 477.833,222.167 476.5,221.5 Z"/></g>
<g><path style="opacity:0.004" fill="#000000" d="M 263.5,222.5 C 264.833,223.167 264.833,223.167 263.5,222.5 Z"/></g>
<g><path style="opacity:0.004" fill="#000000" d="M 914.5,231.5 C 915.833,232.167 915.833,232.167 914.5,231.5 Z"/></g>
<g><path style="opacity:0.004" fill="#000000" d="M 131.5,238.5 C 132.833,239.167 132.833,239.167 131.5,238.5 Z"/></g>
<g><path style="opacity:0.004" fill="#000000" d="M 440.5,240.5 C 441.833,241.167 441.833,241.167 440.5,240.5 Z"/></g>
<g><path style="opacity:0.004" fill="#000000" d="M 830.5,241.5 C 831.833,242.167 831.833,242.167 830.5,241.5 Z"/></g>
<g><path style="opacity:0.004" fill="#000000" d="M 371.5,245.5 C 372.833,246.167 372.833,246.167 371.5,245.5 Z"/></g>
</svg>
