<?xml version="1.0" encoding="UTF-8"?>
<!DOCTYPE svg PUBLIC "-//W3C//DTD SVG 1.1//EN" "http://www.w3.org/Graphics/SVG/1.1/DTD/svg11.dtd">
<svg xmlns="http://www.w3.org/2000/svg" version="1.1" width="999px" height="249px" style="shape-rendering:geometricPrecision; text-rendering:geometricPrecision; image-rendering:optimizeQuality; fill-rule:evenodd; clip-rule:evenodd" xmlns:xlink="http://www.w3.org/1999/xlink">
<g><path style="opacity:0.004" fill="#000000" d="M 527.5,1.5 C 528.833,2.16667 528.833,2.16667 527.5,1.5 Z"/></g>
<g><path style="opacity:0.004" fill="#000000" d="M 506.5,4.5 C 507.833,5.16667 507.833,5.16667 506.5,4.5 Z"/></g>
<g><path style="opacity:0.004" fill="#000000" d="M 74.5,5.5 C 75.8333,6.16667 75.8333,6.16667 74.5,5.5 Z"/></g>
<g><path style="opacity:0.004" fill="#000000" d="M 710.5,6.5 C 711.833,7.16667 711.833,7.16667 710.5,6.5 Z"/></g>
<g><path style="opacity:0.004" fill="#000000" d="M 143.5,8.5 C 144.833,9.16667 144.833,9.16667 143.5,8.5 Z"/></g>
<g><path style="opacity:0.004" fill="#000000" d="M 116.5,9.5 C 117.833,10.1667 117.833,10.1667 116.5,9.5 Z"/></g>
<g><path style="opacity:0.004" fill="#000000" d="M 938.5,12.5 C 939.833,13.1667 939.833,13.1667 938.5,12.5 Z"/></g>
<g><path style="opacity:0.004" fill="#000000" d="M 704.5,14.5 C 705.833,15.1667 705.833,15.1667 704.5,14.5 Z"/></g>
<g><path style="opacity:0.004" fill="#000000" d="M 584.5,15.5 C 585.833,16.1667 585.833,16.1667 584.5,15.5 Z"/></g>
<g><path style="opacity:0.004" fill="#000000" d="M 401.5,17.5 C 402.833,18.1667 402.833,18.1667 401.5,17.5 Z"/></g>
<g><path style="opacity:0.004" fill="#000000" d="M 212.5,18.5 C 213.833,19.1667 213.833,19.1667 212.5,18.5 Z"/></g>
<g><path style="opacity:0.004" fill="#000000" d="M 887.5,22.5 C 888.833,23.1667 888.833,23.1667 887.5,22.5 Z"/></g>
<g><path style="opacity:0.004" fill="#000000" d="M 302.5,23.5 C 303.833,24.1667 303.833,24.1667 302.5,23.5 Z"/></g>
<g><path style="opacity:0.004" fill="#000000" d="M 53.5,25.5 C 54.8333,26.1667 54.8333,26.1667 53.5,25.5 Z"/></g>
<g><path style="opacity:0.004" fill="#000000" d="M 617.5,32.5 C 618.833,33.1667 618.833,33.1667 617.5,32.5 Z"/></g>
<g><path style="opacity:0.004" fill="#000000" d="M 578.5,35.5 C 579.833,36.1667 579.833,36.1667 578.5,35.5 Z"/></g>
<g><path style="opacity:0.004" fill="#000000" d="M 158.5,54.5 C 159.833,55.1667 159.833,55.1667 158.5,54.5 Z"/></g>
<g><path style="opacity:0.004" fill="#000000" d="M 443.5,54.5 C 444.833,55.1667 444.833,55.1667 443.5,54.5 Z"/></g>
<g><path style="opacity:0.004" fill="#000000" d="M 515.5,54.5 C 516.833,55.1667 516.833,55.1667 515.5,54.5 Z"/></g>
<g><path style="opacity:0.004" fill="#000000" d="M 116.5,60.5 C 117.833,61.1667 117.833,61.1667 116.5,60.5 Z"/></g>
<g><path style="opacity:0.004" fill="#000000" d="M 215.5,66.5 C 216.833,67.1667 216.833,67.1667 215.5,66.5 Z"/></g>
<g><path style="opacity:0.004" fill="#000000" d="M 518.5,66.5 C 519.833,67.1667 519.833,67.1667 518.5,66.5 Z"/></g>
<g><path style="opacity:0.004" fill="#000000" d="M 161.5,73.5 C 162.833,74.1667 162.833,74.1667 161.5,73.5 Z"/></g>
<g><path style="opacity:0.004" fill="#000000" d="M 782.5,75.5 C 783.833,76.1667 783.833,76.1667 782.5,75.5 Z"/></g>
<g><path style="opacity:0.997" fill="#f1f1f1" d="M 242.5,79.5 C 244.167,79.5 245.833,79.5 247.5,79.5C 247.167,94.5148 247.501,109.515 248.5,124.5C 249.107,124.376 249.44,124.043 249.5,123.5C 251.76,118.859 255.427,115.859 260.5,114.5C 265.463,113.746 270.463,113.413 275.5,113.5C 279.918,115.583 282.918,118.916 284.5,123.5C 284.171,136.344 284.505,149.011 285.5,161.5C 287.905,162.768 290.572,163.435 293.5,163.5C 289.724,164.825 285.557,165.491 281,165.5C 276.443,165.491 272.276,164.825 268.5,163.5C 271.812,163.637 274.646,162.637 277,160.5C 277.825,149.992 277.659,139.658 276.5,129.5C 275.613,124.279 272.613,120.946 267.5,119.5C 266.551,118.848 265.385,118.514 264,118.5C 261.779,118.393 259.946,119.06 258.5,120.5C 254.572,122.592 251.406,125.592 249,129.5C 248.5,139.828 248.334,150.161 248.5,160.5C 250.565,160.517 252.565,160.85 254.5,161.5C 255.78,162.931 257.447,163.598 259.5,163.5C 260.833,164.167 260.833,164.833 259.5,165.5C 249.442,166.14 239.775,165.473 230.5,163.5C 232.042,162.699 233.708,162.366 235.5,162.5C 237.144,162.714 238.644,162.38 240,161.5C 240.667,137.833 240.667,114.167 240,90.5C 239.722,89.5842 239.222,88.9175 238.5,88.5C 236.597,88.2041 234.93,87.5375 233.5,86.5C 232.602,85.8423 231.602,85.1757 230.5,84.5C 234.192,83.4362 237.858,82.2696 241.5,81C 242.056,80.6174 242.389,80.1174 242.5,79.5 Z"/></g>
<g><path style="opacity:1" fill="#e3e3e3" d="M 495.5,79.5 C 497.167,79.5 498.833,79.5 500.5,79.5C 500.5,101.833 500.5,124.167 500.5,146.5C 500.5,146.833 500.5,147.167 500.5,147.5C 499.353,151.646 499.186,155.98 500,160.5C 500.383,161.056 500.883,161.389 501.5,161.5C 501.833,161.5 502.167,161.5 502.5,161.5C 504.905,162.768 507.572,163.435 510.5,163.5C 511.774,164.189 511.774,165.023 510.5,166C 500.658,166.825 490.991,166.658 481.5,165.5C 481.557,164.391 481.89,163.391 482.5,162.5C 482.833,162.5 483.167,162.5 483.5,162.5C 485.857,162.663 488.19,162.497 490.5,162C 491.252,161.329 491.586,160.496 491.5,159.5C 491.667,136.164 491.5,112.831 491,89.5C 488.138,87.9296 485.305,86.263 482.5,84.5C 486.372,81.8719 490.705,80.2052 495.5,79.5 Z"/></g>
<g><path style="opacity:1" fill="#ededed" d="M 216.5,96.5 C 216.427,98.0269 217.094,99.0269 218.5,99.5C 221.488,102.481 223.154,106.148 223.5,110.5C 224.358,118.132 224.691,125.799 224.5,133.5C 218.205,156.166 203.205,166.832 179.5,165.5C 171.393,165.214 163.393,164.881 155.5,164.5C 147.167,164.5 138.833,164.5 130.5,164.5C 130.5,162.833 130.5,161.167 130.5,159.5C 131.791,159.737 132.791,159.404 133.5,158.5C 137.066,158.208 140.066,156.874 142.5,154.5C 143.268,153.737 143.768,152.737 144,151.5C 144.167,141.167 144.333,130.833 144.5,120.5C 144.499,109.811 143.832,99.4777 142.5,89.5C 138.833,89.5 135.167,89.5 131.5,89.5C 130.102,86.993 130.436,84.6597 132.5,82.5C 132.833,82.5 133.167,82.5 133.5,82.5C 137.489,82.8836 141.155,82.217 144.5,80.5C 161.184,77.6933 177.851,77.8599 194.5,81C 203.799,83.474 211.132,88.6406 216.5,96.5 Z M 189.5,89.5 C 189.973,90.9063 190.973,91.573 192.5,91.5C 196.815,95.4623 200.148,100.129 202.5,105.5C 203.302,110.997 204.302,116.33 205.5,121.5C 205.5,122.833 205.5,124.167 205.5,125.5C 204.776,127.218 204.109,129.052 203.5,131C 203.728,131.399 204.062,131.565 204.5,131.5C 203.449,148.551 194.449,157.551 177.5,158.5C 175.039,157.469 172.373,156.802 169.5,156.5C 165.718,155.212 163.551,152.545 163,148.5C 162.5,128.169 162.333,107.836 162.5,87.5C 171.721,85.7217 180.721,86.3883 189.5,89.5 Z"/></g>
<g><path style="opacity:0.004" fill="#000000" d="M 347.5,80.5 C 348.833,81.1667 348.833,81.1667 347.5,80.5 Z"/></g>
<g><path style="opacity:0.235" fill="#404040" d="M 543.5,80.5 C 541.167,80.5 538.833,80.5 536.5,80.5C 536.5,82.5 536.5,84.5 536.5,86.5C 535.532,84.3926 535.198,82.0593 535.5,79.5C 538.385,79.1936 541.052,79.5269 543.5,80.5 Z"/></g>
<g><path style="opacity:1" fill="#e7e7e7" d="M 543.5,80.5 C 553.167,80.5 562.833,80.5 572.5,80.5C 575.167,80.5 577.833,80.5 580.5,80.5C 580.741,82.8863 580.075,84.8863 578.5,86.5C 576.073,86.523 573.74,87.023 571.5,88C 569.574,88.4224 568.574,89.5891 568.5,91.5C 568.66,93.153 569.326,94.4863 570.5,95.5C 576.441,109.048 582.107,122.715 587.5,136.5C 587.5,137.167 587.833,137.5 588.5,137.5C 588.786,139.933 589.452,139.933 590.5,137.5C 591.338,137.158 591.672,136.492 591.5,135.5C 591.66,133.847 592.326,132.514 593.5,131.5C 595.074,129.898 595.741,127.898 595.5,125.5C 599.509,113.487 603.509,101.487 607.5,89.5C 607.586,88.5041 607.252,87.6708 606.5,87C 603.247,85.9635 599.914,85.2969 596.5,85C 595.62,83.6439 595.286,82.1439 595.5,80.5C 597.5,80.5 599.5,80.5 601.5,80.5C 608.5,80.5 615.5,80.5 622.5,80.5C 624.167,80.5 625.833,80.5 627.5,80.5C 627.634,82.2915 627.301,83.9582 626.5,85.5C 623.803,86.9299 620.969,88.2632 618,89.5C 607.213,114.528 597.213,139.861 588,165.5C 585,166.833 582,166.833 579,165.5C 576.945,159.058 574.612,152.725 572,146.5C 563.411,127.576 554.911,108.576 546.5,89.5C 543.553,87.2961 540.22,86.2961 536.5,86.5C 536.5,84.5 536.5,82.5 536.5,80.5C 538.833,80.5 541.167,80.5 543.5,80.5 Z M 588.5,137.5 C 589.167,137.5 589.833,137.5 590.5,137.5C 589.452,139.933 588.786,139.933 588.5,137.5 Z"/></g>
<g><path style="opacity:0.941" fill="#949494" d="M 144.5,80.5 C 141.155,82.217 137.489,82.8836 133.5,82.5C 136.946,81.3126 140.613,80.6459 144.5,80.5 Z"/></g>
<g><path style="opacity:0.733" fill="#6f6f6f" d="M 601.5,80.5 C 599.5,80.5 597.5,80.5 595.5,80.5C 595.286,82.1439 595.62,83.6439 596.5,85C 599.914,85.2969 603.247,85.9635 606.5,87C 607.252,87.6708 607.586,88.5041 607.5,89.5C 603.649,87.3009 599.483,85.9676 595,85.5C 593.505,83.8904 593.339,82.2237 594.5,80.5C 596.973,79.2031 599.307,79.2031 601.5,80.5 Z"/></g>
<g><path style="opacity:0.325" fill="#505050" d="M 572.5,80.5 C 575.287,79.5233 578.287,79.19 581.5,79.5C 581.5,81.8333 581.5,84.1667 581.5,86.5C 580.5,86.5 579.5,86.5 578.5,86.5C 580.075,84.8863 580.741,82.8863 580.5,80.5C 577.833,80.5 575.167,80.5 572.5,80.5 Z"/></g>
<g><path style="opacity:0.533" fill="#6f6f6f" d="M 622.5,80.5 C 624.265,79.5386 626.265,79.2053 628.5,79.5C 628.975,82.0821 628.308,84.0821 626.5,85.5C 627.301,83.9582 627.634,82.2915 627.5,80.5C 625.833,80.5 624.167,80.5 622.5,80.5 Z"/></g>
<g><path style="opacity:0.545" fill="#676767" d="M 242.5,79.5 C 242.389,80.1174 242.056,80.6174 241.5,81C 237.858,82.2696 234.192,83.4362 230.5,84.5C 231.602,85.1757 232.602,85.8423 233.5,86.5C 232.127,86.6567 230.793,86.49 229.5,86C 228.167,85 228.167,84 229.5,83C 234.268,81.9989 238.602,80.8323 242.5,79.5 Z"/></g>
<g><path style="opacity:0.004" fill="#000000" d="M 419.5,85.5 C 420.833,86.1667 420.833,86.1667 419.5,85.5 Z"/></g>
<g><path style="opacity:0.473" fill="#545454" d="M 132.5,82.5 C 130.436,84.6597 130.102,86.993 131.5,89.5C 131.44,90.0431 131.107,90.3764 130.5,90.5C 129.779,88.314 129.113,86.1474 128.5,84C 129.563,82.8118 130.897,82.3118 132.5,82.5 Z"/></g>
<g><path style="opacity:0.004" fill="#000000" d="M 920.5,86.5 C 921.833,87.1667 921.833,87.1667 920.5,86.5 Z"/></g>
<g><path style="opacity:0.004" fill="#000000" d="M 797.5,88.5 C 798.833,89.1667 798.833,89.1667 797.5,88.5 Z"/></g>
<g><path style="opacity:0.004" fill="#000000" d="M 869.5,89.5 C 870.833,90.1667 870.833,90.1667 869.5,89.5 Z"/></g>
<g><path style="opacity:0.004" fill="#000000" d="M 944.5,89.5 C 945.833,90.1667 945.833,90.1667 944.5,89.5 Z"/></g>
<g><path style="opacity:0.471" fill="#696969" d="M 189.5,89.5 C 191.027,89.427 192.027,90.0937 192.5,91.5C 190.973,91.573 189.973,90.9063 189.5,89.5 Z"/></g>
<g><path style="opacity:0.004" fill="#000000" d="M 389.5,90.5 C 390.833,91.1667 390.833,91.1667 389.5,90.5 Z"/></g>
<g><path style="opacity:0.018" fill="#202020" d="M 568.5,91.5 C 570.104,92.287 570.771,93.6203 570.5,95.5C 569.326,94.4863 568.66,93.153 568.5,91.5 Z"/></g>
<g><path style="opacity:0.004" fill="#000000" d="M 308.5,95.5 C 309.833,96.1667 309.833,96.1667 308.5,95.5 Z"/></g>
<g><path style="opacity:0.004" fill="#000000" d="M 344.5,95.5 C 345.833,96.1667 345.833,96.1667 344.5,95.5 Z"/></g>
<g><path style="opacity:0.451" fill="#626262" d="M 216.5,96.5 C 217.906,96.9731 218.573,97.9731 218.5,99.5C 217.094,99.0269 216.427,98.0269 216.5,96.5 Z"/></g>
<g><path style="opacity:0.004" fill="#000000" d="M 368.5,99.5 C 369.833,100.167 369.833,100.167 368.5,99.5 Z"/></g>
<g><path style="opacity:0.24" fill="#3b3b3b" d="M 495.5,79.5 C 497.265,78.5386 499.265,78.2053 501.5,78.5C 501.831,101.339 501.497,124.006 500.5,146.5C 500.5,124.167 500.5,101.833 500.5,79.5C 498.833,79.5 497.167,79.5 495.5,79.5 Z"/></g>
<g><path style="opacity:0.535" fill="#848484" d="M 242.5,79.5 C 244.265,78.5386 246.265,78.2053 248.5,78.5C 248.171,93.676 248.504,108.676 249.5,123.5C 249.44,124.043 249.107,124.376 248.5,124.5C 247.501,109.515 247.167,94.5148 247.5,79.5C 245.833,79.5 244.167,79.5 242.5,79.5 Z"/></g>
<g><path style="opacity:0.999" fill="#dddddd" d="M 697.5,110.5 C 697.334,115.179 697.501,119.845 698,124.5C 698.717,123.956 699.217,123.289 699.5,122.5C 700.11,121.609 700.443,120.609 700.5,119.5C 703.39,116.447 706.724,113.947 710.5,112C 714.142,110.93 717.142,111.764 719.5,114.5C 719.5,116.833 719.5,119.167 719.5,121.5C 718.481,123.101 716.981,124.101 715,124.5C 707.273,120.306 701.94,122.306 699,130.5C 698.333,139.833 698.333,149.167 699,158.5C 699.374,159.416 699.874,160.25 700.5,161C 704.5,161.333 708.5,161.667 712.5,162C 716.303,163.6 716.136,165.1 712,166.5C 708.224,165.606 704.39,165.272 700.5,165.5C 692.757,166.13 685.424,165.463 678.5,163.5C 681.544,161.989 684.878,161.322 688.5,161.5C 688.667,150.162 688.5,138.828 688,127.5C 685.745,125.945 683.245,124.945 680.5,124.5C 680.5,124.167 680.5,123.833 680.5,123.5C 681.625,122 682.959,120.667 684.5,119.5C 688.977,117.187 692.311,113.687 694.5,109C 696.157,108.275 697.157,108.775 697.5,110.5 Z M 700.5,119.5 C 700.443,120.609 700.11,121.609 699.5,122.5C 698.285,121.221 698.618,120.221 700.5,119.5 Z"/></g>
<g><path style="opacity:0.616" fill="#818181" d="M 763.5,112.5 C 758.463,112.413 753.463,112.746 748.5,113.5C 751.186,112.009 754.186,111.343 757.5,111.5C 759.696,111.505 761.696,111.838 763.5,112.5 Z"/></g>
<g><path style="opacity:0.018" fill="#373737" d="M 202.5,105.5 C 203.927,107.148 204.76,109.148 205,111.5C 205.498,114.817 205.665,118.15 205.5,121.5C 204.302,116.33 203.302,110.997 202.5,105.5 Z"/></g>
<g><path style="opacity:0.722" fill="#8a8a8a" d="M 275.5,113.5 C 270.463,113.413 265.463,113.746 260.5,114.5C 260.918,113.778 261.584,113.278 262.5,113C 267.02,112.186 271.354,112.353 275.5,113.5 Z"/></g>
<g><path style="opacity:1" fill="#dfdfdf" d="M 674.5,125.5 C 674.833,127.5 675.167,129.5 675.5,131.5C 666.167,131.5 656.833,131.5 647.5,131.5C 644.167,131.5 640.833,131.5 637.5,131.5C 637.183,135.702 637.517,139.702 638.5,143.5C 639.11,144.391 639.443,145.391 639.5,146.5C 639.025,149.313 640.025,151.313 642.5,152.5C 648.448,158.979 655.781,161.146 664.5,159C 668.496,157.337 672.163,155.171 675.5,152.5C 677.052,155.567 676.385,158.067 673.5,160C 669.691,163.238 665.358,165.404 660.5,166.5C 653.681,166.871 647.014,166.205 640.5,164.5C 640.027,163.094 639.027,162.427 637.5,162.5C 633.064,159.302 630.398,154.969 629.5,149.5C 629.5,144.167 629.5,138.833 629.5,133.5C 631.431,122.405 637.764,115.238 648.5,112C 661.297,109.032 669.964,113.532 674.5,125.5 Z M 665.5,126.5 C 657.022,127.078 648.689,127.744 640.5,128.5C 640.889,120.614 645.389,116.28 654,115.5C 661.245,115.691 665.078,119.358 665.5,126.5 Z"/></g>
<g><path style="opacity:1" fill="#dddddd" d="M 736.5,109.5 C 736.176,113.555 736.509,117.555 737.5,121.5C 738.107,121.376 738.44,121.043 738.5,120.5C 741.275,117.395 744.608,115.062 748.5,113.5C 753.463,112.746 758.463,112.413 763.5,112.5C 767.67,113.826 770.837,116.492 773,120.5C 776.128,117.526 779.628,115.193 783.5,113.5C 788.797,112.725 794.13,112.392 799.5,112.5C 805.255,114.427 808.755,118.427 810,124.5C 810.5,136.162 810.667,147.829 810.5,159.5C 810.821,161.048 811.821,161.715 813.5,161.5C 815.099,161.232 816.432,161.566 817.5,162.5C 817.5,163.5 817.5,164.5 817.5,165.5C 815.5,165.5 813.5,165.5 811.5,165.5C 805.433,166.447 799.433,166.447 793.5,165.5C 792.375,164.652 792.375,163.652 793.5,162.5C 794.919,161.549 796.585,161.216 798.5,161.5C 799.5,161.5 800.5,161.5 801.5,161.5C 802.574,150.527 802.74,139.527 802,128.5C 801.768,127.263 801.268,126.263 800.5,125.5C 800.715,123.821 800.048,122.821 798.5,122.5C 796.282,119.156 793.115,117.823 789,118.5C 783.594,118.453 779.094,120.453 775.5,124.5C 774.521,136.116 774.188,147.782 774.5,159.5C 774.821,161.048 775.821,161.715 777.5,161.5C 779.527,161.338 781.527,161.505 783.5,162C 784.833,163.333 784.833,164.667 783.5,166C 773.382,166.759 763.716,166.592 754.5,165.5C 754.5,164.5 754.5,163.5 754.5,162.5C 757.684,161.579 760.85,160.579 764,159.5C 764.79,148.121 764.623,136.787 763.5,125.5C 763.715,123.821 763.048,122.821 761.5,122.5C 761.5,122.167 761.5,121.833 761.5,121.5C 759.964,118.908 757.631,117.908 754.5,118.5C 748.006,119.164 742.506,121.83 738,126.5C 737.333,137.5 737.333,148.5 738,159.5C 740.087,160.397 742.254,161.064 744.5,161.5C 745.167,162.167 745.833,162.833 746.5,163.5C 737.682,164.493 728.682,164.827 719.5,164.5C 719.5,164.167 719.5,163.833 719.5,163.5C 719.5,162.833 719.833,162.5 720.5,162.5C 722.527,162.662 724.527,162.495 726.5,162C 727.252,161.329 727.586,160.496 727.5,159.5C 728.392,149.866 728.725,140.199 728.5,130.5C 729.01,127.612 728.344,125.279 726.5,123.5C 724.708,123.634 723.042,123.301 721.5,122.5C 721.5,121.5 721.5,120.5 721.5,119.5C 726.153,117.368 730.153,114.202 733.5,110C 734.448,109.517 735.448,109.351 736.5,109.5 Z"/></g>
<g><path style="opacity:0.914" fill="#898989" d="M 799.5,112.5 C 794.13,112.392 788.797,112.725 783.5,113.5C 788.699,110.134 794.032,109.801 799.5,112.5 Z"/></g>
<g><path style="opacity:1" fill="#d8d8d8" d="M 336.5,158.5 C 336.791,159.649 337.624,160.316 339,160.5C 340.07,160.472 340.903,160.139 341.5,159.5C 342.67,157.721 344.336,156.721 346.5,156.5C 345.247,165.243 340.247,168.743 331.5,167C 329.249,166.252 327.916,164.752 327.5,162.5C 327.672,160.508 327.005,158.842 325.5,157.5C 327.034,154.029 327.7,150.362 327.5,146.5C 327.478,143.41 326.812,140.743 325.5,138.5C 325.782,137.222 326.449,136.222 327.5,135.5C 327.666,131.154 327.499,126.821 327,122.5C 326.617,121.944 326.117,121.611 325.5,121.5C 324.152,118.492 321.818,117.159 318.5,117.5C 315.567,117.466 312.9,118.299 310.5,120C 308.319,123.546 306.819,127.38 306,131.5C 302.611,135.339 299.444,135.339 296.5,131.5C 297.505,127.477 299.505,124.143 302.5,121.5C 304.167,120.5 305.5,119.167 306.5,117.5C 306.5,116.833 306.833,116.5 307.5,116.5C 309.027,116.573 310.027,115.906 310.5,114.5C 319.004,109.876 326.837,110.876 334,117.5C 334.862,119.087 335.529,120.754 336,122.5C 336.5,134.495 336.667,146.495 336.5,158.5 Z"/></g>
<g><path style="opacity:0.327" fill="#575757" d="M 368.5,114.5 C 359.808,114.169 351.141,114.502 342.5,115.5C 343.243,116.182 343.909,116.849 344.5,117.5C 343.5,117.5 342.5,117.5 341.5,117.5C 341.5,116.167 341.5,114.833 341.5,113.5C 350.682,113.173 359.682,113.507 368.5,114.5 Z"/></g>
<g><path style="opacity:0.363" fill="#646464" d="M 374.5,114.5 C 383.986,113.506 393.652,113.173 403.5,113.5C 403.5,114.833 403.5,116.167 403.5,117.5C 402.167,117.5 400.833,117.5 399.5,117.5C 400.398,116.842 401.398,116.176 402.5,115.5C 393.19,114.502 383.857,114.168 374.5,114.5 Z"/></g>
<g><path style="opacity:0.273" fill="#535353" d="M 410.5,114.5 C 418.316,113.508 426.316,113.174 434.5,113.5C 434.5,114.833 434.5,116.167 434.5,117.5C 433.5,117.5 432.5,117.5 431.5,117.5C 432.091,116.849 432.757,116.182 433.5,115.5C 425.862,114.503 418.196,114.169 410.5,114.5 Z"/></g>
<g><path style="opacity:0.999" fill="#d6d6d6" d="M 482.5,156.5 C 482.5,157.5 482.5,158.5 482.5,159.5C 482.672,160.492 482.338,161.158 481.5,161.5C 480.662,161.842 480.328,162.508 480.5,163.5C 477.444,167.241 473.444,168.407 468.5,167C 466.676,166.34 465.343,165.173 464.5,163.5C 464.737,162.209 464.404,161.209 463.5,160.5C 463.44,159.957 463.107,159.624 462.5,159.5C 455.412,166.7 447.079,168.866 437.5,166C 434.152,162.581 433.652,158.748 436,154.5C 442.393,144.876 451.227,138.542 462.5,135.5C 463.794,133.952 464.461,131.952 464.5,129.5C 464.713,126.473 464.047,123.807 462.5,121.5C 457.306,116.308 451.806,116.308 446,121.5C 444.864,125.243 443.53,128.91 442,132.5C 439.993,133.669 437.827,134.335 435.5,134.5C 435.5,133.833 435.167,133.5 434.5,133.5C 434.5,131.833 434.5,130.167 434.5,128.5C 435.906,128.027 436.573,127.027 436.5,125.5C 443.399,112.727 453.732,108.893 467.5,114C 469.359,115.558 470.859,117.391 472,119.5C 472.333,132.5 472.667,145.5 473,158.5C 474.726,159.576 476.559,159.743 478.5,159C 479.471,157.519 480.804,156.685 482.5,156.5 Z M 461.5,139.5 C 462.777,140.694 463.444,142.36 463.5,144.5C 463.217,148.196 462.717,151.863 462,155.5C 459.047,157.726 455.88,159.559 452.5,161C 448.143,161.999 445.809,160.332 445.5,156C 445.384,153.456 446.217,151.289 448,149.5C 452.12,145.532 456.62,142.199 461.5,139.5 Z"/></g>
<g><path style="opacity:0.999" fill="#e3e3e3" d="M 859.5,121.5 C 859.171,134.011 859.505,146.345 860.5,158.5C 860.791,159.649 861.624,160.316 863,160.5C 864.07,160.472 864.903,160.139 865.5,159.5C 866.67,157.721 868.336,156.721 870.5,156.5C 869.128,165.567 864.128,168.9 855.5,166.5C 855.027,165.094 854.027,164.427 852.5,164.5C 851.662,164.158 851.328,163.492 851.5,162.5C 851.762,161.022 851.429,159.689 850.5,158.5C 849.893,158.624 849.56,158.957 849.5,159.5C 848.5,159.167 847.833,158.5 847.5,157.5C 848.167,156.167 849.167,155.167 850.5,154.5C 851.164,152.022 851.497,149.355 851.5,146.5C 851.478,143.41 850.812,140.743 849.5,138.5C 849.557,137.391 849.89,136.391 850.5,135.5C 851.647,131.354 851.814,127.02 851,122.5C 850.722,121.584 850.222,120.918 849.5,120.5C 849.5,118.5 848.5,117.5 846.5,117.5C 836.408,116.642 830.908,121.309 830,131.5C 827.817,134.17 825.317,134.837 822.5,133.5C 821.766,132.292 821.433,130.959 821.5,129.5C 827.377,115.562 837.71,110.062 852.5,113C 856.143,114.805 858.476,117.638 859.5,121.5 Z"/></g>
<g><path style="opacity:0.999" fill="#d7d7d7" d="M 368.5,114.5 C 369.774,115.189 369.774,116.023 368.5,117C 366.608,117.973 364.608,118.64 362.5,119C 361.978,119.561 361.645,120.228 361.5,121C 366.762,133.025 372.429,144.858 378.5,156.5C 379.298,156.043 379.631,155.376 379.5,154.5C 383.371,149.261 386.371,143.428 388.5,137C 387.391,134.953 386.724,132.787 386.5,130.5C 386.598,128.447 385.931,126.78 384.5,125.5C 383.582,123.18 382.248,121.013 380.5,119C 378.112,118.697 375.945,117.863 374,116.5C 373.308,115.563 373.475,114.897 374.5,114.5C 383.857,114.168 393.19,114.502 402.5,115.5C 401.398,116.176 400.398,116.842 399.5,117.5C 397.657,118.283 395.657,118.95 393.5,119.5C 392.702,119.957 392.369,120.624 392.5,121.5C 392.259,123.898 392.926,125.898 394.5,127.5C 398.68,136.542 402.346,145.876 405.5,155.5C 406.301,157.793 406.968,157.46 407.5,154.5C 411.366,143.937 415.366,133.437 419.5,123C 419.167,121.833 418.833,120.667 418.5,119.5C 415.839,118.668 413.172,117.834 410.5,117C 409.226,116.023 409.226,115.189 410.5,114.5C 418.196,114.169 425.862,114.503 433.5,115.5C 432.757,116.182 432.091,116.849 431.5,117.5C 428.603,118.558 426.436,120.558 425,123.5C 418.939,139.019 412.105,154.186 404.5,169C 403.365,169.749 402.365,169.583 401.5,168.5C 397.781,159.744 394.115,151.077 390.5,142.5C 389.326,143.514 388.66,144.847 388.5,146.5C 385.372,154.09 381.705,161.423 377.5,168.5C 376.167,169.833 374.833,169.833 373.5,168.5C 365.861,151.888 357.694,135.555 349,119.5C 347.53,118.733 346.03,118.067 344.5,117.5C 343.909,116.849 343.243,116.182 342.5,115.5C 351.141,114.502 359.808,114.169 368.5,114.5 Z"/></g>
<g><path style="opacity:0.722" fill="#6e6e6e" d="M 310.5,114.5 C 310.027,115.906 309.027,116.573 307.5,116.5C 307.973,115.094 308.973,114.427 310.5,114.5 Z"/></g>
<g><path style="opacity:0.14" fill="#2c2c2c" d="M 736.5,109.5 C 737.427,113.354 738.094,117.021 738.5,120.5C 738.44,121.043 738.107,121.376 737.5,121.5C 736.509,117.555 736.176,113.555 736.5,109.5 Z"/></g>
<g><path style="opacity:0.004" fill="#000000" d="M 371.5,117.5 C 372.833,118.167 372.833,118.167 371.5,117.5 Z"/></g>
<g><path style="opacity:0.004" fill="#000000" d="M 617.5,117.5 C 618.833,118.167 618.833,118.167 617.5,117.5 Z"/></g>
<g><path style="opacity:0.702" fill="#656565" d="M 846.5,117.5 C 848.5,117.5 849.5,118.5 849.5,120.5C 848.167,119.833 847.167,118.833 846.5,117.5 Z"/></g>
<g><path style="opacity:0.359" fill="#5f5f5f" d="M 267.5,119.5 C 264.455,119.508 261.455,119.841 258.5,120.5C 259.946,119.06 261.779,118.393 264,118.5C 265.385,118.514 266.551,118.848 267.5,119.5 Z"/></g>
<g><path style="opacity:0.651" fill="#6f6f6f" d="M 306.5,117.5 C 305.5,119.167 304.167,120.5 302.5,121.5C 302.833,119.167 304.167,117.833 306.5,117.5 Z"/></g>
<g><path style="opacity:0.749" fill="#7f7f7f" d="M 754.5,118.5 C 757.631,117.908 759.964,118.908 761.5,121.5C 759.176,120.344 756.843,119.344 754.5,118.5 Z"/></g>
<g><path style="opacity:0.361" fill="#696969" d="M 719.5,114.5 C 720.167,116.167 720.833,117.833 721.5,119.5C 721.5,120.5 721.5,121.5 721.5,122.5C 720.833,122.167 720.167,121.833 719.5,121.5C 719.5,119.167 719.5,116.833 719.5,114.5 Z"/></g>
<g><path style="opacity:0.718" fill="#7d7d7d" d="M 223.5,110.5 C 224.268,111.263 224.768,112.263 225,113.5C 225.821,120.346 225.654,127.013 224.5,133.5C 224.691,125.799 224.358,118.132 223.5,110.5 Z"/></g>
<g><path style="opacity:0.021" fill="#0f0f0f" d="M 679.5,121.5 C 679.328,122.492 679.662,123.158 680.5,123.5C 680.5,123.833 680.5,124.167 680.5,124.5C 679.883,124.611 679.383,124.944 679,125.5C 678.235,123.934 678.402,122.601 679.5,121.5 Z"/></g>
<g><path style="opacity:0.075" fill="#1c1c1c" d="M 697.5,110.5 C 698.183,113.516 699.183,116.516 700.5,119.5C 698.618,120.221 698.285,121.221 699.5,122.5C 699.217,123.289 698.717,123.956 698,124.5C 697.501,119.845 697.334,115.179 697.5,110.5 Z"/></g>
<g><path style="opacity:0.592" fill="#858585" d="M 684.5,119.5 C 682.959,120.667 681.625,122 680.5,123.5C 679.662,123.158 679.328,122.492 679.5,121.5C 680.93,120.463 682.597,119.796 684.5,119.5 Z"/></g>
<g><path style="opacity:0.784" fill="#5f5f5f" d="M 761.5,122.5 C 763.048,122.821 763.715,123.821 763.5,125.5C 762.599,124.71 761.932,123.71 761.5,122.5 Z"/></g>
<g><path style="opacity:0.827" fill="#6a6a6a" d="M 798.5,122.5 C 800.048,122.821 800.715,123.821 800.5,125.5C 799.599,124.71 798.932,123.71 798.5,122.5 Z"/></g>
<g><path style="opacity:0.051" fill="#272727" d="M 205.5,125.5 C 205.795,127.735 205.461,129.735 204.5,131.5C 204.062,131.565 203.728,131.399 203.5,131C 204.109,129.052 204.776,127.218 205.5,125.5 Z"/></g>
<g><path style="opacity:0.777" fill="#a3a3a3" d="M 238.5,88.5 C 239.222,88.9175 239.722,89.5842 240,90.5C 240.667,114.167 240.667,137.833 240,161.5C 238.644,162.38 237.144,162.714 235.5,162.5C 236.531,161.751 237.698,161.085 239,160.5C 239.206,136.512 239.039,112.512 238.5,88.5 Z"/></g>
<g><path style="opacity:0.733" fill="#868686" d="M 392.5,121.5 C 394.074,123.102 394.741,125.102 394.5,127.5C 392.926,125.898 392.259,123.898 392.5,121.5 Z"/></g>
<g><path style="opacity:0.278" fill="#555555" d="M 726.5,123.5 C 728.344,125.279 729.01,127.612 728.5,130.5C 727.732,128.285 727.065,125.952 726.5,123.5 Z"/></g>
<g><path style="opacity:0.004" fill="#000000" d="M 983.5,126.5 C 984.833,127.167 984.833,127.167 983.5,126.5 Z"/></g>
<g><path style="opacity:0.329" fill="#5f5f5f" d="M 436.5,125.5 C 436.573,127.027 435.906,128.027 434.5,128.5C 434.427,126.973 435.094,125.973 436.5,125.5 Z"/></g>
<g><path style="opacity:0.627" fill="#676767" d="M 665.5,126.5 C 665.082,127.222 664.416,127.722 663.5,128C 655.841,128.5 648.174,128.666 640.5,128.5C 648.689,127.744 657.022,127.078 665.5,126.5 Z"/></g>
<g><path style="opacity:0.329" fill="#4d4d4d" d="M 384.5,125.5 C 385.931,126.78 386.598,128.447 386.5,130.5C 385.069,129.22 384.402,127.553 384.5,125.5 Z"/></g>
<g><path style="opacity:0.961" fill="#909090" d="M 595.5,125.5 C 595.741,127.898 595.074,129.898 593.5,131.5C 593.259,129.102 593.926,127.102 595.5,125.5 Z"/></g>
<g><path style="opacity:0.214" fill="#565656" d="M 325.5,121.5 C 326.117,121.611 326.617,121.944 327,122.5C 327.499,126.821 327.666,131.154 327.5,135.5C 327.167,135.5 326.833,135.5 326.5,135.5C 326.717,130.77 326.383,126.103 325.5,121.5 Z"/></g>
<g><path style="opacity:0.489" fill="#898989" d="M 462.5,121.5 C 464.047,123.807 464.713,126.473 464.5,129.5C 464.461,131.952 463.794,133.952 462.5,135.5C 463.709,130.879 463.709,126.213 462.5,121.5 Z"/></g>
<g><path style="opacity:0.047" fill="#2e2e2e" d="M 675.5,131.5 C 675.167,129.5 674.833,127.5 674.5,125.5C 675.363,124.537 676.03,124.537 676.5,125.5C 676.502,127.537 676.168,129.537 675.5,131.5 Z"/></g>
<g><path style="opacity:0.004" fill="#000000" d="M 140.5,130.5 C 141.833,131.167 141.833,131.167 140.5,130.5 Z"/></g>
<g><path style="opacity:0.239" fill="#3d3d3d" d="M 821.5,129.5 C 821.433,130.959 821.766,132.292 822.5,133.5C 821.414,133.38 820.747,132.713 820.5,131.5C 820.543,130.584 820.876,129.917 821.5,129.5 Z"/></g>
<g><path style="opacity:0.137" fill="#494949" d="M 849.5,120.5 C 850.222,120.918 850.722,121.584 851,122.5C 851.814,127.02 851.647,131.354 850.5,135.5C 850.663,130.453 850.329,125.453 849.5,120.5 Z"/></g>
<g><path style="opacity:0.527" fill="#868686" d="M 142.5,89.5 C 143.832,99.4777 144.499,109.811 144.5,120.5C 144.333,130.833 144.167,141.167 144,151.5C 143.768,152.737 143.268,153.737 142.5,154.5C 143.71,132.771 143.71,111.105 142.5,89.5 Z"/></g>
<g><path style="opacity:0.675" fill="#5d5d5d" d="M 434.5,128.5 C 434.5,130.167 434.5,131.833 434.5,133.5C 433.711,133.217 433.044,132.717 432.5,132C 433.085,130.698 433.751,129.531 434.5,128.5 Z"/></g>
<g><path style="opacity:0.004" fill="#000000" d="M 38.5,134.5 C 39.8333,135.167 39.8333,135.167 38.5,134.5 Z"/></g>
<g><path style="opacity:0.004" fill="#000000" d="M 435.5,134.5 C 434.833,135.167 434.833,135.167 435.5,134.5 Z"/></g>
<g><path style="opacity:0.682" fill="#878787" d="M 284.5,123.5 C 285.317,125.831 285.984,128.331 286.5,131C 285.536,141.127 285.203,151.293 285.5,161.5C 284.505,149.011 284.171,136.344 284.5,123.5 Z"/></g>
<g><path style="opacity:0.294" fill="#272727" d="M 591.5,135.5 C 591.672,136.492 591.338,137.158 590.5,137.5C 589.833,137.5 589.167,137.5 588.5,137.5C 587.833,137.5 587.5,137.167 587.5,136.5C 588.959,136.567 590.292,136.234 591.5,135.5 Z"/></g>
<g><path style="opacity:0.999" fill="#cfcfcf" d="M 326.5,135.5 C 326.833,135.5 327.167,135.5 327.5,135.5C 326.449,136.222 325.782,137.222 325.5,138.5C 325.5,138.833 325.5,139.167 325.5,139.5C 318.477,142.42 312.977,147.087 309,153.5C 307.959,156.636 308.793,159.136 311.5,161C 314.594,161.251 317.594,160.751 320.5,159.5C 321.791,159.263 322.791,159.596 323.5,160.5C 317.037,167.151 309.37,168.984 300.5,166C 299.177,165.184 298.511,164.017 298.5,162.5C 298.5,160.833 298.5,159.167 298.5,157.5C 302.261,149.238 308.261,143.071 316.5,139C 319.758,137.533 323.092,136.367 326.5,135.5 Z"/></g>
<g><path style="opacity:0.999" fill="#d1d1d1" d="M 850.5,135.5 C 849.89,136.391 849.557,137.391 849.5,138.5C 849.5,138.833 849.5,139.167 849.5,139.5C 843.304,142.199 838.137,146.199 834,151.5C 831.113,156.659 832.446,159.992 838,161.5C 841.379,160.557 844.546,159.224 847.5,157.5C 847.833,158.5 848.5,159.167 849.5,159.5C 842.481,166.672 834.148,168.839 824.5,166C 822.058,161.948 821.891,157.781 824,153.5C 830.516,144.161 839.349,138.161 850.5,135.5 Z"/></g>
<g><path style="opacity:0.004" fill="#000000" d="M 32.5,138.5 C 33.8333,139.167 33.8333,139.167 32.5,138.5 Z"/></g>
<g><path style="opacity:0.004" fill="#000000" d="M 719.5,138.5 C 720.833,139.167 720.833,139.167 719.5,138.5 Z"/></g>
<g><path style="opacity:0.775" fill="#767676" d="M 629.5,133.5 C 629.5,138.833 629.5,144.167 629.5,149.5C 626.962,144.154 626.962,138.821 629.5,133.5 Z"/></g>
<g><path style="opacity:0.165" fill="#2b2b2b" d="M 647.5,131.5 C 644.642,132.166 641.642,132.833 638.5,133.5C 638.712,136.652 638.712,139.985 638.5,143.5C 637.517,139.702 637.183,135.702 637.5,131.5C 640.833,131.5 644.167,131.5 647.5,131.5 Z"/></g>
<g><path style="opacity:0.757" fill="#a2a2a2" d="M 800.5,125.5 C 801.268,126.263 801.768,127.263 802,128.5C 802.74,139.527 802.574,150.527 801.5,161.5C 800.5,161.5 799.5,161.5 798.5,161.5C 799.93,159.845 800.764,157.845 801,155.5C 801.547,145.488 801.38,135.488 800.5,125.5 Z"/></g>
<g><path style="opacity:0.004" fill="#000000" d="M 140.5,141.5 C 141.833,142.167 141.833,142.167 140.5,141.5 Z"/></g>
<g><path style="opacity:0.367" fill="#727272" d="M 849.5,139.5 C 849.5,139.167 849.5,138.833 849.5,138.5C 850.812,140.743 851.478,143.41 851.5,146.5C 851.497,149.355 851.164,152.022 850.5,154.5C 850.692,149.034 850.358,144.034 849.5,139.5 Z"/></g>
<g><path style="opacity:0.122" fill="#3c3c3c" d="M 390.5,142.5 C 390.771,144.38 390.104,145.713 388.5,146.5C 388.66,144.847 389.326,143.514 390.5,142.5 Z"/></g>
<g><path style="opacity:0.961" fill="#8a8a8a" d="M 639.5,146.5 C 640.492,148.456 641.492,150.456 642.5,152.5C 640.025,151.313 639.025,149.313 639.5,146.5 Z"/></g>
<g><path style="opacity:0.137" fill="#262626" d="M 859.5,121.5 C 860.289,121.783 860.956,122.283 861.5,123C 860.512,134.753 860.179,146.586 860.5,158.5C 859.505,146.345 859.171,134.011 859.5,121.5 Z"/></g>
<g><path style="opacity:0.004" fill="#000000" d="M 797.5,150.5 C 798.833,151.167 798.833,151.167 797.5,150.5 Z"/></g>
<g><path style="opacity:0.004" fill="#000000" d="M 653.5,151.5 C 654.833,152.167 654.833,152.167 653.5,151.5 Z"/></g>
<g><path style="opacity:0.004" fill="#000000" d="M 977.5,152.5 C 978.833,153.167 978.833,153.167 977.5,152.5 Z"/></g>
<g><path style="opacity:0.008" fill="#000000" d="M 379.5,154.5 C 378.833,153.167 378.833,153.167 379.5,154.5 Z"/></g>
<g><path style="opacity:0.685" fill="#a7a7a7" d="M 500.5,147.5 C 500.283,152.23 500.617,156.897 501.5,161.5C 500.883,161.389 500.383,161.056 500,160.5C 499.186,155.98 499.353,151.646 500.5,147.5 Z"/></g>
<g><path style="opacity:0.506" fill="#585858" d="M 407.5,154.5 C 406.968,157.46 406.301,157.793 405.5,155.5C 406.167,155.167 406.833,154.833 407.5,154.5 Z"/></g>
<g><path style="opacity:0.651" fill="#707070" d="M 276.5,129.5 C 277.659,139.658 277.825,149.992 277,160.5C 274.646,162.637 271.812,163.637 268.5,163.5C 270.515,162.076 272.848,161.41 275.5,161.5C 276.43,150.872 276.763,140.205 276.5,129.5 Z"/></g>
<g><path style="opacity:0.004" fill="#000000" d="M 884.5,156.5 C 885.833,157.167 885.833,157.167 884.5,156.5 Z"/></g>
<g><path style="opacity:0.482" fill="#535353" d="M 169.5,156.5 C 172.373,156.802 175.039,157.469 177.5,158.5C 174.447,158.889 171.78,158.223 169.5,156.5 Z"/></g>
<g><path style="opacity:1" fill="#9a9a9a" d="M 325.5,139.5 C 325.5,139.167 325.5,138.833 325.5,138.5C 326.812,140.743 327.478,143.41 327.5,146.5C 327.7,150.362 327.034,154.029 325.5,157.5C 327.005,158.842 327.672,160.508 327.5,162.5C 326.395,161.4 325.062,160.733 323.5,160.5C 322.791,159.596 321.791,159.263 320.5,159.5C 322.807,158.023 324.64,156.023 326,153.5C 326.815,148.648 326.648,143.981 325.5,139.5 Z"/></g>
<g><path style="opacity:0.051" fill="#0f0f0f" d="M 298.5,157.5 C 298.5,159.167 298.5,160.833 298.5,162.5C 297.761,162.631 297.094,162.464 296.5,162C 297.099,160.378 297.766,158.878 298.5,157.5 Z"/></g>
<g><path style="opacity:0.216" fill="#404040" d="M 482.5,159.5 C 482.5,158.5 482.5,157.5 482.5,156.5C 483.078,155.453 483.744,155.62 484.5,157C 483.934,157.995 483.267,158.828 482.5,159.5 Z"/></g>
<g><path style="opacity:0.016" fill="#323232" d="M 336.5,158.5 C 338.042,159.301 339.708,159.634 341.5,159.5C 340.903,160.139 340.07,160.472 339,160.5C 337.624,160.316 336.791,159.649 336.5,158.5 Z"/></g>
<g><path style="opacity:0.027" fill="#3f3f3f" d="M 860.5,158.5 C 862.042,159.301 863.708,159.634 865.5,159.5C 864.903,160.139 864.07,160.472 863,160.5C 861.624,160.316 860.791,159.649 860.5,158.5 Z"/></g>
<g><path style="opacity:0.506" fill="#3f3f3f" d="M 463.5,160.5 C 464.404,161.209 464.737,162.209 464.5,163.5C 463.733,162.828 463.066,161.995 462.5,161C 462.728,160.601 463.062,160.435 463.5,160.5 Z"/></g>
<g><path style="opacity:0.157" fill="#555555" d="M 774.5,159.5 C 775.71,159.932 776.71,160.599 777.5,161.5C 775.821,161.715 774.821,161.048 774.5,159.5 Z"/></g>
<g><path style="opacity:0.122" fill="#545454" d="M 810.5,159.5 C 811.71,159.932 812.71,160.599 813.5,161.5C 811.821,161.715 810.821,161.048 810.5,159.5 Z"/></g>
<g><path style="opacity:0.094" fill="#404040" d="M 285.5,161.5 C 288.495,161.294 291.162,161.96 293.5,163.5C 290.572,163.435 287.905,162.768 285.5,161.5 Z"/></g>
<g><path style="opacity:0.875" fill="#7e7e7e" d="M 491.5,159.5 C 491.586,160.496 491.252,161.329 490.5,162C 488.19,162.497 485.857,162.663 483.5,162.5C 486.272,161.918 488.939,160.918 491.5,159.5 Z"/></g>
<g><path style="opacity:0.91" fill="#8c8c8c" d="M 727.5,159.5 C 727.586,160.496 727.252,161.329 726.5,162C 724.527,162.495 722.527,162.662 720.5,162.5C 722.934,161.869 725.268,160.869 727.5,159.5 Z"/></g>
<g><path style="opacity:0.071" fill="#1d1d1d" d="M 744.5,161.5 C 748.035,161.337 749.035,162.67 747.5,165.5C 747.672,164.508 747.338,163.842 746.5,163.5C 745.833,162.833 745.167,162.167 744.5,161.5 Z"/></g>
<g><path style="opacity:0.027" fill="#363636" d="M 849.5,159.5 C 849.56,158.957 849.893,158.624 850.5,158.5C 851.429,159.689 851.762,161.022 851.5,162.5C 850.833,161.5 850.167,160.5 849.5,159.5 Z"/></g>
<g><path style="opacity:0.435" fill="#555555" d="M 254.5,161.5 C 256.553,161.402 258.22,162.069 259.5,163.5C 257.447,163.598 255.78,162.931 254.5,161.5 Z"/></g>
<g><path style="opacity:0.635" fill="#6b6b6b" d="M 502.5,161.5 C 505.495,161.294 508.162,161.96 510.5,163.5C 507.572,163.435 504.905,162.768 502.5,161.5 Z"/></g>
<g><path style="opacity:0.333" fill="#535353" d="M 637.5,162.5 C 639.027,162.427 640.027,163.094 640.5,164.5C 638.973,164.573 637.973,163.906 637.5,162.5 Z"/></g>
<g><path style="opacity:0.043" fill="#111111" d="M 719.5,163.5 C 719.5,163.833 719.5,164.167 719.5,164.5C 719.5,164.833 719.5,165.167 719.5,165.5C 717.067,164.452 717.067,163.786 719.5,163.5 Z"/></g>
<g><path style="opacity:0.318" fill="#4b4b4b" d="M 133.5,158.5 C 132.791,159.404 131.791,159.737 130.5,159.5C 130.5,161.167 130.5,162.833 130.5,164.5C 138.833,164.5 147.167,164.5 155.5,164.5C 147.016,165.493 138.349,165.826 129.5,165.5C 129.5,163.167 129.5,160.833 129.5,158.5C 130.833,158.5 132.167,158.5 133.5,158.5 Z"/></g>
<g><path style="opacity:0.298" fill="#4f4f4f" d="M 481.5,161.5 C 481.5,162.167 481.833,162.5 482.5,162.5C 481.89,163.391 481.557,164.391 481.5,165.5C 480.662,165.158 480.328,164.492 480.5,163.5C 480.328,162.508 480.662,161.842 481.5,161.5 Z"/></g>
<g><path style="opacity:0.315" fill="#7a7a7a" d="M 746.5,163.5 C 747.338,163.842 747.672,164.508 747.5,165.5C 738.167,165.5 728.833,165.5 719.5,165.5C 719.5,165.167 719.5,164.833 719.5,164.5C 728.682,164.827 737.682,164.493 746.5,163.5 Z"/></g>
<g><path style="opacity:0.161" fill="#282828" d="M 754.5,162.5 C 754.5,163.5 754.5,164.5 754.5,165.5C 752.015,164.26 752.015,163.26 754.5,162.5 Z"/></g>
<g><path style="opacity:0.537" fill="#545454" d="M 793.5,162.5 C 792.375,163.652 792.375,164.652 793.5,165.5C 792.503,166.713 791.503,166.546 790.5,165C 791.078,163.583 792.078,162.75 793.5,162.5 Z"/></g>
<g><path style="opacity:0.067" fill="#2e2e2e" d="M 230.5,163.5 C 239.775,165.473 249.442,166.14 259.5,165.5C 249.681,166.494 239.681,166.827 229.5,166.5C 229.263,165.209 229.596,164.209 230.5,163.5 Z"/></g>
<g><path style="opacity:0.341" fill="#575757" d="M 268.5,163.5 C 272.276,164.825 276.443,165.491 281,165.5C 285.557,165.491 289.724,164.825 293.5,163.5C 295.549,163.706 295.883,164.539 294.5,166C 285.506,166.5 276.506,166.666 267.5,166.5C 267.263,165.209 267.596,164.209 268.5,163.5 Z"/></g>
<g><path style="opacity:0.015" fill="#191919" d="M 678.5,163.5 C 685.424,165.463 692.757,166.13 700.5,165.5C 693.018,166.492 685.352,166.825 677.5,166.5C 677.263,165.209 677.596,164.209 678.5,163.5 Z"/></g>
<g><path style="opacity:0.031" fill="#313131" d="M 817.5,162.5 C 818.434,163.568 818.768,164.901 818.5,166.5C 815.941,166.802 813.607,166.468 811.5,165.5C 813.5,165.5 815.5,165.5 817.5,165.5C 817.5,164.5 817.5,163.5 817.5,162.5 Z"/></g>
<g><path style="opacity:0.459" fill="#616161" d="M 852.5,164.5 C 854.027,164.427 855.027,165.094 855.5,166.5C 853.973,166.573 852.973,165.906 852.5,164.5 Z"/></g>
<g><path style="opacity:0.69" fill="#8c8c8c" d="M 640.5,164.5 C 647.014,166.205 653.681,166.871 660.5,166.5C 655.684,167.65 650.684,167.816 645.5,167C 643.509,166.626 641.842,165.793 640.5,164.5 Z"/></g>
<g><path style="opacity:0.004" fill="#000000" d="M 398.5,168.5 C 399.833,169.167 399.833,169.167 398.5,168.5 Z"/></g>
<g><path style="opacity:0.004" fill="#000000" d="M 278.5,172.5 C 279.833,173.167 279.833,173.167 278.5,172.5 Z"/></g>
<g><path style="opacity:0.004" fill="#000000" d="M 683.5,173.5 C 684.833,174.167 684.833,174.167 683.5,173.5 Z"/></g>
<g><path style="opacity:0.004" fill="#000000" d="M 629.5,174.5 C 630.833,175.167 630.833,175.167 629.5,174.5 Z"/></g>
<g><path style="opacity:0.004" fill="#000000" d="M 14.5,176.5 C 15.8333,177.167 15.8333,177.167 14.5,176.5 Z"/></g>
<g><path style="opacity:0.004" fill="#000000" d="M 956.5,179.5 C 957.833,180.167 957.833,180.167 956.5,179.5 Z"/></g>
<g><path style="opacity:0.004" fill="#000000" d="M 890.5,180.5 C 891.833,181.167 891.833,181.167 890.5,180.5 Z"/></g>
<g><path style="opacity:0.004" fill="#000000" d="M 830.5,183.5 C 831.833,184.167 831.833,184.167 830.5,183.5 Z"/></g>
<g><path style="opacity:0.004" fill="#000000" d="M 335.5,184.5 C 336.833,185.167 336.833,185.167 335.5,184.5 Z"/></g>
<g><path style="opacity:0.004" fill="#000000" d="M 143.5,185.5 C 144.833,186.167 144.833,186.167 143.5,185.5 Z"/></g>
<g><path style="opacity:0.004" fill="#000000" d="M 623.5,187.5 C 624.833,188.167 624.833,188.167 623.5,187.5 Z"/></g>
<g><path style="opacity:0.004" fill="#000000" d="M 932.5,187.5 C 933.833,188.167 933.833,188.167 932.5,187.5 Z"/></g>
<g><path style="opacity:0.004" fill="#000000" d="M 764.5,189.5 C 765.833,190.167 765.833,190.167 764.5,189.5 Z"/></g>
<g><path style="opacity:0.004" fill="#000000" d="M 215.5,193.5 C 216.833,194.167 216.833,194.167 215.5,193.5 Z"/></g>
<g><path style="opacity:0.004" fill="#000000" d="M 170.5,195.5 C 171.833,196.167 171.833,196.167 170.5,195.5 Z"/></g>
<g><path style="opacity:0.004" fill="#000000" d="M 698.5,200.5 C 699.833,201.167 699.833,201.167 698.5,200.5 Z"/></g>
<g><path style="opacity:0.004" fill="#000000" d="M 86.5,206.5 C 87.8333,207.167 87.8333,207.167 86.5,206.5 Z"/></g>
<g><path style="opacity:0.004" fill="#000000" d="M 905.5,206.5 C 906.833,207.167 906.833,207.167 905.5,206.5 Z"/></g>
<g><path style="opacity:0.004" fill="#000000" d="M 314.5,211.5 C 315.833,212.167 315.833,212.167 314.5,211.5 Z"/></g>
<g><path style="opacity:0.004" fill="#000000" d="M 920.5,217.5 C 921.833,218.167 921.833,218.167 920.5,217.5 Z"/></g>
<g><path style="opacity:0.004" fill="#000000" d="M 965.5,217.5 C 966.833,218.167 966.833,218.167 965.5,217.5 Z"/></g>
<g><path style="opacity:0.004" fill="#000000" d="M 881.5,218.5 C 882.833,219.167 882.833,219.167 881.5,218.5 Z"/></g>
<g><path style="opacity:0.004" fill="#000000" d="M 584.5,221.5 C 585.833,222.167 585.833,222.167 584.5,221.5 Z"/></g>
<g><path style="opacity:0.004" fill="#000000" d="M 281.5,226.5 C 282.833,227.167 282.833,227.167 281.5,226.5 Z"/></g>
<g><path style="opacity:0.004" fill="#000000" d="M 551.5,227.5 C 552.833,228.167 552.833,228.167 551.5,227.5 Z"/></g>
<g><path style="opacity:0.004" fill="#000000" d="M 68.5,229.5 C 69.8333,230.167 69.8333,230.167 68.5,229.5 Z"/></g>
<g><path style="opacity:0.004" fill="#000000" d="M 428.5,231.5 C 429.833,232.167 429.833,232.167 428.5,231.5 Z"/></g>
<g><path style="opacity:0.004" fill="#000000" d="M 338.5,241.5 C 339.833,242.167 339.833,242.167 338.5,241.5 Z"/></g>
<g><path style="opacity:0.004" fill="#000000" d="M 569.5,242.5 C 570.833,243.167 570.833,243.167 569.5,242.5 Z"/></g>
<g><path style="opacity:0.004" fill="#000000" d="M 467.5,245.5 C 468.833,246.167 468.833,246.167 467.5,245.5 Z"/></g>
</svg>
