<?xml version="1.0" encoding="UTF-8"?>
<!DOCTYPE svg PUBLIC "-//W3C//DTD SVG 1.1//EN" "http://www.w3.org/Graphics/SVG/1.1/DTD/svg11.dtd">
<svg xmlns="http://www.w3.org/2000/svg" version="1.1" width="999px" height="249px" style="shape-rendering:geometricPrecision; text-rendering:geometricPrecision; image-rendering:optimizeQuality; fill-rule:evenodd; clip-rule:evenodd" xmlns:xlink="http://www.w3.org/1999/xlink">
<g><path style="opacity:0.004" fill="#000000" d="M 665.5,3.5 C 666.833,4.16667 666.833,4.16667 665.5,3.5 Z"/></g>
<g><path style="opacity:0.004" fill="#000000" d="M 302.5,5.5 C 303.833,6.16667 303.833,6.16667 302.5,5.5 Z"/></g>
<g><path style="opacity:0.004" fill="#000000" d="M 92.5,9.5 C 93.8333,10.1667 93.8333,10.1667 92.5,9.5 Z"/></g>
<g><path style="opacity:0.004" fill="#000000" d="M 350.5,20.5 C 351.833,21.1667 351.833,21.1667 350.5,20.5 Z"/></g>
<g><path style="opacity:0.004" fill="#000000" d="M 542.5,27.5 C 543.833,28.1667 543.833,28.1667 542.5,27.5 Z"/></g>
<g><path style="opacity:0.004" fill="#000000" d="M 323.5,31.5 C 324.833,32.1667 324.833,32.1667 323.5,31.5 Z"/></g>
<g><path style="opacity:0.004" fill="#000000" d="M 455.5,34.5 C 456.833,35.1667 456.833,35.1667 455.5,34.5 Z"/></g>
<g><path style="opacity:0.004" fill="#000000" d="M 947.5,38.5 C 948.833,39.1667 948.833,39.1667 947.5,38.5 Z"/></g>
<g><path style="opacity:0.004" fill="#000000" d="M 89.5,43.5 C 90.8333,44.1667 90.8333,44.1667 89.5,43.5 Z"/></g>
<g><path style="opacity:0.004" fill="#000000" d="M 395.5,44.5 C 396.833,45.1667 396.833,45.1667 395.5,44.5 Z"/></g>
<g><path style="opacity:0.004" fill="#000000" d="M 740.5,45.5 C 741.833,46.1667 741.833,46.1667 740.5,45.5 Z"/></g>
<g><path style="opacity:0.004" fill="#000000" d="M 14.5,46.5 C 15.8333,47.1667 15.8333,47.1667 14.5,46.5 Z"/></g>
<g><path style="opacity:0.004" fill="#000000" d="M 86.5,56.5 C 87.8333,57.1667 87.8333,57.1667 86.5,56.5 Z"/></g>
<g><path style="opacity:0.202" fill="#353535" d="M 139.5,60.5 C 132.08,60.2027 124.746,60.536 117.5,61.5C 123.128,59.7893 129.128,58.7893 135.5,58.5C 137.026,58.9943 138.359,59.661 139.5,60.5 Z"/></g>
<g><path style="opacity:1" fill="#efefef" d="M 139.5,60.5 C 140.33,69.324 140.83,78.324 141,87.5C 141.333,86.8333 141.667,86.1667 142,85.5C 142.986,86.1712 144.153,86.1712 145.5,85.5C 153.167,84.1667 160.833,84.1667 168.5,85.5C 176.238,88.57 180.571,94.2367 181.5,102.5C 181.5,112.167 181.5,121.833 181.5,131.5C 182.833,131.5 184.167,131.5 185.5,131.5C 191.095,132.56 192.929,135.893 191,141.5C 189.833,142.667 188.667,143.833 187.5,145C 179.167,145.667 170.833,145.667 162.5,145C 160.676,144.34 159.343,143.173 158.5,141.5C 158.5,139.5 158.5,137.5 158.5,135.5C 158.967,132.703 160.633,131.369 163.5,131.5C 165.167,131.5 166.833,131.5 168.5,131.5C 168.666,122.161 168.5,112.827 168,103.5C 167.722,102.584 167.222,101.918 166.5,101.5C 156.156,96.1774 147.156,98.0107 139.5,107C 140.833,114.667 140.833,122.333 139.5,130C 145.165,130.007 148.832,132.674 150.5,138C 149.808,141.059 148.141,143.392 145.5,145C 137.167,145.667 128.833,145.667 120.5,145C 118.249,144.252 116.916,142.752 116.5,140.5C 116.5,138.833 116.5,137.167 116.5,135.5C 116.833,133.167 118.167,131.833 120.5,131.5C 122.5,131.5 124.5,131.5 126.5,131.5C 126.5,112.167 126.5,92.8333 126.5,73.5C 123.833,73.5 121.167,73.5 118.5,73.5C 117.167,72.8333 116.167,71.8333 115.5,70.5C 115.065,67.1625 115.732,64.1625 117.5,61.5C 124.746,60.536 132.08,60.2027 139.5,60.5 Z"/></g>
<g><path style="opacity:0.999" fill="#f7f7f7" d="M 467.5,60.5 C 467.5,84.1667 467.5,107.833 467.5,131.5C 474.167,131.5 480.833,131.5 487.5,131.5C 493.883,133.898 495.05,137.898 491,143.5C 490.329,144.252 489.496,144.586 488.5,144.5C 470.164,144.667 451.83,144.5 433.5,144C 432.756,142.961 431.756,142.461 430.5,142.5C 429.662,142.158 429.328,141.492 429.5,140.5C 429.5,138.833 429.5,137.167 429.5,135.5C 429.967,132.703 431.633,131.369 434.5,131.5C 441.167,131.5 447.833,131.5 454.5,131.5C 454.5,112.167 454.5,92.8333 454.5,73.5C 449.167,73.5 443.833,73.5 438.5,73.5C 437.279,72.9717 436.113,72.305 435,71.5C 434.727,69.6711 433.893,68.1711 432.5,67C 434.047,64.2133 436.047,61.8799 438.5,60C 448.342,59.1754 458.009,59.342 467.5,60.5 Z"/></g>
<g><path style="opacity:0.004" fill="#000000" d="M 377.5,61.5 C 378.833,62.1667 378.833,62.1667 377.5,61.5 Z"/></g>
<g><path style="opacity:0.127" fill="#292929" d="M 467.5,60.5 C 468.332,82.9963 468.832,105.663 469,128.5C 469.5,129 470,129.5 470.5,130C 476.348,130.173 482.015,130.673 487.5,131.5C 480.833,131.5 474.167,131.5 467.5,131.5C 467.5,107.833 467.5,84.1667 467.5,60.5 Z"/></g>
<g><path style="opacity:0.655" fill="#999999" d="M 83.5,66.5 C 69.5,66.5 55.5,66.5 41.5,66.5C 53.7053,65.815 66.0386,65.1484 78.5,64.5C 80.3361,65.0276 82.0028,65.6942 83.5,66.5 Z"/></g>
<g><path style="opacity:0.004" fill="#000000" d="M 416.5,65.5 C 417.833,66.1667 417.833,66.1667 416.5,65.5 Z"/></g>
<g><path style="opacity:0.004" fill="#000000" d="M 950.5,65.5 C 951.833,66.1667 951.833,66.1667 950.5,65.5 Z"/></g>
<g><path style="opacity:1" fill="#f3f3f3" d="M 41.5,66.5 C 55.5,66.5 69.5,66.5 83.5,66.5C 83.8333,66.5 84.1667,66.5 84.5,66.5C 85.7804,67.9313 87.4471,68.5979 89.5,68.5C 98.1526,72.3203 104.319,78.6537 108,87.5C 108.977,89.74 109.477,92.0733 109.5,94.5C 109.687,103.861 109.354,113.195 108.5,122.5C 105.009,133.49 97.6759,140.656 86.5,144C 71.8884,145.599 57.2217,145.932 42.5,145C 40.249,144.252 38.9156,142.752 38.5,140.5C 38.5,138.833 38.5,137.167 38.5,135.5C 38.4877,132.858 39.821,131.525 42.5,131.5C 43.8333,131.5 45.1667,131.5 46.5,131.5C 46.5,113.833 46.5,96.1667 46.5,78.5C 44.8333,78.5 43.1667,78.5 41.5,78.5C 40.1667,77.8333 39.1667,76.8333 38.5,75.5C 38.5,73.5 38.5,71.5 38.5,69.5C 38.8564,67.8102 39.8564,66.8102 41.5,66.5 Z M 60.5,79.5 C 68.6682,78.95 76.6682,79.7833 84.5,82C 89.1341,84.7942 92.4674,88.6275 94.5,93.5C 95.2447,97.5237 95.9114,101.857 96.5,106.5C 96.6804,109.58 96.0138,112.413 94.5,115C 94.7284,115.399 95.0618,115.565 95.5,115.5C 93.386,123.948 88.0527,128.948 79.5,130.5C 73.1667,130.5 66.8333,130.5 60.5,130.5C 60.5,113.5 60.5,96.5 60.5,79.5 Z"/></g>
<g><path style="opacity:0.275" fill="#414141" d="M 84.5,66.5 C 86.5529,66.4021 88.2196,67.0687 89.5,68.5C 87.4471,68.5979 85.7804,67.9313 84.5,66.5 Z"/></g>
<g><path style="opacity:0.408" fill="#4d4d4d" d="M 117.5,61.5 C 115.732,64.1625 115.065,67.1625 115.5,70.5C 114.711,70.2172 114.044,69.7172 113.5,69C 114.833,67.6667 114.833,66.3333 113.5,65C 114.103,62.9286 115.436,61.7619 117.5,61.5 Z"/></g>
<g><path style="opacity:0.004" fill="#000000" d="M 983.5,68.5 C 984.833,69.1667 984.833,69.1667 983.5,68.5 Z"/></g>
<g><path style="opacity:0.004" fill="#000000" d="M 329.5,69.5 C 330.833,70.1667 330.833,70.1667 329.5,69.5 Z"/></g>
<g><path style="opacity:0.999" fill="#d3d3d3" d="M 613.5,133.5 C 614.066,137.806 614.732,138.139 615.5,134.5C 623.576,114.79 631.576,94.9562 639.5,75C 635.167,74.6667 630.833,74.3333 626.5,74C 625.446,72.6124 625.28,71.1124 626,69.5C 635.333,68.1667 644.667,68.1667 654,69.5C 654.711,71.3668 654.211,72.8668 652.5,74C 650.236,74.2362 648.069,74.7362 646,75.5C 637.428,98.3037 628.595,120.97 619.5,143.5C 616.609,144.403 613.609,144.736 610.5,144.5C 600.98,121.445 591.98,98.1119 583.5,74.5C 581.143,74.6633 578.81,74.4966 576.5,74C 574.475,72.806 574.141,71.306 575.5,69.5C 584.482,68.3347 593.482,68.168 602.5,69C 604.781,70.4823 604.781,72.149 602.5,74C 598.514,74.4988 594.514,74.6655 590.5,74.5C 597.596,94.4668 605.263,114.133 613.5,133.5 Z M 613.5,133.5 C 614.167,133.833 614.833,134.167 615.5,134.5C 614.732,138.139 614.066,137.806 613.5,133.5 Z"/></g>
<g><path style="opacity:0.004" fill="#000000" d="M 971.5,69.5 C 972.833,70.1667 972.833,70.1667 971.5,69.5 Z"/></g>
<g><path style="opacity:0.337" fill="#2a2a2a" d="M 38.5,69.5 C 38.5,71.5 38.5,73.5 38.5,75.5C 35.8333,73.5 35.8333,71.5 38.5,69.5 Z"/></g>
<g><path style="opacity:0.004" fill="#000000" d="M 236.5,71.5 C 237.833,72.1667 237.833,72.1667 236.5,71.5 Z"/></g>
<g><path style="opacity:0.004" fill="#000000" d="M 563.5,71.5 C 564.833,72.1667 564.833,72.1667 563.5,71.5 Z"/></g>
<g><path style="opacity:0.004" fill="#000000" d="M 941.5,72.5 C 942.833,73.1667 942.833,73.1667 941.5,72.5 Z"/></g>
<g><path style="opacity:0.004" fill="#000000" d="M 17.5,75.5 C 18.8333,76.1667 18.8333,76.1667 17.5,75.5 Z"/></g>
<g><path style="opacity:0.004" fill="#000000" d="M 542.5,76.5 C 543.833,77.1667 543.833,77.1667 542.5,76.5 Z"/></g>
<g><path style="opacity:0.339" fill="#525252" d="M 438.5,73.5 C 443.833,73.5 449.167,73.5 454.5,73.5C 454.5,92.8333 454.5,112.167 454.5,131.5C 447.833,131.5 441.167,131.5 434.5,131.5C 440.645,130.51 446.978,130.177 453.5,130.5C 453.5,111.833 453.5,93.1667 453.5,74.5C 448.305,74.8205 443.305,74.4872 438.5,73.5 Z"/></g>
<g><path style="opacity:0.004" fill="#000000" d="M 701.5,77.5 C 702.833,78.1667 702.833,78.1667 701.5,77.5 Z"/></g>
<g><path style="opacity:0.428" fill="#6a6a6a" d="M 118.5,73.5 C 121.167,73.5 123.833,73.5 126.5,73.5C 126.5,92.8333 126.5,112.167 126.5,131.5C 124.5,131.5 122.5,131.5 120.5,131.5C 121.919,130.549 123.585,130.216 125.5,130.5C 125.428,111.673 125.428,93.0068 125.5,74.5C 122.941,74.8016 120.607,74.4682 118.5,73.5 Z"/></g>
<g><path style="opacity:0.004" fill="#000000" d="M 308.5,79.5 C 309.833,80.1667 309.833,80.1667 308.5,79.5 Z"/></g>
<g><path style="opacity:0.004" fill="#000000" d="M 146.5,80.5 C 147.833,81.1667 147.833,81.1667 146.5,80.5 Z"/></g>
<g><path style="opacity:0.004" fill="#000000" d="M 155.5,80.5 C 156.833,81.1667 156.833,81.1667 155.5,80.5 Z"/></g>
<g><path style="opacity:0.004" fill="#000000" d="M 995.5,80.5 C 996.833,81.1667 996.833,81.1667 995.5,80.5 Z"/></g>
<g><path style="opacity:0.421" fill="#656565" d="M 60.5,79.5 C 60.5,96.5 60.5,113.5 60.5,130.5C 66.8333,130.5 73.1667,130.5 79.5,130.5C 73.021,131.491 66.3543,131.824 59.5,131.5C 59.17,113.992 59.5033,96.6586 60.5,79.5 Z"/></g>
<g><path style="opacity:0.004" fill="#000000" d="M 659.5,82.5 C 660.833,83.1667 660.833,83.1667 659.5,82.5 Z"/></g>
<g><path style="opacity:0.647" fill="#6f6f6f" d="M 244.5,86.5 C 236.034,84.7069 227.367,84.0403 218.5,84.5C 220.487,83.6568 222.654,82.9902 225,82.5C 228,83.8333 231,83.8333 234,82.5C 237.862,83.1716 241.362,84.5049 244.5,86.5 Z"/></g>
<g><path style="opacity:0.263" fill="#3a3a3a" d="M 379.5,83.5 C 377.393,84.4682 375.059,84.8016 372.5,84.5C 374.556,83.7839 376.723,83.1172 379,82.5C 379.399,82.7284 379.565,83.0618 379.5,83.5 Z"/></g>
<g><path style="opacity:0.106" fill="#3a3a3a" d="M 393.5,84.5 C 390.941,84.8016 388.607,84.4682 386.5,83.5C 386.56,82.9569 386.893,82.6236 387.5,82.5C 389.657,83.0505 391.657,83.7171 393.5,84.5 Z"/></g>
<g><path style="opacity:0.737" fill="#616161" d="M 168.5,85.5 C 160.833,84.1667 153.167,84.1667 145.5,85.5C 147.539,84.4217 149.706,83.4217 152,82.5C 154.776,83.685 157.61,83.685 160.5,82.5C 163.416,83.1343 166.082,84.1343 168.5,85.5 Z"/></g>
<g><path style="opacity:0.999" fill="#f1f1f1" d="M 218.5,84.5 C 227.367,84.0403 236.034,84.7069 244.5,86.5C 250.683,88.6845 254.35,93.0179 255.5,99.5C 255.5,110.167 255.5,120.833 255.5,131.5C 257.5,131.5 259.5,131.5 261.5,131.5C 267.342,133.2 268.842,136.866 266,142.5C 265.184,143.823 264.017,144.489 262.5,144.5C 255.219,145.071 248.219,144.405 241.5,142.5C 228.92,148.861 216.253,149.027 203.5,143C 200.882,140.894 198.882,138.394 197.5,135.5C 196.64,131.566 196.307,127.566 196.5,123.5C 200.004,114.294 206.337,108.96 215.5,107.5C 223.466,106.635 231.466,106.302 239.5,106.5C 240.209,107.404 241.209,107.737 242.5,107.5C 242.795,105.265 242.461,103.265 241.5,101.5C 239.784,99.9752 237.784,98.9752 235.5,98.5C 233.19,97.8362 230.69,97.5029 228,97.5C 220.528,98.4945 213.028,99.1612 205.5,99.5C 201.926,96.931 201.093,93.5977 203,89.5C 203.816,88.1772 204.983,87.5106 206.5,87.5C 209.428,87.4349 212.095,86.7682 214.5,85.5C 215.568,84.5655 216.901,84.2322 218.5,84.5 Z M 238.5,120.5 C 239.263,121.268 240.263,121.768 241.5,122C 240.926,123.919 240.593,125.753 240.5,127.5C 232.353,131.868 223.687,133.368 214.5,132C 209.498,129.974 209.165,127.307 213.5,124C 215.717,122.725 218.051,121.725 220.5,121C 226.491,120.501 232.491,120.334 238.5,120.5 Z"/></g>
<g><path style="opacity:1" fill="#f1f1f1" d="M 379.5,83.5 C 381.833,83.5 384.167,83.5 386.5,83.5C 388.607,84.4682 390.941,84.8016 393.5,84.5C 399.621,85.9765 404.455,89.3098 408,94.5C 409.122,105.808 409.955,117.142 410.5,128.5C 410.291,129.086 409.957,129.586 409.5,130C 412.529,130.539 415.529,131.206 418.5,132C 419.252,132.671 419.586,133.504 419.5,134.5C 419.5,137.167 419.5,139.833 419.5,142.5C 419.027,143.906 418.027,144.573 416.5,144.5C 409.219,145.071 402.219,144.405 395.5,142.5C 394.833,142.5 394.5,142.833 394.5,143.5C 390.282,144.971 385.949,145.971 381.5,146.5C 373.846,147.103 366.513,146.103 359.5,143.5C 355.167,141.833 352.167,138.833 350.5,134.5C 350.737,133.209 350.404,132.209 349.5,131.5C 348.993,126.879 349.826,122.546 352,118.5C 357.44,111.447 364.273,107.447 372.5,106.5C 380.529,106.344 388.529,106.677 396.5,107.5C 396.795,105.265 396.461,103.265 395.5,101.5C 394.317,100.496 392.984,99.6622 391.5,99C 385.843,98.5006 380.176,98.3339 374.5,98.5C 368.093,100.43 362.093,99.7634 356.5,96.5C 356.107,93.4867 356.774,90.8201 358.5,88.5C 358.842,87.6618 359.508,87.3284 360.5,87.5C 363.152,87.5905 365.485,86.9238 367.5,85.5C 369.042,84.6993 370.708,84.366 372.5,84.5C 375.059,84.8016 377.393,84.4682 379.5,83.5 Z M 377.5,132.5 C 373.511,132.391 369.844,132.058 366.5,131.5C 365.833,131.167 365.167,130.833 364.5,130.5C 364.629,128.784 364.962,127.117 365.5,125.5C 367.977,123.759 370.644,122.259 373.5,121C 380.371,120.222 387.205,120.388 394,121.5C 394.5,121.833 395,122.167 395.5,122.5C 395.277,123.967 394.944,125.467 394.5,127C 389.189,129.992 383.522,131.825 377.5,132.5 Z"/></g>
<g><path style="opacity:0.004" fill="#000000" d="M 932.5,84.5 C 933.833,85.1667 933.833,85.1667 932.5,84.5 Z"/></g>
<g><path style="opacity:0.643" fill="#5f5f5f" d="M 214.5,85.5 C 212.095,86.7682 209.428,87.4349 206.5,87.5C 208.838,85.9605 211.505,85.2938 214.5,85.5 Z"/></g>
<g><path style="opacity:1" fill="#f2f2f2" d="M 289.5,104.5 C 289.882,108.446 290.882,112.112 292.5,115.5C 292.556,118.517 292.89,118.85 293.5,116.5C 295.008,114.819 296.008,112.819 296.5,110.5C 296.389,109.883 296.056,109.383 295.5,109C 296.278,106.584 297.611,104.084 299.5,101.5C 300.404,100.791 300.737,99.791 300.5,98.5C 305.48,97.9853 310.146,98.652 314.5,100.5C 316.896,106.022 318.896,111.689 320.5,117.5C 320.393,119.379 320.893,119.712 322,118.5C 322.44,116.134 322.94,113.801 323.5,111.5C 323.5,111.167 323.5,110.833 323.5,110.5C 324.234,109.292 324.567,107.959 324.5,106.5C 324.389,105.883 324.056,105.383 323.5,105C 324.823,104.184 325.489,103.017 325.5,101.5C 326.404,100.791 326.737,99.791 326.5,98.5C 324.5,98.5 322.5,98.5 320.5,98.5C 319.508,98.6716 318.842,98.3382 318.5,97.5C 317.735,94.9039 317.401,92.2372 317.5,89.5C 317.511,87.9826 318.177,86.8159 319.5,86C 327.833,85.3333 336.167,85.3333 344.5,86C 350.536,92.6889 349.203,97.1889 340.5,99.5C 339.883,99.6107 339.383,99.944 339,100.5C 338.452,104.17 337.952,107.837 337.5,111.5C 336.975,116.6 335.975,121.6 334.5,126.5C 332.837,128.438 332.171,130.772 332.5,133.5C 331.566,134.568 331.232,135.901 331.5,137.5C 331.5,137.833 331.5,138.167 331.5,138.5C 330.262,140.214 329.595,142.214 329.5,144.5C 325.167,144.5 320.833,144.5 316.5,144.5C 315.463,143.07 314.796,141.403 314.5,139.5C 314.737,138.209 314.404,137.209 313.5,136.5C 312.069,135.22 311.402,133.553 311.5,131.5C 311.204,129.597 310.537,127.93 309.5,126.5C 308.3,120.853 306.967,120.52 305.5,125.5C 305.737,126.791 305.404,127.791 304.5,128.5C 303.463,129.93 302.796,131.597 302.5,133.5C 301.541,137.383 300.208,141.05 298.5,144.5C 293.52,145.015 288.854,144.348 284.5,142.5C 283.475,138.84 282.141,135.34 280.5,132C 281.056,131.617 281.389,131.117 281.5,130.5C 281.737,129.209 281.404,128.209 280.5,127.5C 280.5,127.167 280.5,126.833 280.5,126.5C 280.768,124.901 280.434,123.568 279.5,122.5C 277.862,121.295 277.529,119.962 278.5,118.5C 278.737,117.209 278.404,116.209 277.5,115.5C 277.489,113.983 276.823,112.816 275.5,112C 276.056,111.617 276.389,111.117 276.5,110.5C 276.737,109.209 276.404,108.209 275.5,107.5C 274.629,104.888 273.963,102.221 273.5,99.5C 271.447,99.5979 269.78,98.9313 268.5,97.5C 267.167,94.1667 267.167,90.8333 268.5,87.5C 269.315,86.1634 270.482,85.1634 272,84.5C 279.421,85.3158 286.921,85.8158 294.5,86C 299.012,91.7635 298.178,96.5969 292,100.5C 290.817,99.269 289.651,99.269 288.5,100.5C 289.246,101.736 289.579,103.07 289.5,104.5 Z"/></g>
<g><path style="opacity:0.694" fill="#6b6b6b" d="M 367.5,85.5 C 365.485,86.9238 363.152,87.5905 360.5,87.5C 362.515,86.0762 364.848,85.4095 367.5,85.5 Z"/></g>
<g><path style="opacity:0.761" fill="#676767" d="M 837.5,86.5 C 834.482,86.7038 831.482,87.0371 828.5,87.5C 831.373,85.5185 834.373,85.1851 837.5,86.5 Z"/></g>
<g><path style="opacity:0.161" fill="#303030" d="M 41.5,78.5 C 43.1667,78.5 44.8333,78.5 46.5,78.5C 46.5,96.1667 46.5,113.833 46.5,131.5C 45.1667,131.5 43.8333,131.5 42.5,131.5C 43.2625,130.732 44.2625,130.232 45.5,130C 45.1221,121.981 45.1221,113.814 45.5,105.5C 45.3333,98.1667 45.1667,90.8333 45,83.5C 44.7428,81.0935 43.5762,79.4268 41.5,78.5 Z"/></g>
<g><path style="opacity:1" fill="#dadada" d="M 720.5,109.5 C 720.5,112.167 720.5,114.833 720.5,117.5C 702.167,117.5 683.833,117.5 665.5,117.5C 665.263,118.791 665.596,119.791 666.5,120.5C 668.969,129.298 674.303,135.632 682.5,139.5C 685.526,141.019 688.859,141.685 692.5,141.5C 695.025,141.497 697.359,141.163 699.5,140.5C 706.267,139.017 712.601,136.351 718.5,132.5C 720.569,132.785 721.902,133.952 722.5,136C 718.894,140.48 714.228,143.48 708.5,145C 692.174,150.863 678.007,147.696 666,135.5C 657.374,122.447 657.374,109.447 666,96.5C 682.393,81.8435 698.726,81.8435 715,96.5C 718.48,100.128 720.313,104.461 720.5,109.5 Z M 714.5,108.5 C 714.5,109.5 714.5,110.5 714.5,111.5C 699.001,111.482 683.501,111.482 668,111.5C 666.97,111.164 666.47,110.497 666.5,109.5C 673.024,95.2412 684.024,90.0745 699.5,94C 706.378,97.0472 711.378,101.881 714.5,108.5 Z"/></g>
<g><path style="opacity:0.999" fill="#e0e0e0" d="M 763.5,108.5 C 761.525,118.446 760.858,128.779 761.5,139.5C 770.5,139.5 779.5,139.5 788.5,139.5C 791.124,141.198 791.124,143.031 788.5,145C 772.5,145.667 756.5,145.667 740.5,145C 737.638,142.442 737.971,140.609 741.5,139.5C 746.5,139.5 751.5,139.5 756.5,139.5C 756.5,124.167 756.5,108.833 756.5,93.5C 752.167,93.5 747.833,93.5 743.5,93.5C 741.078,91.9522 741.078,90.2855 743.5,88.5C 749.5,88.5 755.5,88.5 761.5,88.5C 761.174,92.8839 761.508,97.2172 762.5,101.5C 763.107,101.376 763.44,101.043 763.5,100.5C 768.959,94.2663 775.625,89.7663 783.5,87C 787.261,86.2617 790.928,86.5951 794.5,88C 797.167,90 799.833,92 802.5,94C 801.809,95.0674 801.309,96.2341 801,97.5C 800.275,98.0585 799.442,98.3918 798.5,98.5C 795.473,97.639 792.806,96.139 790.5,94C 784.493,93.3281 779.159,94.9948 774.5,99C 770.666,102.002 767,105.169 763.5,108.5 Z"/></g>
<g><path style="opacity:0.231" fill="#2a2a2a" d="M 820.5,90.5 C 816.627,88.5698 812.294,87.9031 807.5,88.5C 809.29,87.0027 811.456,86.336 814,86.5C 816.528,86.725 819.028,87.0584 821.5,87.5C 821.737,88.791 821.404,89.791 820.5,90.5 Z"/></g>
<g><path style="opacity:0.995" fill="#d4d4d4" d="M 874.5,93.5 C 875.436,108.805 875.769,124.138 875.5,139.5C 878.167,139.5 880.833,139.5 883.5,139.5C 884.309,140.469 885.309,141.302 886.5,142C 885.167,142.667 884.167,143.667 883.5,145C 879.167,145.667 874.833,145.667 870.5,145C 870.043,144.586 869.709,144.086 869.5,143.5C 869.368,139.207 869.701,134.874 870.5,130.5C 869.759,119.515 869.259,108.515 869,97.5C 865.525,91.8445 861.025,91.0112 855.5,95C 849.946,98.9208 847.946,104.087 849.5,110.5C 847.208,110.244 845.041,110.577 843,111.5C 842.667,107.5 842.333,103.5 842,99.5C 838.427,91.6494 833.261,90.4828 826.5,96C 824.641,97.5578 823.141,99.3911 822,101.5C 821.823,113.742 821.323,125.909 820.5,138C 822.833,138.333 825.167,138.667 827.5,139C 830.167,141 830.167,143 827.5,145C 820.833,145.667 814.167,145.667 807.5,145C 804.876,143.031 804.876,141.198 807.5,139.5C 810.167,139.5 812.833,139.5 815.5,139.5C 815.829,124.324 815.496,109.324 814.5,94.5C 811.941,94.8016 809.607,94.4682 807.5,93.5C 806.766,92.2921 806.433,90.9587 806.5,89.5C 806.5,88.8333 806.833,88.5 807.5,88.5C 812.294,87.9031 816.627,88.5698 820.5,90.5C 820.369,91.2389 820.536,91.9056 821,92.5C 822.857,89.8002 825.357,88.1335 828.5,87.5C 831.482,87.0371 834.482,86.7038 837.5,86.5C 841.702,87.8633 844.869,90.5299 847,94.5C 856.064,83.1581 865.23,82.8247 874.5,93.5 Z"/></g>
<g><path style="opacity:0.999" fill="#d4d4d4" d="M 943.5,120.5 C 943.5,126.833 943.5,133.167 943.5,139.5C 946.5,139.5 949.5,139.5 952.5,139.5C 953.649,139.791 954.316,140.624 954.5,142C 954.472,143.07 954.139,143.903 953.5,144.5C 948.5,144.5 943.5,144.5 938.5,144.5C 938.808,142.076 938.474,139.743 937.5,137.5C 936.893,137.624 936.56,137.957 936.5,138.5C 923.271,149.147 909.437,150.147 895,141.5C 887.323,128.324 890.49,118.49 904.5,112C 915.245,108.86 925.912,108.693 936.5,111.5C 936.56,112.043 936.893,112.376 937.5,112.5C 937.833,110.667 938.167,108.833 938.5,107C 938.7,104.134 938.033,101.634 936.5,99.5C 932.593,94.634 927.427,92.3007 921,92.5C 914.381,93.2801 907.881,94.6134 901.5,96.5C 897.647,96.2805 896.647,94.4471 898.5,91C 909.844,85.5247 921.511,84.5247 933.5,88C 938.712,90.2468 942.212,94.0802 944,99.5C 943.913,106.482 943.746,113.482 943.5,120.5 Z M 911.5,116.5 C 919.903,116.13 928.236,116.63 936.5,118C 937.318,121.542 937.485,125.376 937,129.5C 926.979,139.964 915.146,142.797 901.5,138C 895.723,131.323 896.389,125.323 903.5,120C 906.309,118.907 908.976,117.74 911.5,116.5 Z"/></g>
<g><path style="opacity:0.004" fill="#000000" d="M 41.5,89.5 C 42.8333,90.1667 42.8333,90.1667 41.5,89.5 Z"/></g>
<g><path style="opacity:0.722" fill="#646464" d="M 268.5,87.5 C 267.167,90.8333 267.167,94.1667 268.5,97.5C 264.5,94.1667 264.5,90.8333 268.5,87.5 Z"/></g>
<g><path style="opacity:0.098" fill="#242424" d="M 806.5,89.5 C 806.433,90.9587 806.766,92.2921 807.5,93.5C 803.88,92.8969 803.547,91.5635 806.5,89.5 Z"/></g>
<g><path style="opacity:0.486" fill="#3f3f3f" d="M 317.5,89.5 C 317.401,92.2372 317.735,94.9039 318.5,97.5C 315.206,95.0439 314.873,92.3772 317.5,89.5 Z"/></g>
<g><path style="opacity:0.306" fill="#292929" d="M 358.5,88.5 C 356.774,90.8201 356.107,93.4867 356.5,96.5C 354.042,94.5071 353.875,92.1738 356,89.5C 356.671,88.7476 357.504,88.4142 358.5,88.5 Z"/></g>
<g><path style="opacity:0.004" fill="#000000" d="M 542.5,92.5 C 543.833,93.1667 543.833,93.1667 542.5,92.5 Z"/></g>
<g><path style="opacity:0.341" fill="#515151" d="M 743.5,88.5 C 749.645,87.5098 755.978,87.1765 762.5,87.5C 762.182,92.0323 762.515,96.3656 763.5,100.5C 763.44,101.043 763.107,101.376 762.5,101.5C 761.508,97.2172 761.174,92.8839 761.5,88.5C 755.5,88.5 749.5,88.5 743.5,88.5 Z"/></g>
<g><path style="opacity:0.717" fill="#929292" d="M 814.5,94.5 C 815.496,109.324 815.829,124.324 815.5,139.5C 812.833,139.5 810.167,139.5 807.5,139.5C 809.631,138.686 811.964,138.186 814.5,138C 814.49,123.492 814.49,108.992 814.5,94.5 Z"/></g>
<g><path style="opacity:0.242" fill="#434343" d="M 743.5,93.5 C 747.833,93.5 752.167,93.5 756.5,93.5C 756.5,108.833 756.5,124.167 756.5,139.5C 751.5,139.5 746.5,139.5 741.5,139.5C 745.97,138.514 750.637,138.181 755.5,138.5C 755.387,123.677 755.387,109.011 755.5,94.5C 751.298,94.8168 747.298,94.4834 743.5,93.5 Z"/></g>
<g><path style="opacity:0.149" fill="#212121" d="M 314.5,100.5 C 310.146,98.652 305.48,97.9853 300.5,98.5C 304.219,96.7015 308.219,96.2015 312.5,97C 313.973,97.7096 314.64,98.8762 314.5,100.5 Z"/></g>
<g><path style="opacity:1" fill="#787878" d="M 356.5,96.5 C 362.093,99.7634 368.093,100.43 374.5,98.5C 370.732,99.9159 366.732,100.916 362.5,101.5C 359.246,101.222 357.246,99.5552 356.5,96.5 Z"/></g>
<g><path style="opacity:0.247" fill="#535353" d="M 235.5,98.5 C 226.67,98.0831 218.003,99.0831 209.5,101.5C 207.829,101.332 206.496,100.665 205.5,99.5C 213.028,99.1612 220.528,98.4945 228,97.5C 230.69,97.5029 233.19,97.8362 235.5,98.5 Z"/></g>
<g><path style="opacity:0.498" fill="#575757" d="M 320.5,98.5 C 322.5,98.5 324.5,98.5 326.5,98.5C 326.737,99.791 326.404,100.791 325.5,101.5C 323.887,100.308 322.22,99.3077 320.5,98.5 Z"/></g>
<g><path style="opacity:0.004" fill="#000000" d="M 479.5,98.5 C 480.833,99.1667 480.833,99.1667 479.5,98.5 Z"/></g>
<g><path style="opacity:0.259" fill="#252525" d="M 300.5,98.5 C 300.737,99.791 300.404,100.791 299.5,101.5C 299.062,101.565 298.728,101.399 298.5,101C 299.066,100.005 299.733,99.172 300.5,98.5 Z"/></g>
<g><path style="opacity:0.988" fill="#808080" d="M 340.5,99.5 C 340.414,100.496 340.748,101.329 341.5,102C 339.982,105.135 338.648,108.302 337.5,111.5C 337.952,107.837 338.452,104.17 339,100.5C 339.383,99.944 339.883,99.6107 340.5,99.5 Z"/></g>
<g><path style="opacity:0.752" fill="#8e8e8e" d="M 94.5,93.5 C 96.868,97.3886 97.868,101.722 97.5,106.5C 97.3333,108.833 97.1667,111.167 97,113.5C 96.7216,114.416 96.2216,115.082 95.5,115.5C 95.0618,115.565 94.7284,115.399 94.5,115C 96.0138,112.413 96.6804,109.58 96.5,106.5C 95.9114,101.857 95.2447,97.5237 94.5,93.5 Z"/></g>
<g><path style="opacity:0.68" fill="#696969" d="M 109.5,94.5 C 112.339,103.933 112.006,113.266 108.5,122.5C 109.354,113.195 109.687,103.861 109.5,94.5 Z"/></g>
<g><path style="opacity:0.686" fill="#989898" d="M 874.5,93.5 C 875.219,95.0913 876.219,96.5913 877.5,98C 876.51,111.421 876.177,124.921 876.5,138.5C 879.059,138.198 881.393,138.532 883.5,139.5C 880.833,139.5 878.167,139.5 875.5,139.5C 875.769,124.138 875.436,108.805 874.5,93.5 Z"/></g>
<g><path style="opacity:0.132" fill="#2b2b2b" d="M 255.5,99.5 C 256.494,109.653 256.828,119.986 256.5,130.5C 258.415,130.216 260.081,130.549 261.5,131.5C 259.5,131.5 257.5,131.5 255.5,131.5C 255.5,120.833 255.5,110.167 255.5,99.5 Z"/></g>
<g><path style="opacity:0.004" fill="#000000" d="M 194.5,104.5 C 195.833,105.167 195.833,105.167 194.5,104.5 Z"/></g>
<g><path style="opacity:0.314" fill="#535353" d="M 241.5,101.5 C 242.461,103.265 242.795,105.265 242.5,107.5C 241.209,107.737 240.209,107.404 239.5,106.5C 240.239,106.631 240.906,106.464 241.5,106C 240.272,104.51 240.272,103.01 241.5,101.5 Z"/></g>
<g><path style="opacity:0.672" fill="#7d7d7d" d="M 936.5,99.5 C 938.033,101.634 938.7,104.134 938.5,107C 938.167,108.833 937.833,110.667 937.5,112.5C 936.893,112.376 936.56,112.043 936.5,111.5C 936.693,107.588 936.693,103.588 936.5,99.5 Z"/></g>
<g><path style="opacity:0.537" fill="#616161" d="M 239.5,106.5 C 231.466,106.302 223.466,106.635 215.5,107.5C 217.539,106.422 219.706,105.422 222,104.5C 227.933,105.148 233.766,105.814 239.5,106.5 Z"/></g>
<g><path style="opacity:0.569" fill="#6c6c6c" d="M 395.5,101.5 C 396.461,103.265 396.795,105.265 396.5,107.5C 388.529,106.677 380.529,106.344 372.5,106.5C 373.261,105.609 374.261,104.942 375.5,104.5C 380.031,105.811 384.531,105.811 389,104.5C 390.785,105.24 392.618,105.907 394.5,106.5C 395.452,104.955 395.785,103.288 395.5,101.5 Z"/></g>
<g><path style="opacity:0.461" fill="#727272" d="M 166.5,101.5 C 167.222,101.918 167.722,102.584 168,103.5C 168.5,112.827 168.666,122.161 168.5,131.5C 166.833,131.5 165.167,131.5 163.5,131.5C 164.568,130.566 165.901,130.232 167.5,130.5C 167.755,120.794 167.421,111.127 166.5,101.5 Z"/></g>
<g><path style="opacity:0.231" fill="#242424" d="M 275.5,107.5 C 276.404,108.209 276.737,109.209 276.5,110.5C 275.733,109.828 275.066,108.995 274.5,108C 274.728,107.601 275.062,107.435 275.5,107.5 Z"/></g>
<g><path style="opacity:0.01" fill="#171717" d="M 324.5,106.5 C 324.567,107.959 324.234,109.292 323.5,110.5C 322.529,109.038 322.862,107.705 324.5,106.5 Z"/></g>
<g><path style="opacity:0.004" fill="#000000" d="M 422.5,109.5 C 423.833,110.167 423.833,110.167 422.5,109.5 Z"/></g>
<g><path style="opacity:0.137" fill="#2a2a2a" d="M 181.5,102.5 C 182.494,111.652 182.827,120.985 182.5,130.5C 183.791,130.263 184.791,130.596 185.5,131.5C 184.167,131.5 182.833,131.5 181.5,131.5C 181.5,121.833 181.5,112.167 181.5,102.5 Z"/></g>
<g><path style="opacity:0.257" fill="#353535" d="M 714.5,108.5 C 715.434,109.568 715.768,110.901 715.5,112.5C 698.833,112.5 682.167,112.5 665.5,112.5C 665.263,111.209 665.596,110.209 666.5,109.5C 666.47,110.497 666.97,111.164 668,111.5C 683.501,111.482 699.001,111.482 714.5,111.5C 714.5,110.5 714.5,109.5 714.5,108.5 Z"/></g>
<g><path style="opacity:0.352" fill="#4e4e4e" d="M 763.5,108.5 C 762.926,118.461 762.593,128.461 762.5,138.5C 771.349,138.174 780.016,138.507 788.5,139.5C 779.5,139.5 770.5,139.5 761.5,139.5C 760.858,128.779 761.525,118.446 763.5,108.5 Z"/></g>
<g><path style="opacity:0.004" fill="#191919" d="M 289.5,104.5 C 291.262,107.503 292.428,110.837 293,114.5C 293.949,112.907 295.115,111.574 296.5,110.5C 296.008,112.819 295.008,114.819 293.5,116.5C 293.5,115.833 293.167,115.5 292.5,115.5C 290.882,112.112 289.882,108.446 289.5,104.5 Z"/></g>
<g><path style="opacity:0.004" fill="#000000" d="M 653.5,114.5 C 654.833,115.167 654.833,115.167 653.5,114.5 Z"/></g>
<g><path style="opacity:0.255" fill="#282828" d="M 277.5,115.5 C 278.404,116.209 278.737,117.209 278.5,118.5C 277.733,117.828 277.066,116.995 276.5,116C 276.728,115.601 277.062,115.435 277.5,115.5 Z"/></g>
<g><path style="opacity:0.082" fill="#323232" d="M 323.5,111.5 C 322.94,113.801 322.44,116.134 322,118.5C 320.893,119.712 320.393,119.379 320.5,117.5C 321.015,115.249 322.015,113.249 323.5,111.5 Z"/></g>
<g><path style="opacity:0.004" fill="#000000" d="M 422.5,115.5 C 423.833,116.167 423.833,116.167 422.5,115.5 Z"/></g>
<g><path style="opacity:0.344" fill="#616161" d="M 720.5,109.5 C 721.21,111.893 721.877,114.393 722.5,117C 722.167,117.333 721.833,117.667 721.5,118C 709.653,119.141 697.653,119.308 685.5,118.5C 678.796,118.504 672.463,119.17 666.5,120.5C 665.596,119.791 665.263,118.791 665.5,117.5C 683.833,117.5 702.167,117.5 720.5,117.5C 720.5,114.833 720.5,112.167 720.5,109.5 Z"/></g>
<g><path style="opacity:0.01" fill="#1a1a1a" d="M 943.5,120.5 C 944.49,126.31 944.823,132.31 944.5,138.5C 947.385,138.194 950.052,138.527 952.5,139.5C 949.5,139.5 946.5,139.5 943.5,139.5C 943.5,133.167 943.5,126.833 943.5,120.5 Z"/></g>
<g><path style="opacity:0.004" fill="#000000" d="M 674.5,121.5 C 675.833,122.167 675.833,122.167 674.5,121.5 Z"/></g>
<g><path style="opacity:0.322" fill="#4b4b4b" d="M 238.5,120.5 C 239.833,120.5 241.167,120.5 242.5,120.5C 243.01,123.388 242.344,125.721 240.5,127.5C 240.593,125.753 240.926,123.919 241.5,122C 240.263,121.768 239.263,121.268 238.5,120.5 Z"/></g>
<g><path style="opacity:0.008" fill="#1c1c1c" d="M 309.5,126.5 C 308.295,124.862 306.962,124.529 305.5,125.5C 306.967,120.52 308.3,120.853 309.5,126.5 Z"/></g>
<g><path style="opacity:0.298" fill="#3a3a3a" d="M 279.5,122.5 C 280.434,123.568 280.768,124.901 280.5,126.5C 278.891,125.335 278.557,124.001 279.5,122.5 Z"/></g>
<g><path style="opacity:0.004" fill="#000000" d="M 191.5,125.5 C 192.833,126.167 192.833,126.167 191.5,125.5 Z"/></g>
<g><path style="opacity:0.337" fill="#333333" d="M 280.5,127.5 C 281.404,128.209 281.737,129.209 281.5,130.5C 280.733,129.828 280.066,128.995 279.5,128C 279.728,127.601 280.062,127.435 280.5,127.5 Z"/></g>
<g><path style="opacity:0.106" fill="#363636" d="M 365.5,125.5 C 364.962,127.117 364.629,128.784 364.5,130.5C 363.07,128.545 363.403,126.879 365.5,125.5 Z"/></g>
<g><path style="opacity:0.675" fill="#6d6d6d" d="M 196.5,123.5 C 196.307,127.566 196.64,131.566 197.5,135.5C 196.188,134.855 195.188,133.855 194.5,132.5C 195.788,129.966 195.788,127.466 194.5,125C 195.044,124.283 195.711,123.783 196.5,123.5 Z"/></g>
<g><path style="opacity:0.016" fill="#222222" d="M 309.5,126.5 C 310.537,127.93 311.204,129.597 311.5,131.5C 309.787,130.365 309.12,128.698 309.5,126.5 Z"/></g>
<g><path style="opacity:0.004" fill="#000000" d="M 419.5,128.5 C 420.833,129.167 420.833,129.167 419.5,128.5 Z"/></g>
<g><path style="opacity:0.537" fill="#595959" d="M 334.5,126.5 C 334.279,129.067 333.612,131.401 332.5,133.5C 332.171,130.772 332.837,128.438 334.5,126.5 Z"/></g>
<g><path style="opacity:0.008" fill="#222222" d="M 304.5,128.5 C 304.88,130.698 304.213,132.365 302.5,133.5C 302.796,131.597 303.463,129.93 304.5,128.5 Z"/></g>
<g><path style="opacity:0.886" fill="#dbdbdb" d="M 848.5,138.5 C 850.607,139.468 852.941,139.802 855.5,139.5C 858.124,141.198 858.124,143.031 855.5,145C 851.179,145.499 846.846,145.666 842.5,145.5C 842.335,141.818 842.501,138.152 843,134.5C 847.715,129.292 849.548,130.626 848.5,138.5 Z"/></g>
<g><path style="opacity:0.294" fill="#404040" d="M 349.5,131.5 C 350.404,132.209 350.737,133.209 350.5,134.5C 348.519,133.895 348.185,132.895 349.5,131.5 Z"/></g>
<g><path style="opacity:0.082" fill="#3b3b3b" d="M 366.5,131.5 C 369.844,132.058 373.511,132.391 377.5,132.5C 374.36,133.641 371.027,133.808 367.5,133C 366.944,132.617 366.611,132.117 366.5,131.5 Z"/></g>
<g><path style="opacity:0.341" fill="#3f3f3f" d="M 332.5,133.5 C 333.443,135.001 333.109,136.335 331.5,137.5C 331.232,135.901 331.566,134.568 332.5,133.5 Z"/></g>
<g><path style="opacity:0.29" fill="#2f2f2f" d="M 38.5,135.5 C 38.5,137.167 38.5,138.833 38.5,140.5C 35.8333,138.833 35.8333,137.167 38.5,135.5 Z"/></g>
<g><path style="opacity:0.281" fill="#303030" d="M 116.5,135.5 C 116.5,137.167 116.5,138.833 116.5,140.5C 113.833,138.833 113.833,137.167 116.5,135.5 Z"/></g>
<g><path style="opacity:0.004" fill="#000000" d="M 850.5,137.5 C 849.833,136.167 849.833,136.167 850.5,137.5 Z"/></g>
<g><path style="opacity:0.365" fill="#2d2d2d" d="M 158.5,135.5 C 158.5,137.5 158.5,139.5 158.5,141.5C 157.522,141.189 156.855,140.522 156.5,139.5C 157.711,138.28 157.711,137.113 156.5,136C 157.094,135.536 157.761,135.369 158.5,135.5 Z"/></g>
<g><path style="opacity:0.22" fill="#4d3f67" d="M 313.5,136.5 C 314.404,137.209 314.737,138.209 314.5,139.5C 312.519,138.895 312.185,137.895 313.5,136.5 Z"/></g>
<g><path style="opacity:0.922" fill="#767676" d="M 419.5,134.5 C 423.114,136.983 423.114,139.65 419.5,142.5C 419.5,139.833 419.5,137.167 419.5,134.5 Z"/></g>
<g><path style="opacity:0.38" fill="#333333" d="M 429.5,135.5 C 429.5,137.167 429.5,138.833 429.5,140.5C 428.624,140.631 427.957,140.298 427.5,139.5C 428.833,138.5 428.833,137.5 427.5,136.5C 427.957,135.702 428.624,135.369 429.5,135.5 Z"/></g>
<g><path style="opacity:0.294" fill="#3c3c3c" d="M 850.5,137.5 C 852.403,137.796 854.07,138.463 855.5,139.5C 852.941,139.802 850.607,139.468 848.5,138.5C 849.492,138.672 850.158,138.338 850.5,137.5 Z"/></g>
<g><path style="opacity:0.198" fill="#555555" d="M 682.5,139.5 C 688.13,140.292 693.797,140.625 699.5,140.5C 697.359,141.163 695.025,141.497 692.5,141.5C 688.859,141.685 685.526,141.019 682.5,139.5 Z"/></g>
<g><path style="opacity:0.236" fill="#444444" d="M 241.5,142.5 C 248.219,144.405 255.219,145.071 262.5,144.5C 255.687,145.491 248.687,145.825 241.5,145.5C 241.5,144.5 241.5,143.5 241.5,142.5 Z"/></g>
<g><path style="opacity:0.245" fill="#484848" d="M 284.5,142.5 C 288.854,144.348 293.52,145.015 298.5,144.5C 294.03,145.486 289.363,145.819 284.5,145.5C 284.5,144.5 284.5,143.5 284.5,142.5 Z"/></g>
<g><path style="opacity:0.237" fill="#414141" d="M 331.5,138.5 C 331.326,140.861 330.993,143.194 330.5,145.5C 325.637,145.819 320.97,145.486 316.5,144.5C 320.833,144.5 325.167,144.5 329.5,144.5C 329.595,142.214 330.262,140.214 331.5,138.5 Z"/></g>
<g><path style="opacity:0.236" fill="#474747" d="M 395.5,142.5 C 402.219,144.405 409.219,145.071 416.5,144.5C 409.679,145.655 402.679,145.821 395.5,145C 394.944,144.617 394.611,144.117 394.5,143.5C 395.167,143.5 395.5,143.167 395.5,142.5 Z"/></g>
<g><path style="opacity:0.232" fill="#464646" d="M 430.5,142.5 C 431.756,142.461 432.756,142.961 433.5,144C 451.83,144.5 470.164,144.667 488.5,144.5C 470.005,145.662 451.338,145.829 432.5,145C 431.619,144.292 430.953,143.458 430.5,142.5 Z"/></g>
<g><path style="opacity:0.233" fill="#424242" d="M 619.5,143.5 C 618.486,144.765 616.986,145.431 615,145.5C 613.293,145.492 611.793,145.158 610.5,144.5C 613.609,144.736 616.609,144.403 619.5,143.5 Z"/></g>
<g><path style="opacity:0.233" fill="#525252" d="M 936.5,138.5 C 936.56,137.957 936.893,137.624 937.5,137.5C 938.474,139.743 938.808,142.076 938.5,144.5C 943.5,144.5 948.5,144.5 953.5,144.5C 948.35,145.651 943.016,145.817 937.5,145C 936.696,142.636 936.363,140.469 936.5,138.5 Z"/></g>
<g><path style="opacity:0.004" fill="#000000" d="M 197.5,146.5 C 198.833,147.167 198.833,147.167 197.5,146.5 Z"/></g>
<g><path style="opacity:0.4" fill="#5f5f5f" d="M 359.5,143.5 C 366.513,146.103 373.846,147.103 381.5,146.5C 376.684,147.65 371.684,147.816 366.5,147C 363.719,146.478 361.385,145.311 359.5,143.5 Z"/></g>
<g><path style="opacity:0.004" fill="#000000" d="M 884.5,146.5 C 885.833,147.167 885.833,147.167 884.5,146.5 Z"/></g>
<g><path style="opacity:0.004" fill="#000000" d="M 92.5,148.5 C 93.8333,149.167 93.8333,149.167 92.5,148.5 Z"/></g>
<g><path style="opacity:0.004" fill="#000000" d="M 800.5,149.5 C 801.833,150.167 801.833,150.167 800.5,149.5 Z"/></g>
<g><path style="opacity:0.004" fill="#000000" d="M 248.5,150.5 C 249.833,151.167 249.833,151.167 248.5,150.5 Z"/></g>
<g><path style="opacity:0.004" fill="#000000" d="M 245.5,151.5 C 246.833,152.167 246.833,152.167 245.5,151.5 Z"/></g>
<g><path style="opacity:0.004" fill="#000000" d="M 719.5,154.5 C 720.833,155.167 720.833,155.167 719.5,154.5 Z"/></g>
<g><path style="opacity:0.004" fill="#000000" d="M 707.5,156.5 C 708.833,157.167 708.833,157.167 707.5,156.5 Z"/></g>
<g><path style="opacity:0.004" fill="#000000" d="M 617.5,159.5 C 618.833,160.167 618.833,160.167 617.5,159.5 Z"/></g>
<g><path style="opacity:0.004" fill="#000000" d="M 311.5,161.5 C 312.833,162.167 312.833,162.167 311.5,161.5 Z"/></g>
<g><path style="opacity:0.004" fill="#000000" d="M 992.5,162.5 C 993.833,163.167 993.833,163.167 992.5,162.5 Z"/></g>
<g><path style="opacity:0.004" fill="#000000" d="M 77.5,164.5 C 78.8333,165.167 78.8333,165.167 77.5,164.5 Z"/></g>
<g><path style="opacity:0.004" fill="#000000" d="M 866.5,168.5 C 867.833,169.167 867.833,169.167 866.5,168.5 Z"/></g>
<g><path style="opacity:0.004" fill="#000000" d="M 284.5,169.5 C 285.833,170.167 285.833,170.167 284.5,169.5 Z"/></g>
<g><path style="opacity:0.004" fill="#000000" d="M 800.5,170.5 C 801.833,171.167 801.833,171.167 800.5,170.5 Z"/></g>
<g><path style="opacity:0.004" fill="#000000" d="M 215.5,173.5 C 216.833,174.167 216.833,174.167 215.5,173.5 Z"/></g>
<g><path style="opacity:0.004" fill="#000000" d="M 176.5,183.5 C 177.833,184.167 177.833,184.167 176.5,183.5 Z"/></g>
<g><path style="opacity:0.004" fill="#000000" d="M 191.5,184.5 C 192.833,185.167 192.833,185.167 191.5,184.5 Z"/></g>
<g><path style="opacity:0.004" fill="#000000" d="M 467.5,185.5 C 468.833,186.167 468.833,186.167 467.5,185.5 Z"/></g>
<g><path style="opacity:0.004" fill="#000000" d="M 620.5,188.5 C 621.833,189.167 621.833,189.167 620.5,188.5 Z"/></g>
<g><path style="opacity:0.004" fill="#000000" d="M 449.5,191.5 C 450.833,192.167 450.833,192.167 449.5,191.5 Z"/></g>
<g><path style="opacity:0.004" fill="#000000" d="M 674.5,193.5 C 675.833,194.167 675.833,194.167 674.5,193.5 Z"/></g>
<g><path style="opacity:0.004" fill="#000000" d="M 626.5,194.5 C 627.833,195.167 627.833,195.167 626.5,194.5 Z"/></g>
<g><path style="opacity:0.004" fill="#000000" d="M 287.5,212.5 C 288.833,213.167 288.833,213.167 287.5,212.5 Z"/></g>
<g><path style="opacity:0.004" fill="#000000" d="M 398.5,213.5 C 399.833,214.167 399.833,214.167 398.5,213.5 Z"/></g>
<g><path style="opacity:0.004" fill="#000000" d="M 512.5,215.5 C 513.833,216.167 513.833,216.167 512.5,215.5 Z"/></g>
<g><path style="opacity:0.004" fill="#000000" d="M 149.5,216.5 C 150.833,217.167 150.833,217.167 149.5,216.5 Z"/></g>
<g><path style="opacity:0.004" fill="#000000" d="M 686.5,217.5 C 687.833,218.167 687.833,218.167 686.5,217.5 Z"/></g>
<g><path style="opacity:0.004" fill="#000000" d="M 845.5,219.5 C 846.833,220.167 846.833,220.167 845.5,219.5 Z"/></g>
<g><path style="opacity:0.004" fill="#000000" d="M 695.5,220.5 C 696.833,221.167 696.833,221.167 695.5,220.5 Z"/></g>
<g><path style="opacity:0.004" fill="#000000" d="M 836.5,220.5 C 837.833,221.167 837.833,221.167 836.5,220.5 Z"/></g>
<g><path style="opacity:0.004" fill="#000000" d="M 734.5,221.5 C 735.833,222.167 735.833,222.167 734.5,221.5 Z"/></g>
<g><path style="opacity:0.004" fill="#000000" d="M 203.5,225.5 C 204.833,226.167 204.833,226.167 203.5,225.5 Z"/></g>
<g><path style="opacity:0.004" fill="#000000" d="M 389.5,225.5 C 390.833,226.167 390.833,226.167 389.5,225.5 Z"/></g>
<g><path style="opacity:0.004" fill="#000000" d="M 809.5,226.5 C 810.833,227.167 810.833,227.167 809.5,226.5 Z"/></g>
<g><path style="opacity:0.004" fill="#000000" d="M 542.5,230.5 C 543.833,231.167 543.833,231.167 542.5,230.5 Z"/></g>
<g><path style="opacity:0.004" fill="#000000" d="M 470.5,235.5 C 471.833,236.167 471.833,236.167 470.5,235.5 Z"/></g>
<g><path style="opacity:0.004" fill="#000000" d="M 737.5,236.5 C 738.833,237.167 738.833,237.167 737.5,236.5 Z"/></g>
<g><path style="opacity:0.004" fill="#000000" d="M 662.5,237.5 C 663.833,238.167 663.833,238.167 662.5,237.5 Z"/></g>
<g><path style="opacity:0.004" fill="#000000" d="M 203.5,240.5 C 204.833,241.167 204.833,241.167 203.5,240.5 Z"/></g>
<g><path style="opacity:0.004" fill="#000000" d="M 830.5,245.5 C 831.833,246.167 831.833,246.167 830.5,245.5 Z"/></g>
</svg>
