<?xml version="1.0" encoding="UTF-8"?>
<!DOCTYPE svg PUBLIC "-//W3C//DTD SVG 1.1//EN" "http://www.w3.org/Graphics/SVG/1.1/DTD/svg11.dtd">
<svg xmlns="http://www.w3.org/2000/svg" version="1.1" width="508px" height="57px" style="shape-rendering:geometricPrecision; text-rendering:geometricPrecision; image-rendering:optimizeQuality; fill-rule:evenodd; clip-rule:evenodd" xmlns:xlink="http://www.w3.org/1999/xlink">
<g><path style="opacity:0.075" fill="#151515" d="M 234.5,0.5 C 240.5,0.5 246.5,0.5 252.5,0.5C 252.5,13.5 252.5,26.5 252.5,39.5C 255.044,39.1043 257.211,39.771 259,41.5C 258.954,44.8004 258.788,48.1337 258.5,51.5C 248.762,53.7812 240.929,51.1145 235,43.5C 234.5,29.1705 234.333,14.8372 234.5,0.5 Z"/></g>
<g><path style="opacity:1" fill="#fcfcfc" d="M 250.5,41.5 C 252.265,42.4614 254.265,42.7947 256.5,42.5C 256.5,44.8333 256.5,47.1667 256.5,49.5C 252.5,49.5 248.5,49.5 244.5,49.5C 241.833,47.5 239.5,45.1667 237.5,42.5C 237.5,29.5 237.5,16.5 237.5,3.5C 241.5,3.5 245.5,3.5 249.5,3.5C 249.171,16.3443 249.505,29.011 250.5,41.5 Z"/></g>
<g><path style="opacity:0.808" fill="#cbcbcb" d="M 250.5,41.5 C 249.505,29.011 249.171,16.3443 249.5,3.5C 245.5,3.5 241.5,3.5 237.5,3.5C 237.5,16.5 237.5,29.5 237.5,42.5C 236.504,29.3438 236.171,16.0105 236.5,2.5C 241.167,2.5 245.833,2.5 250.5,2.5C 250.5,15.5 250.5,28.5 250.5,41.5 Z"/></g>
<g><path style="opacity:0.085" fill="#121212" d="M 436.5,16.5 C 436.5,16.8333 436.5,17.1667 436.5,17.5C 432.124,15.4656 427.457,14.9656 422.5,16C 419.603,17.7155 418.269,20.2155 418.5,23.5C 420.415,23.2155 422.081,23.5489 423.5,24.5C 423.5,33.1667 423.5,41.8333 423.5,50.5C 428.5,50.5 433.5,50.5 438.5,50.5C 438.833,50.5 439.167,50.5 439.5,50.5C 434.025,51.4889 428.358,51.8222 422.5,51.5C 422.281,44.4178 422.281,37.4178 422.5,30.5C 421.332,28.7826 419.665,28.1159 417.5,28.5C 417.5,36.1667 417.5,43.8333 417.5,51.5C 411.5,51.5 405.5,51.5 399.5,51.5C 399.5,45.8333 399.5,40.1667 399.5,34.5C 393.824,34.6661 388.157,34.4994 382.5,34C 382.065,31.1331 380.899,28.6331 379,26.5C 378.333,27.1667 377.667,27.8333 377,28.5C 376.5,36.1594 376.334,43.8261 376.5,51.5C 370.5,51.5 364.5,51.5 358.5,51.5C 358.178,38.92 358.511,26.42 359.5,14C 364.833,13.3333 370.167,13.3333 375.5,14C 376.333,14.8333 377.167,15.6667 378,16.5C 378.833,15.6667 379.667,14.8333 380.5,14C 387.095,12.0619 392.428,13.7286 396.5,19C 397.448,19.4828 398.448,19.6495 399.5,19.5C 399.261,17.5328 399.594,15.6995 400.5,14C 406.167,13.3333 411.833,13.3333 417.5,14C 418.833,16 420.167,16 421.5,14C 425.833,13.3333 430.167,13.3333 434.5,14C 435.756,14.4169 436.423,15.2502 436.5,16.5 Z"/></g>
<g><path style="opacity:0.076" fill="#121212" d="M 439.5,50.5 C 439.167,50.5 438.833,50.5 438.5,50.5C 438.828,39.9865 438.494,29.6532 437.5,19.5C 437.167,18.8333 436.833,18.1667 436.5,17.5C 436.5,17.1667 436.5,16.8333 436.5,16.5C 438.144,16.2865 439.644,16.6198 441,17.5C 442.167,16.3333 443.333,15.1667 444.5,14C 448.167,13.3333 451.833,13.3333 455.5,14C 458.444,17.6193 461.944,20.4526 466,22.5C 466.579,18.9089 468.412,16.0755 471.5,14C 479.5,13.3333 487.5,13.3333 495.5,14C 499.036,17.2012 502.203,20.7012 505,24.5C 505.667,33.1667 505.667,41.8333 505,50.5C 499.259,51.4749 493.425,51.8082 487.5,51.5C 487.557,47.8669 486.557,47.7002 484.5,51C 476.903,52.5403 469.903,51.3736 463.5,47.5C 462.571,48.6888 462.238,50.0222 462.5,51.5C 456.575,51.8082 450.741,51.4749 445,50.5C 444.667,43.1667 444.333,35.8333 444,28.5C 443.333,27.8333 442.667,27.1667 442,26.5C 440.864,34.5134 440.031,42.5134 439.5,50.5 Z M 466.5,25.5 C 467.833,25.5 469.167,25.5 470.5,25.5C 469.051,29.4724 466.551,32.8057 463,35.5C 461.75,31.1007 462.916,27.7673 466.5,25.5 Z M 485.5,37.5 C 487.332,38.1405 487.665,39.1405 486.5,40.5C 485.614,39.675 485.281,38.675 485.5,37.5 Z"/></g>
<g><path style="opacity:0.705" fill="#9c9c9c" d="M 391.5,16.5 C 387.766,16.3227 384.099,16.6561 380.5,17.5C 380.611,16.8826 380.944,16.3826 381.5,16C 385.027,15.1925 388.36,15.3592 391.5,16.5 Z"/></g>
<g><path style="opacity:0.999" fill="#f4f4f4" d="M 145.5,17.5 C 145.41,20.1522 146.076,22.4855 147.5,24.5C 147.963,27.4824 148.296,30.4824 148.5,33.5C 149.833,33.5 151.167,33.5 152.5,33.5C 152.643,30.9026 153.477,28.5692 155,26.5C 155.377,27.9423 156.21,28.9423 157.5,29.5C 158.562,31.6889 159.228,34.0222 159.5,36.5C 158.288,40.7985 157.288,45.1318 156.5,49.5C 152.265,50.436 147.931,50.7693 143.5,50.5C 139.684,39.5784 136.017,28.5784 132.5,17.5C 136.733,16.2057 141.066,16.2057 145.5,17.5 Z"/></g>
<g><path style="opacity:0.999" fill="#f4f4f4" d="M 168.5,16.5 C 170.34,20.6733 172.006,25.0066 173.5,29.5C 175.421,35.4436 177.088,41.4436 178.5,47.5C 174.971,49.4228 170.971,50.0894 166.5,49.5C 163.34,39.3528 160.006,29.3528 156.5,19.5C 156.5,19.1667 156.5,18.8333 156.5,18.5C 160.029,16.5772 164.029,15.9106 168.5,16.5 Z"/></g>
<g><path style="opacity:0.999" fill="#f5f5f5" d="M 179.5,16.5 C 183.971,15.9106 187.971,16.5772 191.5,18.5C 190.434,20.7014 189.767,23.0347 189.5,25.5C 186.882,32.0865 184.215,38.7532 181.5,45.5C 179.565,41.6957 178.232,37.6957 177.5,33.5C 177.592,27.9616 178.258,22.295 179.5,16.5 Z"/></g>
<g><path style="opacity:0.784" fill="#b8b8b8" d="M 360.5,15.5 C 365.167,15.5 369.833,15.5 374.5,15.5C 374.5,27.1667 374.5,38.8333 374.5,50.5C 369.833,50.5 365.167,50.5 360.5,50.5C 360.5,38.8333 360.5,27.1667 360.5,15.5 Z"/></g>
<g><path style="opacity:0.999" fill="#fdfdfd" d="M 361.5,16.5 C 365.5,16.5 369.5,16.5 373.5,16.5C 373.5,27.5 373.5,38.5 373.5,49.5C 369.5,49.5 365.5,49.5 361.5,49.5C 361.5,38.5 361.5,27.5 361.5,16.5 Z"/></g>
<g><path style="opacity:0.998" fill="#fafafa" d="M 391.5,16.5 C 392.833,18.1667 394.167,19.8333 395.5,21.5C 396.324,24.7644 396.658,28.0977 396.5,31.5C 392.5,31.5 388.5,31.5 384.5,31.5C 384.802,28.9407 384.468,26.6074 383.5,24.5C 381.958,23.8365 380.291,23.1698 378.5,22.5C 379.456,20.9246 380.123,19.258 380.5,17.5C 384.099,16.6561 387.766,16.3227 391.5,16.5 Z"/></g>
<g><path style="opacity:1" fill="#f7f7f7" d="M 436.5,17.5 C 436.833,18.1667 437.167,18.8333 437.5,19.5C 437.5,29.5 437.5,39.5 437.5,49.5C 433.167,49.5 428.833,49.5 424.5,49.5C 424.826,40.9832 424.493,32.6499 423.5,24.5C 422.081,23.5489 420.415,23.2155 418.5,23.5C 418.269,20.2155 419.603,17.7155 422.5,16C 427.457,14.9656 432.124,15.4656 436.5,17.5 Z"/></g>
<g><path style="opacity:0.999" fill="#f7f7f7" d="M 460.5,49.5 C 456.167,49.5 451.833,49.5 447.5,49.5C 447.826,40.9832 447.493,32.6499 446.5,24.5C 445.081,23.5489 443.415,23.2155 441.5,23.5C 441.843,18.4906 444.509,15.824 449.5,15.5C 454.034,15.504 457.534,17.504 460,21.5C 460.5,30.8274 460.666,40.1607 460.5,49.5 Z"/></g>
<g><path style="opacity:0.999" fill="#f5f5f5" d="M 502.5,24.5 C 502.5,32.8333 502.5,41.1667 502.5,49.5C 498.167,49.5 493.833,49.5 489.5,49.5C 489.5,41.1667 489.5,32.8333 489.5,24.5C 483.021,23.5093 476.354,23.176 469.5,23.5C 469.5,22.1667 469.5,20.8333 469.5,19.5C 470.29,18.2058 471.29,17.0391 472.5,16C 479.833,15.3333 487.167,15.3333 494.5,16C 497.371,18.7028 500.038,21.5361 502.5,24.5 Z"/></g>
<g><path style="opacity:0.773" fill="#b0b0b0" d="M 380.5,17.5 C 380.123,19.258 379.456,20.9246 378.5,22.5C 380.291,23.1698 381.958,23.8365 383.5,24.5C 381.5,24.5 379.5,24.5 377.5,24.5C 376.908,21.3695 377.908,19.0361 380.5,17.5 Z"/></g>
<g><path style="opacity:0.078" fill="#111111" d="M 325.5,13.5 C 333.174,13.3336 340.841,13.5003 348.5,14C 351.333,16.8333 354.167,19.6667 357,22.5C 357.499,27.4889 357.666,32.4889 357.5,37.5C 351.491,37.3338 345.491,37.5005 339.5,38C 340.833,38.6667 340.833,39.3333 339.5,40C 344.833,40.3333 350.167,40.6667 355.5,41C 357.201,44.9782 356.201,48.1449 352.5,50.5C 343.184,51.6654 333.851,51.8321 324.5,51C 322,48.5 319.5,46 317,43.5C 316.333,36.5 316.333,29.5 317,22.5C 320.038,19.6306 322.871,16.6306 325.5,13.5 Z M 336.5,25.5 C 337.833,25.5 339.167,25.5 340.5,25.5C 340.5,26.5 340.5,27.5 340.5,28.5C 338.396,28.7989 336.396,28.4656 334.5,27.5C 335.243,26.8182 335.909,26.1515 336.5,25.5 Z"/></g>
<g><path style="opacity:0.998" fill="#f5f5f5" d="M 347.5,16.5 C 350.13,18.6281 352.63,20.9614 355,23.5C 355.499,27.4862 355.666,31.4862 355.5,35.5C 348.833,35.5 342.167,35.5 335.5,35.5C 335.5,33.8333 335.5,32.1667 335.5,30.5C 337.833,30.5 340.167,30.5 342.5,30.5C 342.5,28.5 342.5,26.5 342.5,24.5C 341.082,22.6921 339.082,22.0254 336.5,22.5C 336.5,20.5 336.5,18.5 336.5,16.5C 340.167,16.5 343.833,16.5 347.5,16.5 Z"/></g>
<g><path style="opacity:0.894" fill="#bababa" d="M 347.5,16.5 C 343.833,16.5 340.167,16.5 336.5,16.5C 336.5,18.5 336.5,20.5 336.5,22.5C 339.082,22.0254 341.082,22.6921 342.5,24.5C 340.167,24.5 337.833,24.5 335.5,24.5C 335.5,21.5 335.5,18.5 335.5,15.5C 339.702,15.1832 343.702,15.5166 347.5,16.5 Z"/></g>
<g><path style="opacity:0.997" fill="#f8f8f8" d="M 326.5,49.5 C 323.87,47.3719 321.37,45.0386 319,42.5C 318.333,36.1667 318.333,29.8333 319,23.5C 319.708,22.6195 320.542,21.9528 321.5,21.5C 323.886,20.6267 325.886,19.1267 327.5,17C 328.793,16.51 330.127,16.3433 331.5,16.5C 331.5,27.5 331.5,38.5 331.5,49.5C 329.833,49.5 328.167,49.5 326.5,49.5 Z"/></g>
<g><path style="opacity:0.709" fill="#888888" d="M 437.5,19.5 C 438.494,29.6532 438.828,39.9865 438.5,50.5C 433.5,50.5 428.5,50.5 423.5,50.5C 423.5,41.8333 423.5,33.1667 423.5,24.5C 424.493,32.6499 424.826,40.9832 424.5,49.5C 428.833,49.5 433.167,49.5 437.5,49.5C 437.5,39.5 437.5,29.5 437.5,19.5 Z"/></g>
<g><path style="opacity:0.594" fill="#777777" d="M 469.5,19.5 C 469.5,20.8333 469.5,22.1667 469.5,23.5C 476.354,23.176 483.021,23.5093 489.5,24.5C 482.5,24.5 475.5,24.5 468.5,24.5C 468.216,22.5853 468.549,20.9187 469.5,19.5 Z"/></g>
<g><path style="opacity:0.07" fill="#131313" d="M 189.5,29.5 C 189.5,28.1667 189.5,26.8333 189.5,25.5C 189.767,23.0347 190.434,20.7014 191.5,18.5C 192.404,17.791 192.737,16.791 192.5,15.5C 187.968,15.1818 183.634,15.5151 179.5,16.5C 178.049,20.3685 176.715,24.3685 175.5,28.5C 174.833,28.8333 174.167,29.1667 173.5,29.5C 172.006,25.0066 170.34,20.6733 168.5,16.5C 164.366,15.5151 160.032,15.1818 155.5,15.5C 155.263,16.791 155.596,17.791 156.5,18.5C 156.5,18.8333 156.5,19.1667 156.5,19.5C 156.737,20.791 156.404,21.791 155.5,22.5C 153.352,25.4026 151.852,28.7359 151,32.5C 149.907,29.6907 148.74,27.024 147.5,24.5C 147.59,21.8478 146.924,19.5145 145.5,17.5C 143.603,16.1952 141.269,15.5286 138.5,15.5C 136.167,15.8333 133.833,16.1667 131.5,16.5C 131.624,17.1067 131.957,17.44 132.5,17.5C 136.017,28.5784 139.684,39.5784 143.5,50.5C 147.931,50.7693 152.265,50.436 156.5,49.5C 156.833,49.5 157.167,49.5 157.5,49.5C 155.429,50.8086 152.929,51.4752 150,51.5C 147.5,51.3333 145,51.1667 142.5,51C 139.204,42.9039 136.037,34.7372 133,26.5C 132.5,34.8267 132.334,43.16 132.5,51.5C 126.5,51.5 120.5,51.5 114.5,51.5C 114.557,47.8669 113.557,47.7002 111.5,51C 106.5,51.6667 101.5,51.6667 96.5,51C 94.6667,49.1667 92.8333,47.3333 91,45.5C 90.187,47.4357 89.687,49.4357 89.5,51.5C 83.5,51.5 77.5,51.5 71.5,51.5C 71.5,43.1667 71.5,34.8333 71.5,26.5C 69.8333,26.5 68.1667,26.5 66.5,26.5C 66.5,34.8333 66.5,43.1667 66.5,51.5C 60.5,51.5 54.5,51.5 48.5,51.5C 48.5,34.5 48.5,17.5 48.5,0.5C 54.5,0.5 60.5,0.5 66.5,0.5C 66.5,5.5 66.5,10.5 66.5,15.5C 68.1033,15.6882 69.4366,15.1882 70.5,14C 73.8333,13.3333 77.1667,13.3333 80.5,14C 83.3333,16.8333 86.1667,19.6667 89,22.5C 90.7619,25.5756 90.9286,28.7423 89.5,32C 89.6301,33.0588 90.1301,33.8921 91,34.5C 92.8333,32.6667 94.6667,30.8333 96.5,29C 102.491,28.5005 108.491,28.3338 114.5,28.5C 114.649,27.448 114.483,26.448 114,25.5C 107.138,26.1364 100.638,26.1364 94.5,25.5C 92.7191,20.2239 94.3858,16.3905 99.5,14C 107.167,13.3333 114.833,13.3333 122.5,14C 125.016,16.6833 127.683,19.1833 130.5,21.5C 130.068,19.1883 130.068,16.6883 130.5,14C 135.864,13.1705 141.198,13.3372 146.5,14.5C 147.716,18.3213 149.216,21.9879 151,25.5C 151.795,23.0988 152.962,20.9321 154.5,19C 153.167,17.3333 153.167,15.6667 154.5,14C 159.5,13.3333 164.5,13.3333 169.5,14C 171.387,17.6586 172.887,21.4919 174,25.5C 175.487,21.8835 176.82,18.2169 178,14.5C 183.082,13.363 188.249,13.1963 193.5,14C 194.022,14.5613 194.355,15.228 194.5,16C 193.099,20.7144 191.432,25.2144 189.5,29.5 Z M 108.5,37.5 C 110.5,37.5 112.5,37.5 114.5,37.5C 114.5,38.5 114.5,39.5 114.5,40.5C 112.5,40.5 110.5,40.5 108.5,40.5C 108.5,39.5 108.5,38.5 108.5,37.5 Z"/></g>
<g><path style="opacity:0.588" fill="#7a7a7b" d="M 96.5,19.5 C 96.5,20.8333 96.5,22.1667 96.5,23.5C 103.354,23.176 110.021,23.5093 116.5,24.5C 109.5,24.5 102.5,24.5 95.5,24.5C 95.2155,22.5853 95.5489,20.9187 96.5,19.5 Z"/></g>
<g><path style="opacity:0.824" fill="#989899" d="M 145.5,17.5 C 146.924,19.5145 147.59,21.8478 147.5,24.5C 146.076,22.4855 145.41,20.1522 145.5,17.5 Z"/></g>
<g><path style="opacity:1" fill="#f5f5f5" d="M 129.5,24.5 C 129.5,32.8333 129.5,41.1667 129.5,49.5C 125.167,49.5 120.833,49.5 116.5,49.5C 116.5,41.1667 116.5,32.8333 116.5,24.5C 110.021,23.5093 103.354,23.176 96.5,23.5C 96.5,22.1667 96.5,20.8333 96.5,19.5C 97.2899,18.2058 98.2899,17.0391 99.5,16C 107.188,15.1685 114.855,15.3352 122.5,16.5C 124.856,19.1864 127.189,21.853 129.5,24.5 Z"/></g>
<g><path style="opacity:0.999" fill="#f8f8f7" d="M 87.5,23.5 C 87.5,32.1667 87.5,40.8333 87.5,49.5C 83.1667,49.5 78.8333,49.5 74.5,49.5C 74.8261,40.9832 74.4927,32.6499 73.5,24.5C 71.7354,23.5386 69.7354,23.2053 67.5,23.5C 68.4577,16.402 72.4577,13.902 79.5,16C 82.0362,18.705 84.7029,21.205 87.5,23.5 Z"/></g>
<g><path style="opacity:0.706" fill="#979799" d="M 179.5,16.5 C 183.634,15.5151 187.968,15.1818 192.5,15.5C 192.737,16.791 192.404,17.791 191.5,18.5C 187.971,16.5772 183.971,15.9106 179.5,16.5 Z"/></g>
<g><path style="opacity:0.71" fill="#9c9c9e" d="M 168.5,16.5 C 164.029,15.9106 160.029,16.5772 156.5,18.5C 155.596,17.791 155.263,16.791 155.5,15.5C 160.032,15.1818 164.366,15.5151 168.5,16.5 Z"/></g>
<g><path style="opacity:0.71" fill="#98989a" d="M 145.5,17.5 C 141.066,16.2057 136.733,16.2057 132.5,17.5C 131.957,17.44 131.624,17.1067 131.5,16.5C 133.833,16.1667 136.167,15.8333 138.5,15.5C 141.269,15.5286 143.603,16.1952 145.5,17.5 Z"/></g>
<g><path style="opacity:0.722" fill="#a0a0a2" d="M 51.5,2.5 C 51.5,2.83333 51.5,3.16667 51.5,3.5C 51.5,18.8333 51.5,34.1667 51.5,49.5C 55.5,49.5 59.5,49.5 63.5,49.5C 63.8333,49.5 64.1667,49.5 64.5,49.5C 60.03,50.4861 55.3633,50.8195 50.5,50.5C 50.1703,34.3246 50.5036,18.3246 51.5,2.5 Z"/></g>
<g><path style="opacity:0.873" fill="#d9d9d9" d="M 51.5,3.5 C 51.5,3.16667 51.5,2.83333 51.5,2.5C 55.8333,2.5 60.1667,2.5 64.5,2.5C 64.5,18.1667 64.5,33.8333 64.5,49.5C 64.1667,49.5 63.8333,49.5 63.5,49.5C 63.5,34.1667 63.5,18.8333 63.5,3.5C 59.5,3.5 55.5,3.5 51.5,3.5 Z"/></g>
<g><path style="opacity:0.999" fill="#fdfdfd" d="M 51.5,3.5 C 55.5,3.5 59.5,3.5 63.5,3.5C 63.5,18.8333 63.5,34.1667 63.5,49.5C 59.5,49.5 55.5,49.5 51.5,49.5C 51.5,34.1667 51.5,18.8333 51.5,3.5 Z"/></g>
<g><path style="opacity:0.787" fill="#b9b9b9" d="M 401.5,15.5 C 406.167,15.5 410.833,15.5 415.5,15.5C 415.5,27.1667 415.5,38.8333 415.5,50.5C 410.833,50.5 406.167,50.5 401.5,50.5C 401.5,38.8333 401.5,27.1667 401.5,15.5 Z"/></g>
<g><path style="opacity:0.999" fill="#fdfdfd" d="M 402.5,16.5 C 406.5,16.5 410.5,16.5 414.5,16.5C 414.5,27.5 414.5,38.5 414.5,49.5C 410.5,49.5 406.5,49.5 402.5,49.5C 402.5,38.5 402.5,27.5 402.5,16.5 Z"/></g>
<g><path style="opacity:0.693" fill="#919192" d="M 129.5,24.5 C 130.493,32.9839 130.826,41.6506 130.5,50.5C 125.637,50.8195 120.97,50.4861 116.5,49.5C 120.833,49.5 125.167,49.5 129.5,49.5C 129.5,41.1667 129.5,32.8333 129.5,24.5 Z"/></g>
<g><path style="opacity:0.078" fill="#161616" d="M 199.5,13.5 C 207.507,13.3336 215.507,13.5003 223.5,14C 226.667,17.1667 229.833,20.3333 233,23.5C 233.667,32.5 233.667,41.5 233,50.5C 227.259,51.4749 221.425,51.8082 215.5,51.5C 215.557,47.8669 214.557,47.7002 212.5,51C 207.5,51.6667 202.5,51.6667 197.5,51C 189.5,43.6667 189.5,36.3333 197.5,29C 203.167,28.6667 208.833,28.3333 214.5,28C 214.957,27.586 215.291,27.086 215.5,26.5C 208.532,25.503 201.532,25.1697 194.5,25.5C 194.337,23.1432 194.503,20.8098 195,18.5C 196.707,16.9625 198.207,15.2959 199.5,13.5 Z M 209.5,37.5 C 211.5,37.5 213.5,37.5 215.5,37.5C 215.5,38.5 215.5,39.5 215.5,40.5C 213.5,40.5 211.5,40.5 209.5,40.5C 209.5,39.5 209.5,38.5 209.5,37.5 Z"/></g>
<g><path style="opacity:0.909" fill="#c0c0c1" d="M 223.5,17.5 C 215.826,17.3336 208.159,17.5003 200.5,18C 199.313,19.0195 198.313,20.1861 197.5,21.5C 204.389,22.1834 211.222,22.8501 218,23.5C 218.5,32.1603 218.666,40.8269 218.5,49.5C 222.5,49.5 226.5,49.5 230.5,49.5C 226.366,50.4849 222.032,50.8182 217.5,50.5C 217.5,41.8333 217.5,33.1667 217.5,24.5C 210.5,24.5 203.5,24.5 196.5,24.5C 195.822,20.7273 197.156,17.894 200.5,16C 207.833,15.3333 215.167,15.3333 222.5,16C 223.056,16.3826 223.389,16.8826 223.5,17.5 Z"/></g>
<g><path style="opacity:1" fill="#f5f5f5" d="M 223.5,17.5 C 225.814,19.4773 228.147,21.4773 230.5,23.5C 231.821,32.3245 231.821,40.9912 230.5,49.5C 226.5,49.5 222.5,49.5 218.5,49.5C 218.666,40.8269 218.5,32.1603 218,23.5C 211.222,22.8501 204.389,22.1834 197.5,21.5C 198.313,20.1861 199.313,19.0195 200.5,18C 208.159,17.5003 215.826,17.3336 223.5,17.5 Z"/></g>
<g><path style="opacity:0.641" fill="#848484" d="M 446.5,24.5 C 447.493,32.6499 447.826,40.9832 447.5,49.5C 451.833,49.5 456.167,49.5 460.5,49.5C 456.03,50.4861 451.363,50.8195 446.5,50.5C 446.5,41.8333 446.5,33.1667 446.5,24.5 Z"/></g>
<g><path style="opacity:0.627" fill="#7e7e7d" d="M 502.5,24.5 C 503.493,32.9839 503.826,41.6506 503.5,50.5C 498.637,50.8195 493.97,50.4861 489.5,49.5C 493.833,49.5 498.167,49.5 502.5,49.5C 502.5,41.1667 502.5,32.8333 502.5,24.5 Z"/></g>
<g><path style="opacity:0.004" fill="#000000" d="M 507.5,27.5 C 507.5,27.8333 507.5,28.1667 507.5,28.5C 506.83,28.0187 506.83,27.6853 507.5,27.5 Z"/></g>
<g><path style="opacity:0.27" fill="#0e0e0e" d="M 2.5,4.5 C 14.813,5.22863 27.1463,5.72863 39.5,6C 42,8.5 44.5,11 47,13.5C 47.6667,23.5 47.6667,33.5 47,43.5C 44.5,46 42,48.5 39.5,51C 26.9244,51.8214 14.4244,51.6548 2,50.5C 1.18385,35.0923 1.35052,19.759 2.5,4.5 Z M 20.5,17.5 C 23.5,17.5 26.5,17.5 29.5,17.5C 29.5,24.8333 29.5,32.1667 29.5,39.5C 26.5,39.5 23.5,39.5 20.5,39.5C 20.5,32.1667 20.5,24.8333 20.5,17.5 Z"/></g>
<g><path style="opacity:0.375" fill="#222224" d="M 20.5,15.5 C 24.1667,15.5 27.8333,15.5 31.5,15.5C 31.5,24.1667 31.5,32.8333 31.5,41.5C 31.1667,41.5 30.8333,41.5 30.5,41.5C 30.5,33.1667 30.5,24.8333 30.5,16.5C 26.9581,16.8128 23.6248,16.4794 20.5,15.5 Z"/></g>
<g><path style="opacity:0.839" fill="#d0d0d0" d="M 43.5,13.5 C 44.1174,13.6107 44.6174,13.944 45,14.5C 45.8243,24.0092 45.6576,33.3425 44.5,42.5C 44.7819,32.7807 44.4486,23.1141 43.5,13.5 Z"/></g>
<g><path style="opacity:0.736" fill="#939394" d="M 37.5,7.5 C 32.1667,7.5 26.8333,7.5 21.5,7.5C 21.5,9.83333 21.5,12.1667 21.5,14.5C 25.0419,14.1872 28.3752,14.5206 31.5,15.5C 27.8333,15.5 24.1667,15.5 20.5,15.5C 20.5,12.5 20.5,9.5 20.5,6.5C 26.358,6.1778 32.0247,6.51114 37.5,7.5 Z"/></g>
<g><path style="opacity:0.945" fill="#d5d5d5" d="M 17.5,7.5 C 18.8333,21.5 18.8333,35.5 17.5,49.5C 13.1667,49.5 8.83333,49.5 4.5,49.5C 4.5,35.5 4.5,21.5 4.5,7.5C 8.83333,7.5 13.1667,7.5 17.5,7.5 Z"/></g>
<g><path style="opacity:0.621" fill="#777778" d="M 17.5,7.5 C 13.1667,7.5 8.83333,7.5 4.5,7.5C 4.5,21.5 4.5,35.5 4.5,49.5C 8.83333,49.5 13.1667,49.5 17.5,49.5C 13.03,50.4861 8.36329,50.8195 3.5,50.5C 3.5,35.8333 3.5,21.1667 3.5,6.5C 8.36329,6.18054 13.03,6.51388 17.5,7.5 Z"/></g>
<g><path style="opacity:0.999" fill="#f7f7f7" d="M 37.5,7.5 C 39.8333,9.16667 41.8333,11.1667 43.5,13.5C 44.4486,23.1141 44.7819,32.7807 44.5,42.5C 42.5,45.1667 40.1667,47.5 37.5,49.5C 32.1667,49.5 26.8333,49.5 21.5,49.5C 21.5,47.1667 21.5,44.8333 21.5,42.5C 25.0419,42.8128 28.3752,42.4794 31.5,41.5C 31.5,32.8333 31.5,24.1667 31.5,15.5C 28.3752,14.5206 25.0419,14.1872 21.5,14.5C 21.5,12.1667 21.5,9.83333 21.5,7.5C 26.8333,7.5 32.1667,7.5 37.5,7.5 Z"/></g>
<g><path style="opacity:1" fill="#fefefe" d="M 5.5,8.5 C 9.16667,8.5 12.8333,8.5 16.5,8.5C 16.5,21.8333 16.5,35.1667 16.5,48.5C 12.8333,48.5 9.16667,48.5 5.5,48.5C 5.5,35.1667 5.5,21.8333 5.5,8.5 Z"/></g>
<g><path style="opacity:0.957" fill="#cbcbcc" d="M 179.5,16.5 C 178.258,22.295 177.592,27.9616 177.5,33.5C 176.463,32.0697 175.796,30.403 175.5,28.5C 176.715,24.3685 178.049,20.3685 179.5,16.5 Z"/></g>
<g><path style="opacity:0.079" fill="#161617" d="M 269.5,5.5 C 275.5,5.5 281.5,5.5 287.5,5.5C 289.26,12.3566 291.594,19.0233 294.5,25.5C 297.134,19.096 299.468,12.596 301.5,6C 307.157,5.50058 312.824,5.33391 318.5,5.5C 314.584,20.4145 309.751,35.0812 304,49.5C 303.5,50 303,50.5 302.5,51C 296.472,51.8303 290.472,51.6636 284.5,50.5C 278.883,35.6496 273.883,20.6496 269.5,5.5 Z"/></g>
<g><path style="opacity:0.965" fill="#b8b8b8" d="M 302.5,9.5 C 302.196,12.5219 301.696,15.5219 301,18.5C 300.292,19.3805 299.458,20.0472 298.5,20.5C 299.462,16.6052 300.796,12.9385 302.5,9.5 Z"/></g>
<g><path style="opacity:0.999" fill="#f2f2f2" d="M 302.5,7.5 C 307.363,7.18054 312.03,7.51388 316.5,8.5C 311.841,21.1541 307.175,33.8208 302.5,46.5C 300.395,41.9537 298.561,37.2871 297,32.5C 296.331,28.3511 296.831,24.3511 298.5,20.5C 299.458,20.0472 300.292,19.3805 301,18.5C 301.696,15.5219 302.196,12.5219 302.5,9.5C 302.5,8.83333 302.5,8.16667 302.5,7.5 Z"/></g>
<g><path style="opacity:1" fill="#f5f5f5" d="M 288.5,15.5 C 290.904,21.7129 292.904,28.0462 294.5,34.5C 294.77,38.3576 296.103,41.691 298.5,44.5C 299.234,45.7079 299.567,47.0413 299.5,48.5C 295.366,49.4849 291.032,49.8182 286.5,49.5C 281.533,36.3109 276.866,22.9775 272.5,9.5C 276.311,8.35472 280.311,8.18806 284.5,9C 285.219,11.6171 286.553,13.7838 288.5,15.5 Z"/></g>
<g><path style="opacity:0.894" fill="#cccccd" d="M 288.5,15.5 C 286.553,13.7838 285.219,11.6171 284.5,9C 280.311,8.18806 276.311,8.35472 272.5,9.5C 271.957,9.44001 271.624,9.10667 271.5,8.5C 276.131,7.33836 280.798,7.17169 285.5,8C 286.991,10.3078 287.991,12.8078 288.5,15.5 Z"/></g>
<g><path style="opacity:0.553" fill="#5c5c5e" d="M 302.5,7.5 C 307.348,6.18635 312.348,6.18635 317.5,7.5C 317.376,8.10667 317.043,8.44001 316.5,8.5C 312.03,7.51388 307.363,7.18054 302.5,7.5 Z"/></g>
<g><path style="opacity:0.753" fill="#bababa" d="M 326.5,49.5 C 328.167,49.5 329.833,49.5 331.5,49.5C 331.5,38.5 331.5,27.5 331.5,16.5C 330.127,16.3433 328.793,16.51 327.5,17C 325.886,19.1267 323.886,20.6267 321.5,21.5C 323.766,16.8947 327.433,14.8947 332.5,15.5C 332.5,27.1667 332.5,38.8333 332.5,50.5C 330.265,50.7947 328.265,50.4614 326.5,49.5 Z"/></g>
<g><path style="opacity:0.843" fill="#d3d3d3" d="M 486.5,35.5 C 484.167,35.5 481.833,35.5 479.5,35.5C 481.265,34.5386 483.265,34.2053 485.5,34.5C 485.5,33.5 485.5,32.5 485.5,31.5C 480.821,31.3342 476.155,31.5008 471.5,32C 470.529,33.4813 469.196,34.3146 467.5,34.5C 468.29,33.2058 469.29,32.0391 470.5,31C 475.823,30.5006 481.156,30.334 486.5,30.5C 486.5,32.1667 486.5,33.8333 486.5,35.5 Z"/></g>
<g><path style="opacity:1" fill="#ececec" d="M 97.5,30.5 C 102.833,30.5 108.167,30.5 113.5,30.5C 113.5,32.1667 113.5,33.8333 113.5,35.5C 111.167,35.5 108.833,35.5 106.5,35.5C 106.5,37.8333 106.5,40.1667 106.5,42.5C 108.833,42.5 111.167,42.5 113.5,42.5C 113.731,45.7845 112.397,48.2845 109.5,50C 100.007,52.7993 94.3402,49.4659 92.5,40C 92.6667,38.5 92.8333,37 93,35.5C 94.7073,33.9625 96.2073,32.2959 97.5,30.5 Z"/></g>
<g><path style="opacity:1" fill="#ececec" d="M 198.5,30.5 C 203.833,30.5 209.167,30.5 214.5,30.5C 214.5,32.1667 214.5,33.8333 214.5,35.5C 212.167,35.5 209.833,35.5 207.5,35.5C 207.5,37.8333 207.5,40.1667 207.5,42.5C 209.833,42.5 212.167,42.5 214.5,42.5C 214.731,45.7845 213.397,48.2845 210.5,50C 201.007,52.7993 195.34,49.4659 193.5,40C 193.667,38.5 193.833,37 194,35.5C 195.707,33.9625 197.207,32.2959 198.5,30.5 Z"/></g>
<g><path style="opacity:0.772" fill="#c2c2c2" d="M 395.5,21.5 C 396.117,21.6107 396.617,21.944 397,22.5C 397.498,25.8168 397.665,29.1501 397.5,32.5C 392.833,32.5 388.167,32.5 383.5,32.5C 383.5,29.8333 383.5,27.1667 383.5,24.5C 384.468,26.6074 384.802,28.9407 384.5,31.5C 388.5,31.5 392.5,31.5 396.5,31.5C 396.658,28.0977 396.324,24.7644 395.5,21.5 Z"/></g>
<g><path style="opacity:0.999" fill="#f0f0f0" d="M 479.5,35.5 C 478.167,37.8333 478.167,40.1667 479.5,42.5C 481.833,42.5 484.167,42.5 486.5,42.5C 486.731,45.7845 485.397,48.2845 482.5,50C 475.586,52.0586 470.086,50.2253 466,44.5C 465.333,41.5 465.333,38.5 466,35.5C 466.383,34.944 466.883,34.6107 467.5,34.5C 469.196,34.3146 470.529,33.4813 471.5,32C 476.155,31.5008 480.821,31.3342 485.5,31.5C 485.5,32.5 485.5,33.5 485.5,34.5C 483.265,34.2053 481.265,34.5386 479.5,35.5 Z"/></g>
<g><path style="opacity:0.973" fill="#bdbdbe" d="M 155.5,22.5 C 156.167,24.8333 156.833,27.1667 157.5,29.5C 156.21,28.9423 155.377,27.9423 155,26.5C 153.477,28.5692 152.643,30.9026 152.5,33.5C 151.167,33.5 149.833,33.5 148.5,33.5C 148.296,30.4824 147.963,27.4824 147.5,24.5C 148.74,27.024 149.907,29.6907 151,32.5C 151.852,28.7359 153.352,25.4026 155.5,22.5 Z"/></g>
<g><path style="opacity:0.004" fill="#000000" d="M 314.5,35.5 C 315.833,36.1667 315.833,36.1667 314.5,35.5 Z"/></g>
<g><path style="opacity:0.648" fill="#828282" d="M 335.5,30.5 C 335.5,32.1667 335.5,33.8333 335.5,35.5C 342.167,35.5 348.833,35.5 355.5,35.5C 348.687,36.4912 341.687,36.8245 334.5,36.5C 334.205,34.2646 334.539,32.2646 335.5,30.5 Z"/></g>
<g><path style="opacity:0.087" fill="#1a1a1a" d="M 156.5,19.5 C 160.006,29.3528 163.34,39.3528 166.5,49.5C 170.634,50.4849 174.968,50.8182 179.5,50.5C 179.737,49.209 179.404,48.209 178.5,47.5C 177.088,41.4436 175.421,35.4436 173.5,29.5C 174.167,29.1667 174.833,28.8333 175.5,28.5C 175.796,30.403 176.463,32.0697 177.5,33.5C 178.232,37.6957 179.565,41.6957 181.5,45.5C 184.215,38.7532 186.882,32.0865 189.5,25.5C 189.5,26.8333 189.5,28.1667 189.5,29.5C 187.662,36.8379 184.995,43.8379 181.5,50.5C 176.198,51.6628 170.864,51.8295 165.5,51C 164.191,47.4009 162.691,43.9009 161,40.5C 160.1,43.7177 158.933,46.7177 157.5,49.5C 157.167,49.5 156.833,49.5 156.5,49.5C 157.288,45.1318 158.288,40.7985 159.5,36.5C 159.228,34.0222 158.562,31.6889 157.5,29.5C 156.833,27.1667 156.167,24.8333 155.5,22.5C 156.404,21.791 156.737,20.791 156.5,19.5 Z"/></g>
<g><path style="opacity:0.941" fill="#b3b3b3" d="M 294.5,34.5 C 296.4,37.5178 297.733,40.8512 298.5,44.5C 296.103,41.691 294.77,38.3576 294.5,34.5 Z"/></g>
<g><path style="opacity:0.643" fill="#7e7e7e" d="M 479.5,35.5 C 481.833,35.5 484.167,35.5 486.5,35.5C 484.393,36.4682 482.059,36.8016 479.5,36.5C 479.5,38.5 479.5,40.5 479.5,42.5C 478.167,40.1667 478.167,37.8333 479.5,35.5 Z"/></g>
<g><path style="opacity:0.625" fill="#808082" d="M 87.5,23.5 C 88.4933,32.3178 88.8266,41.3178 88.5,50.5C 83.5,50.5 78.5,50.5 73.5,50.5C 73.5,41.8333 73.5,33.1667 73.5,24.5C 74.4927,32.6499 74.8261,40.9832 74.5,49.5C 78.8333,49.5 83.1667,49.5 87.5,49.5C 87.5,40.8333 87.5,32.1667 87.5,23.5 Z"/></g>
<g><path style="opacity:0.995" fill="#f8f8f8" d="M 335.5,43.5 C 341.509,43.3338 347.509,43.5005 353.5,44C 352.78,46.1223 351.613,46.6223 350,45.5C 348.489,46.564 348.323,47.8974 349.5,49.5C 344.833,49.5 340.167,49.5 335.5,49.5C 335.5,47.5 335.5,45.5 335.5,43.5 Z"/></g>
<g><path style="opacity:0.588" fill="#7c7c7d" d="M 250.5,41.5 C 252.833,41.5 255.167,41.5 257.5,41.5C 257.5,44.5 257.5,47.5 257.5,50.5C 252.968,50.8182 248.634,50.4849 244.5,49.5C 248.5,49.5 252.5,49.5 256.5,49.5C 256.5,47.1667 256.5,44.8333 256.5,42.5C 254.265,42.7947 252.265,42.4614 250.5,41.5 Z"/></g>
<g><path style="opacity:0.996" fill="#cccccc" d="M 335.5,43.5 C 335.5,43.1667 335.5,42.8333 335.5,42.5C 341.833,42.5 348.167,42.5 354.5,42.5C 354.851,45.8116 353.518,48.145 350.5,49.5C 350.167,49.5 349.833,49.5 349.5,49.5C 348.323,47.8974 348.489,46.564 350,45.5C 351.613,46.6223 352.78,46.1223 353.5,44C 347.509,43.5005 341.509,43.3338 335.5,43.5 Z"/></g>
<g><path style="opacity:0.627" fill="#8b8b8d" d="M 30.5,41.5 C 30.8333,41.5 31.1667,41.5 31.5,41.5C 28.3752,42.4794 25.0419,42.8128 21.5,42.5C 21.5,44.8333 21.5,47.1667 21.5,49.5C 26.8333,49.5 32.1667,49.5 37.5,49.5C 32.0247,50.4889 26.358,50.8222 20.5,50.5C 20.5,47.5 20.5,44.5 20.5,41.5C 23.8333,41.5 27.1667,41.5 30.5,41.5 Z"/></g>
<g><path style="opacity:0.635" fill="#868689" d="M 178.5,47.5 C 179.404,48.209 179.737,49.209 179.5,50.5C 174.968,50.8182 170.634,50.4849 166.5,49.5C 170.971,50.0894 174.971,49.4228 178.5,47.5 Z"/></g>
<g><path style="opacity:0.633" fill="#808082" d="M 299.5,48.5 C 300.043,48.56 300.376,48.8933 300.5,49.5C 295.682,50.8124 291.015,50.8124 286.5,49.5C 291.032,49.8182 295.366,49.4849 299.5,48.5 Z"/></g>
<g><path style="opacity:0.62" fill="#767676" d="M 335.5,42.5 C 335.5,42.8333 335.5,43.1667 335.5,43.5C 335.5,45.5 335.5,47.5 335.5,49.5C 340.167,49.5 344.833,49.5 349.5,49.5C 349.833,49.5 350.167,49.5 350.5,49.5C 345.36,50.4881 340.026,50.8214 334.5,50.5C 334.194,47.6146 334.527,44.9479 335.5,42.5 Z"/></g>
<g><path style="opacity:0.004" fill="#000000" d="M 149.5,54.5 C 150.833,55.1667 150.833,55.1667 149.5,54.5 Z"/></g>
</svg>
