<svg version="1.1" id="Layer_1" xmlns="http://www.w3.org/2000/svg" xmlns:xlink="http://www.w3.org/1999/xlink" x="0px" y="0px"
	 width="100%" viewBox="0 0 365 365" enable-background="new 0 0 365 365" xml:space="preserve">
<path fill="#000000" opacity="1.000000" stroke="none" 
	d="
M235.000000,366.000000 
	C156.693314,366.000000 78.886635,366.000000 1.039979,366.000000 
	C1.039979,244.401657 1.039979,122.803299 1.039979,1.102472 
	C122.556618,1.102472 244.113342,1.102472 365.835022,1.102472 
	C365.835022,122.666481 365.835022,244.333221 365.835022,366.000000 
	C322.470062,366.000000 278.985016,366.000000 235.000000,366.000000 
M227.751709,126.206139 
	C227.861496,125.792809 227.971298,125.379478 228.020462,124.959023 
	C228.020462,124.959023 228.007980,125.018806 228.923721,124.979347 
	C232.286789,124.979347 235.649857,124.979347 238.949493,124.979347 
	C239.538147,115.472382 237.569977,113.629448 227.509964,114.096985 
	C227.296402,114.138969 227.082840,114.180946 226.123810,114.090179 
	C223.826462,115.634033 220.037155,116.822365 219.565598,118.801300 
	C218.767654,122.149811 219.449036,126.241188 220.744400,129.534058 
	C221.395538,131.189285 224.765198,131.775101 227.498795,132.962967 
	C227.696426,132.922714 227.894043,132.882462 228.956604,132.991852 
	C232.722305,132.669098 237.656403,134.717056 239.067001,127.974014 
	C234.955566,127.974014 231.478500,127.974014 227.985779,127.380150 
	C227.891739,127.205879 227.797684,127.031609 227.751709,126.206139 
M260.465576,116.728859 
	C258.168182,113.167717 255.340546,112.945877 251.355850,115.627541 
	C248.455185,114.929932 245.554504,114.232315 242.382263,113.469383 
	C242.382263,120.697861 242.382263,126.755020 242.382263,132.842194 
	C244.954575,132.842194 247.224197,132.842194 249.919708,132.842194 
	C249.919708,128.411209 249.919708,124.158691 249.919708,119.906174 
	C250.408234,119.610741 250.896759,119.315308 251.385269,119.019875 
	C252.586273,120.399254 253.787262,121.778633 255.823227,123.407845 
	C257.552856,123.316528 259.282501,123.225212 262.013458,122.856018 
	C262.639221,123.777695 263.580170,124.622543 263.827332,125.636513 
	C264.400330,127.986954 264.637939,130.419128 265.908722,132.999893 
	C267.845459,132.999893 269.782196,132.999893 271.964478,132.999893 
	C271.964478,128.400375 271.964478,124.152573 272.507904,119.137924 
	C273.677094,119.411064 274.846252,119.684196 275.987091,120.894035 
	C275.987091,124.915123 275.987091,128.936218 275.987091,132.810318 
	C278.754272,132.810318 280.874786,132.810318 283.767609,132.782745 
	C283.992065,129.207932 284.089386,125.617462 284.526306,122.068802 
	C284.642059,121.128914 285.802887,120.317703 286.483856,119.447403 
	C287.000885,120.286636 287.923676,121.106834 287.964111,121.968422 
	C288.132355,125.555542 288.034912,129.155121 288.034912,132.637909 
	C290.914642,132.637909 293.270905,132.637909 295.796387,132.637909 
	C295.796387,128.291809 295.841187,124.332153 295.785522,120.373917 
	C295.708862,114.924217 291.256134,112.401939 286.282867,114.853691 
	C285.303223,115.336632 284.095551,115.356972 282.346924,115.061951 
	C279.598999,115.194794 276.851105,115.327637 273.351685,115.593338 
	C272.573364,115.134850 271.795074,114.676361 270.167633,114.065178 
	C268.450745,114.134422 266.733826,114.203667 264.335052,114.284096 
	C262.973175,115.007874 265.577209,120.178970 260.465576,116.728859 
M57.505096,108.964531 
	C57.333031,108.977806 57.160965,108.991074 56.071751,108.999290 
	C53.657124,108.999290 51.242500,108.999290 48.940956,108.999290 
	C48.940956,117.354713 48.940956,124.964050 48.940956,132.811066 
	C54.758663,132.811066 60.375984,132.811066 66.592125,132.872574 
	C67.029701,132.238129 67.467285,131.603683 68.375000,130.745438 
	C68.573524,130.466690 68.772049,130.187943 69.554428,129.836304 
	C69.929947,129.220230 70.305473,128.604156 70.905762,127.084167 
	C70.823235,122.726952 70.740707,118.369736 70.732460,113.444908 
	C70.151955,113.042137 69.571442,112.639366 68.457191,111.677429 
	C66.281998,107.105873 62.262211,109.589020 58.522171,109.028870 
	C58.355103,109.022018 58.188034,109.015167 57.505096,108.964531 
M149.851959,114.517334 
	C149.573105,114.427177 149.294250,114.337013 148.154800,114.057922 
	C146.208221,114.057922 144.261642,114.057922 142.315063,114.057922 
	C142.583160,114.454117 142.851242,114.850311 143.119339,115.246506 
	C141.779114,116.745956 140.438904,118.245415 139.063904,119.049858 
	C138.915634,118.370186 138.767380,117.690514 138.892288,116.426567 
	C138.259018,115.691864 137.625763,114.957161 136.185043,114.056877 
	C131.371307,114.039162 131.371307,114.039162 130.812790,116.762779 
	C129.845734,117.818565 128.878677,118.874352 127.832787,120.016212 
	C127.130745,118.889572 126.656982,118.129280 126.142654,116.634247 
	C124.925728,112.342690 121.599396,114.416031 118.427513,114.149269 
	C118.643524,115.349892 118.859535,116.550522 119.145058,118.542023 
	C119.481102,119.788734 119.822609,121.034012 120.152321,122.282394 
	C122.916908,132.750061 123.397285,133.237549 130.884384,132.786697 
	C131.576385,130.610428 132.307022,128.312622 133.509079,126.031769 
	C133.509079,126.031769 133.980286,126.054146 134.095657,126.534851 
	C134.095657,126.534851 134.285019,126.991508 134.145844,127.554176 
	C134.466858,128.023071 134.787857,128.491959 135.159363,129.737289 
	C135.992828,133.944794 139.111984,133.132355 142.720444,132.954163 
	C144.038284,130.299255 145.356125,127.644356 146.874573,124.248825 
	C147.793030,121.156364 148.711487,118.063911 149.851959,114.517334 
M308.819397,121.386726 
	C307.010132,121.396370 305.183411,121.248779 303.395142,121.447464 
	C299.321289,121.900116 296.596130,126.185463 298.205261,129.417419 
	C300.337555,133.700134 306.493042,134.359085 310.040039,131.353119 
	C310.406555,131.864868 310.773102,132.376633 312.027557,132.999298 
	C314.279266,132.999298 316.531006,132.999298 318.986725,132.999298 
	C318.986725,129.666626 318.790405,126.849983 319.034302,124.071999 
	C319.371490,120.231209 318.996521,116.212013 315.005798,115.179726 
	C310.877655,114.111885 306.313660,114.471558 301.970062,114.722359 
	C301.151093,114.769653 300.471863,117.236633 299.315521,119.336411 
	C302.750854,119.336411 304.910309,119.153053 307.018005,119.404129 
	C308.314056,119.558517 309.530975,120.376984 310.166962,121.019470 
	C309.996796,121.141632 309.826599,121.263794 308.819397,121.386726 
M152.579987,115.212189 
	C152.463577,115.329735 152.235825,115.537193 152.247314,115.551437 
	C152.439819,115.789818 152.662216,116.004059 152.724915,116.821991 
	C152.811234,117.215485 152.897552,117.608971 153.051590,118.799866 
	C156.345078,119.202972 159.638580,119.606087 162.932068,120.009201 
	C162.904953,120.447708 162.877838,120.886223 162.850723,121.324730 
	C160.762558,121.324730 158.671295,121.251732 156.586929,121.340393 
	C152.620163,121.509148 150.602570,123.578598 150.711273,127.614540 
	C150.817200,131.547913 152.920090,133.497849 156.730270,132.981430 
	C159.034134,132.669174 161.230835,131.566193 163.351227,131.650665 
	C165.731552,132.235733 168.111877,132.820801 170.916031,133.510056 
	C170.916031,128.310959 171.396439,124.122269 170.720627,120.129257 
	C170.363525,118.019211 168.149963,114.786774 166.500763,114.609604 
	C162.092926,114.136055 157.537109,115.040161 152.579987,115.212189 
M108.244644,121.605530 
	C106.085876,121.529922 103.925468,121.361412 101.768723,121.399673 
	C98.211220,121.462776 96.125343,123.347694 96.148315,126.916733 
	C96.171173,130.467484 98.134026,132.943359 101.753799,132.916595 
	C104.162453,132.898758 106.562653,131.737686 109.010674,131.940323 
	C111.501465,132.400711 113.992256,132.861084 116.866402,133.392334 
	C116.866402,129.439499 116.554024,126.433090 116.940910,123.519539 
	C117.497002,119.331787 115.869492,115.721924 112.345589,114.789330 
	C108.447395,113.757698 104.017410,114.582672 99.845352,114.922440 
	C99.292305,114.967484 98.894341,116.916748 98.409424,118.709435 
	C101.949425,119.110313 105.489418,119.511185 108.992691,120.528427 
	C109.010849,120.733437 109.029007,120.938454 108.244644,121.605530 
M83.110359,115.301628 
	C82.694626,114.412460 81.966637,113.541718 81.912903,112.631195 
	C81.509842,105.800575 81.099266,105.467812 74.333206,107.142143 
	C74.333206,115.722931 74.333206,124.303726 74.333206,132.796875 
	C76.919006,132.796875 79.192017,132.796875 81.866730,132.796875 
	C81.866730,129.441422 81.678474,126.295547 81.956627,123.191475 
	C82.072716,121.895920 83.180817,120.689270 83.837875,119.442200 
	C84.466713,120.710144 85.399971,121.918236 85.663414,123.258034 
	C86.283920,126.413826 86.584946,129.632431 87.910057,132.988602 
	C89.831207,132.988602 91.752350,132.988602 94.050140,132.988602 
	C94.050140,128.693436 94.180420,124.771935 94.018250,120.862556 
	C93.799118,115.580055 89.068680,112.978371 83.110359,115.301628 
M209.854248,110.101967 
	C208.851852,113.432930 207.849442,116.763901 206.419998,121.513954 
	C203.065979,114.969727 204.136185,104.931427 193.328094,109.702942 
	C196.033554,117.170715 198.846481,124.935158 202.133652,134.008621 
	C205.225677,132.737106 210.120682,132.276199 211.292694,129.944199 
	C214.499619,123.563240 216.138962,116.394455 218.619720,108.868088 
	C215.361069,109.044174 212.772217,109.184067 209.854248,110.101967 
M181.870804,110.885620 
	C182.303024,104.232872 177.684967,106.937958 174.697098,106.495064 
	C174.400543,107.220230 174.175232,107.517769 174.171478,107.818085 
	C174.107178,112.971535 174.045502,118.125259 174.032791,123.279053 
	C174.010849,132.168182 176.047852,133.886978 186.290131,132.329407 
	C180.317139,126.155571 182.079132,118.836578 181.870804,110.885620 
z"/>
<path fill="#FDFDFD" opacity="1.000000" stroke="none" 
	d="
M70.658180,114.012520 
	C70.740707,118.369736 70.823235,122.726952 70.507401,127.585075 
	C69.729546,128.693726 69.350060,129.301453 68.970581,129.909195 
	C68.772049,130.187943 68.573524,130.466690 67.841812,130.896759 
	C66.870178,131.635742 66.431740,132.223404 65.993301,132.811066 
	C60.375984,132.811066 54.758663,132.811066 48.940956,132.811066 
	C48.940956,124.964050 48.940956,117.354713 48.940956,108.999290 
	C51.242500,108.999290 53.657124,108.999290 56.643875,109.458824 
	C57.215996,115.847458 57.215996,121.776550 57.215996,127.929756 
	C59.316448,127.826797 61.186646,127.735123 62.885559,127.651848 
	C62.885559,122.879997 62.885559,118.644302 62.885559,114.463722 
	C60.970131,114.206810 59.409634,113.997498 57.727249,113.771843 
	C57.838093,112.298416 57.924553,111.149086 58.214321,109.921341 
	C58.676804,109.690163 58.868492,109.476761 58.992695,109.202744 
	C62.262211,109.589020 66.281998,107.105873 68.754639,112.231087 
	C69.587448,113.194000 70.122818,113.603256 70.658180,114.012520 
z"/>
<path fill="#F0F0F0" opacity="1.000000" stroke="none" 
	d="
M210.018814,109.712959 
	C212.772217,109.184067 215.361069,109.044174 218.619720,108.868088 
	C216.138962,116.394455 214.499619,123.563240 211.292694,129.944199 
	C210.120682,132.276199 205.225677,132.737106 202.133652,134.008621 
	C198.846481,124.935158 196.033554,117.170715 193.328094,109.702942 
	C204.136185,104.931427 203.065979,114.969727 206.419998,121.513954 
	C207.849442,116.763901 208.851852,113.432930 210.018814,109.712959 
z"/>
<path fill="#F6F6F6" opacity="1.000000" stroke="none" 
	d="
M141.990784,132.847778 
	C139.111984,133.132355 135.992828,133.944794 135.341461,129.188324 
	C135.110703,128.090073 134.697861,127.540787 134.285019,126.991508 
	C134.285019,126.991508 134.095657,126.534851 134.015411,125.948784 
	C133.299988,124.075974 132.664795,122.789230 132.029617,121.502487 
	C131.605103,121.734985 131.180588,121.967491 130.756073,122.199989 
	C131.516602,123.471603 132.277130,124.743210 133.037659,126.014824 
	C132.307022,128.312622 131.576385,130.610428 130.884384,132.786697 
	C123.397285,133.237549 122.916908,132.750061 120.152321,122.282394 
	C119.822609,121.034012 119.481102,119.788734 119.100655,117.798508 
	C119.040367,116.126648 119.024490,115.198296 119.008614,114.269951 
	C121.599396,114.416031 124.925728,112.342690 126.117264,117.378395 
	C126.656326,119.972359 127.220764,121.822174 127.785210,123.671997 
	C128.299469,123.687187 128.813736,123.702377 129.328003,123.717567 
	C129.872650,121.140640 130.417313,118.563713 130.961975,115.986786 
	C131.371307,114.039162 131.371307,114.039162 136.590393,114.450211 
	C137.536865,115.565971 138.077988,116.288406 138.619110,117.010841 
	C138.767380,117.690514 138.915634,118.370186 139.050369,119.765961 
	C139.355789,121.647812 139.674728,122.813553 140.031876,124.354622 
	C140.710312,127.435890 141.350540,130.141830 141.990784,132.847778 
z"/>
<path fill="#EAEAEA" opacity="1.000000" stroke="none" 
	d="
M87.015228,132.825623 
	C86.584946,129.632431 86.283920,126.413826 85.663414,123.258034 
	C85.399971,121.918236 84.466713,120.710144 83.837868,119.442200 
	C83.180817,120.689270 82.072716,121.895920 81.956627,123.191475 
	C81.678474,126.295547 81.866730,129.441422 81.866730,132.796875 
	C79.192017,132.796875 76.919006,132.796875 74.333206,132.796875 
	C74.333206,124.303726 74.333206,115.722931 74.336609,107.140556 
	C81.099266,105.467812 81.509842,105.800575 81.912903,112.631195 
	C81.966637,113.541718 82.694626,114.412460 83.587685,115.639328 
	C87.829826,118.678444 86.956009,122.687630 87.001762,126.431267 
	C87.027802,128.562454 87.012115,130.694153 87.015228,132.825623 
z"/>
<path fill="#EAEAEA" opacity="1.000000" stroke="none" 
	d="
M181.871124,111.346558 
	C182.079132,118.836578 180.317139,126.155571 186.290131,132.329407 
	C176.047852,133.886978 174.010849,132.168182 174.032791,123.279053 
	C174.045502,118.125259 174.107178,112.971535 174.171478,107.818085 
	C174.175232,107.517769 174.400543,107.220230 174.697098,106.495064 
	C177.684967,106.937958 182.303024,104.232872 181.871124,111.346558 
z"/>
<path fill="#F6F6F6" opacity="1.000000" stroke="none" 
	d="
M310.783447,120.897278 
	C309.530975,120.376984 308.314056,119.558517 307.018005,119.404129 
	C304.910309,119.153053 302.750854,119.336411 299.315521,119.336411 
	C300.471863,117.236633 301.151093,114.769653 301.970062,114.722359 
	C306.313660,114.471558 310.877655,114.111885 315.005798,115.179726 
	C318.996521,116.212013 319.371490,120.231209 319.034302,124.071999 
	C318.790405,126.849983 318.986725,129.666626 318.986725,132.999298 
	C316.531006,132.999298 314.279266,132.999298 311.550140,132.489471 
	C310.976318,128.285507 310.879883,124.591393 310.783447,120.897278 
z"/>
<path fill="#F0F0F0" opacity="1.000000" stroke="none" 
	d="
M282.993042,115.590660 
	C284.095551,115.356972 285.303223,115.336632 286.282867,114.853691 
	C291.256134,112.401939 295.708862,114.924217 295.785522,120.373917 
	C295.841187,124.332153 295.796387,128.291809 295.796387,132.637909 
	C293.270905,132.637909 290.914642,132.637909 288.034912,132.637909 
	C288.034912,129.155121 288.132355,125.555542 287.964111,121.968422 
	C287.923676,121.106834 287.000885,120.286636 286.483856,119.447403 
	C285.802887,120.317703 284.642059,121.128914 284.526306,122.068802 
	C284.089386,125.617462 283.992065,129.207932 283.380188,132.341339 
	C282.992889,126.463509 282.992981,121.027084 282.993042,115.590660 
z"/>
<path fill="#F0F0F0" opacity="1.000000" stroke="none" 
	d="
M98.424545,117.984116 
	C98.894341,116.916748 99.292305,114.967484 99.845352,114.922440 
	C104.017410,114.582672 108.447395,113.757698 112.345589,114.789330 
	C115.869492,115.721924 117.497002,119.331787 116.940910,123.519539 
	C116.554024,126.433090 116.866402,129.439499 116.866402,133.392334 
	C113.992256,132.861084 111.501465,132.400711 108.998489,131.153503 
	C109.006599,127.292267 109.026886,124.217873 109.047173,121.143471 
	C109.029007,120.938454 109.010849,120.733437 108.919670,119.835968 
	C105.372612,118.757050 101.898582,118.370583 98.424545,117.984116 
z"/>
<path fill="#DEDEDE" opacity="1.000000" stroke="none" 
	d="
M163.475677,130.818497 
	C161.230835,131.566193 159.034134,132.669174 156.730270,132.981430 
	C152.920090,133.497849 150.817200,131.547913 150.711273,127.614540 
	C150.602570,123.578598 152.620163,121.509148 156.586929,121.340393 
	C158.671295,121.251732 160.762558,121.324730 162.850723,121.324730 
	C162.877838,120.886223 162.904953,120.447708 162.932068,120.009201 
	C159.638580,119.606087 156.345078,119.202972 153.480621,118.402206 
	C156.371918,118.010063 158.874146,117.761650 161.277847,118.139641 
	C162.314270,118.302620 163.900604,119.731300 163.937531,120.637932 
	C164.075287,124.019569 163.674438,127.423149 163.475677,130.818497 
z"/>
<path fill="#EAEAEA" opacity="1.000000" stroke="none" 
	d="
M254.988251,123.158020 
	C253.787262,121.778633 252.586273,120.399254 251.385269,119.019875 
	C250.896759,119.315308 250.408234,119.610741 249.919708,119.906174 
	C249.919708,124.158691 249.919708,128.411209 249.919708,132.842194 
	C247.224197,132.842194 244.954575,132.842194 242.382263,132.842194 
	C242.382263,126.755020 242.382263,120.697861 242.382263,113.469383 
	C245.554504,114.232315 248.455185,114.929932 251.724762,115.860245 
	C253.058548,118.447968 254.023392,120.802994 254.988251,123.158020 
z"/>
<path fill="#F6F6F6" opacity="1.000000" stroke="none" 
	d="
M163.413452,131.234589 
	C163.674438,127.423149 164.075287,124.019569 163.937531,120.637932 
	C163.900604,119.731300 162.314270,118.302620 161.277847,118.139641 
	C158.874146,117.761650 156.371918,118.010063 153.446747,118.003510 
	C152.897552,117.608971 152.811234,117.215485 152.889267,116.325317 
	C153.053619,115.828636 153.040085,115.396828 153.040085,115.396828 
	C157.537109,115.040161 162.092926,114.136055 166.500763,114.609604 
	C168.149963,114.786774 170.363525,118.019211 170.720627,120.129257 
	C171.396439,124.122269 170.916031,128.310959 170.916031,133.510056 
	C168.111877,132.820801 165.731552,132.235733 163.413452,131.234589 
z"/>
<path fill="#F6F6F6" opacity="1.000000" stroke="none" 
	d="
M282.669983,115.326309 
	C282.992981,121.027084 282.992889,126.463509 282.994080,132.355133 
	C280.874786,132.810318 278.754272,132.810318 275.987091,132.810318 
	C275.987091,128.936218 275.987091,124.915123 275.975525,120.101074 
	C275.343689,118.025566 274.723450,116.743027 274.103180,115.460480 
	C276.851105,115.327637 279.598999,115.194794 282.669983,115.326309 
z"/>
<path fill="#FDFDFD" opacity="1.000000" stroke="none" 
	d="
M87.462646,132.907104 
	C87.012115,130.694153 87.027802,128.562454 87.001762,126.431267 
	C86.956009,122.687630 87.829826,118.678444 84.043060,115.599503 
	C89.068680,112.978371 93.799118,115.580055 94.018250,120.862556 
	C94.180420,124.771935 94.050140,128.693436 94.050140,132.988602 
	C91.752350,132.988602 89.831207,132.988602 87.462646,132.907104 
z"/>
<path fill="#EAEAEA" opacity="1.000000" stroke="none" 
	d="
M108.645905,121.374496 
	C109.026886,124.217873 109.006599,127.292267 108.976471,130.727478 
	C106.562653,131.737686 104.162453,132.898758 101.753799,132.916595 
	C98.134026,132.943359 96.171173,130.467484 96.148315,126.916733 
	C96.125343,123.347694 98.211220,121.462776 101.768723,121.399673 
	C103.925468,121.361412 106.085876,121.529922 108.645905,121.374496 
z"/>
<path fill="#F0F0F0" opacity="1.000000" stroke="none" 
	d="
M226.905502,132.844513 
	C224.765198,131.775101 221.395538,131.189285 220.744400,129.534058 
	C219.449036,126.241188 218.767654,122.149811 219.565598,118.801300 
	C220.037155,116.822365 223.826462,115.634033 226.517883,114.609825 
	C226.899170,118.573898 226.886353,122.018333 226.901657,125.642044 
	C226.947388,126.068054 226.930466,126.312393 226.924652,127.004837 
	C226.948715,129.251724 226.927109,131.048111 226.905502,132.844513 
z"/>
<path fill="#F6F6F6" opacity="1.000000" stroke="none" 
	d="
M271.964478,119.904770 
	C271.964478,124.152573 271.964478,128.400375 271.964478,132.999893 
	C269.782196,132.999893 267.845459,132.999893 265.459930,132.452545 
	C265.013062,126.027779 265.014984,120.150337 265.016937,114.272903 
	C266.733826,114.203667 268.450745,114.134422 270.751099,114.465530 
	C271.544556,116.545517 271.754517,118.225143 271.964478,119.904770 
z"/>
<path fill="#F0F0F0" opacity="1.000000" stroke="none" 
	d="
M309.950256,130.674744 
	C306.493042,134.359085 300.337555,133.700134 298.205261,129.417419 
	C296.596130,126.185463 299.321289,121.900116 303.395142,121.447464 
	C305.183411,121.248779 307.010132,121.396370 309.287720,121.738235 
	C309.126129,124.967125 308.306610,127.848801 309.950256,130.674744 
z"/>
<path fill="#F6F6F6" opacity="1.000000" stroke="none" 
	d="
M228.145035,114.248848 
	C237.569977,113.629448 239.538147,115.472382 238.949493,124.979347 
	C235.649857,124.979347 232.286789,124.979347 228.496872,124.606140 
	C228.577621,123.548424 228.992050,122.758293 229.617065,122.206848 
	C230.352707,121.557808 231.270966,121.115723 232.110046,120.583908 
	C231.365463,119.955818 230.377319,119.464592 229.930359,118.669235 
	C229.158203,117.295265 228.722122,115.732437 228.145035,114.248848 
z"/>
<path fill="#F0F0F0" opacity="1.000000" stroke="none" 
	d="
M139.993668,123.979294 
	C139.674728,122.813553 139.355789,121.647812 139.067749,120.113464 
	C140.438904,118.245415 141.779114,116.745956 143.119339,115.246506 
	C142.851242,114.850311 142.583160,114.454117 142.315063,114.057922 
	C144.261642,114.057922 146.208221,114.057922 148.640045,114.308968 
	C149.239777,114.763054 149.408005,114.900200 149.629959,114.971451 
	C148.711487,118.063911 147.793030,121.156364 146.460342,124.693207 
	C145.403580,125.974518 144.761047,126.811440 144.344574,127.353920 
	C142.797516,126.153992 141.395584,125.066643 139.993668,123.979294 
z"/>
<path fill="#0E0E0E" opacity="1.000000" stroke="none" 
	d="
M58.011013,109.999756 
	C57.924553,111.149086 57.838093,112.298416 57.727249,113.771843 
	C59.409634,113.997498 60.970131,114.206810 62.885559,114.463722 
	C62.885559,118.644302 62.885559,122.879997 62.885559,127.651848 
	C61.186646,127.735123 59.316448,127.826797 57.215996,127.929756 
	C57.215996,121.776550 57.215996,115.847458 57.102448,109.461349 
	C57.160965,108.991074 57.333031,108.977806 57.655724,109.233231 
	C57.874569,109.667877 57.942791,109.833817 58.011013,109.999756 
z"/>
<path fill="#F6F6F6" opacity="1.000000" stroke="none" 
	d="
M255.405731,123.282928 
	C254.023392,120.802994 253.058548,118.447968 252.090942,115.745750 
	C255.340546,112.945877 258.168182,113.167717 260.720276,117.419243 
	C260.987335,119.784386 260.999725,121.459137 261.012146,123.133896 
	C259.282501,123.225212 257.552856,123.316528 255.405731,123.282928 
z"/>
<path fill="#EAEAEA" opacity="1.000000" stroke="none" 
	d="
M228.001419,127.974014 
	C231.478500,127.974014 234.955566,127.974014 239.067001,127.974014 
	C237.656403,134.717056 232.722305,132.669098 228.494141,132.512543 
	C228.021591,130.680161 228.011505,129.327087 228.001419,127.974014 
z"/>
<path fill="#EAEAEA" opacity="1.000000" stroke="none" 
	d="
M261.512817,122.994957 
	C260.999725,121.459137 260.987335,119.784386 260.977783,117.692505 
	C265.577209,120.178970 262.973175,115.007874 264.675995,114.278503 
	C265.014984,120.150337 265.013062,126.027779 265.011322,132.361694 
	C264.637939,130.419128 264.400330,127.986954 263.827332,125.636513 
	C263.580170,124.622543 262.639221,123.777695 261.512817,122.994957 
z"/>
<path fill="#EAEAEA" opacity="1.000000" stroke="none" 
	d="
M140.031876,124.354622 
	C141.395584,125.066643 142.797516,126.153992 144.344574,127.353920 
	C144.761047,126.811440 145.403580,125.974518 146.360031,125.063522 
	C145.356125,127.644356 144.038284,130.299255 142.355621,132.900970 
	C141.350540,130.141830 140.710312,127.435890 140.031876,124.354622 
z"/>
<path fill="#8E8E8E" opacity="1.000000" stroke="none" 
	d="
M227.827499,114.172913 
	C228.722122,115.732437 229.158203,117.295265 229.930359,118.669235 
	C230.377319,119.464592 231.365463,119.955818 232.110046,120.583908 
	C231.270966,121.115723 230.352707,121.557808 229.617065,122.206848 
	C228.992050,122.758293 228.577621,123.548424 228.039001,124.625870 
	C228.007980,125.018806 228.020462,124.959023 227.780563,125.164268 
	C227.318283,125.400597 227.095901,125.431679 226.873535,125.462761 
	C226.886353,122.018333 226.899170,118.573898 226.890625,114.676201 
	C227.082840,114.180946 227.296402,114.138969 227.827499,114.172913 
z"/>
<path fill="#F0F0F0" opacity="1.000000" stroke="none" 
	d="
M130.887390,116.374786 
	C130.417313,118.563713 129.872650,121.140640 129.328003,123.717567 
	C128.813736,123.702377 128.299469,123.687187 127.785210,123.671997 
	C127.220764,121.822174 126.656326,119.972359 126.137550,117.745758 
	C126.656982,118.129280 127.130745,118.889572 127.832787,120.016212 
	C128.878677,118.874352 129.845734,117.818565 130.887390,116.374786 
z"/>
<path fill="#EAEAEA" opacity="1.000000" stroke="none" 
	d="
M98.416985,118.346771 
	C101.898582,118.370583 105.372612,118.757050 108.938034,119.527786 
	C105.489418,119.511185 101.949425,119.110313 98.416985,118.346771 
z"/>
<path fill="#EAEAEA" opacity="1.000000" stroke="none" 
	d="
M272.236206,119.521347 
	C271.754517,118.225143 271.544556,116.545517 271.175659,114.541878 
	C271.795074,114.676361 272.573364,115.134850 273.727417,115.526917 
	C274.723450,116.743027 275.343689,118.025566 275.989685,119.632721 
	C274.846252,119.684196 273.677094,119.411064 272.236206,119.521347 
z"/>
<path fill="#5B5B5B" opacity="1.000000" stroke="none" 
	d="
M309.995148,131.013931 
	C308.306610,127.848801 309.126129,124.967125 309.706177,121.737854 
	C309.826599,121.263794 309.996796,121.141632 310.475220,120.958374 
	C310.879883,124.591393 310.976318,128.285507 311.106171,132.434006 
	C310.773102,132.376633 310.406555,131.864868 309.995148,131.013931 
z"/>
<path fill="#F0F0F0" opacity="1.000000" stroke="none" 
	d="
M133.273376,126.023300 
	C132.277130,124.743210 131.516602,123.471603 130.756073,122.199989 
	C131.180588,121.967491 131.605103,121.734985 132.029617,121.502487 
	C132.664795,122.789230 133.299988,124.075974 133.957733,125.708435 
	C133.980286,126.054146 133.509079,126.031769 133.273376,126.023300 
z"/>
<path fill="#8E8E8E" opacity="1.000000" stroke="none" 
	d="
M227.993591,127.677078 
	C228.011505,129.327087 228.021591,130.680161 228.061661,132.437714 
	C227.894043,132.882462 227.696426,132.922714 227.202148,132.903748 
	C226.927109,131.048111 226.948715,129.251724 227.135651,127.070374 
	C227.300995,126.685432 227.703644,126.857346 227.703644,126.857346 
	C227.797684,127.031609 227.891739,127.205879 227.993591,127.677078 
z"/>
<path fill="#F0F0F0" opacity="1.000000" stroke="none" 
	d="
M118.718063,114.209610 
	C119.024490,115.198296 119.040367,116.126648 119.065903,117.403069 
	C118.859535,116.550522 118.643524,115.349892 118.718063,114.209610 
z"/>
<path fill="#F0F0F0" opacity="1.000000" stroke="none" 
	d="
M138.755707,116.718704 
	C138.077988,116.288406 137.536865,115.565971 136.994125,114.533005 
	C137.625763,114.957161 138.259018,115.691864 138.755707,116.718704 
z"/>
<path fill="#F6F6F6" opacity="1.000000" stroke="none" 
	d="
M66.292709,132.841827 
	C66.431740,132.223404 66.870178,131.635742 67.606735,131.008667 
	C67.467285,131.603683 67.029701,132.238129 66.292709,132.841827 
z"/>
<path fill="#F6F6F6" opacity="1.000000" stroke="none" 
	d="
M69.262497,129.872742 
	C69.350060,129.301453 69.729546,128.693726 70.395012,128.037033 
	C70.305473,128.604156 69.929947,129.220230 69.262497,129.872742 
z"/>
<path fill="#F6F6F6" opacity="1.000000" stroke="none" 
	d="
M70.695320,113.728714 
	C70.122818,113.603256 69.587448,113.194000 69.021507,112.510674 
	C69.571442,112.639366 70.151955,113.042137 70.695320,113.728714 
z"/>
<path fill="#F0F0F0" opacity="1.000000" stroke="none" 
	d="
M134.215424,127.272842 
	C134.697861,127.540787 135.110703,128.090073 135.316208,128.800095 
	C134.787857,128.491959 134.466858,128.023071 134.215424,127.272842 
z"/>
<path fill="#EAEAEA" opacity="1.000000" stroke="none" 
	d="
M227.727676,126.531738 
	C227.703644,126.857346 227.300995,126.685432 227.089996,126.619888 
	C226.930466,126.312393 226.947388,126.068054 226.901657,125.642044 
	C227.095901,125.431679 227.318283,125.400597 227.810883,125.167831 
	C227.971298,125.379478 227.861496,125.792809 227.727676,126.531738 
z"/>
<path fill="#DEDEDE" opacity="1.000000" stroke="none" 
	d="
M152.810028,115.304504 
	C153.040085,115.396828 153.053619,115.828636 152.965790,116.026154 
	C152.662216,116.004059 152.439819,115.789818 152.247314,115.551437 
	C152.235825,115.537193 152.463577,115.329735 152.810028,115.304504 
z"/>
<path fill="#F6F6F6" opacity="1.000000" stroke="none" 
	d="
M58.214321,109.921341 
	C57.942791,109.833817 57.874569,109.667877 57.913658,109.255127 
	C58.188034,109.015167 58.355103,109.022018 58.757431,109.115807 
	C58.868492,109.476761 58.676804,109.690163 58.214321,109.921341 
z"/>
<path fill="#EAEAEA" opacity="1.000000" stroke="none" 
	d="
M149.740967,114.744392 
	C149.408005,114.900200 149.239777,114.763054 149.070343,114.403427 
	C149.294250,114.337013 149.573105,114.427177 149.740967,114.744392 
z"/>
</svg>