<svg version="1.1" id="Layer_1" xmlns="http://www.w3.org/2000/svg" xmlns:xlink="http://www.w3.org/1999/xlink" x="0px" y="0px"
	 width="100%" viewBox="0 0 500 500" enable-background="new 0 0 500 500" xml:space="preserve">
<path fill="#000000" opacity="1.000000" stroke="none" 
	d="
M330.000000,501.000000 
	C220.000031,501.000000 110.500053,501.000000 1.000059,501.000000 
	C1.000039,334.333405 1.000039,167.666794 1.000020,1.000148 
	C167.666565,1.000099 334.333130,1.000099 500.999756,1.000049 
	C500.999847,167.666519 500.999847,334.333038 500.999939,500.999786 
	C444.166656,501.000000 387.333344,501.000000 330.000000,501.000000 
M76.016907,149.949966 
	C73.062920,149.949966 70.108932,149.949966 67.103317,149.949966 
	C67.103317,160.522964 67.103317,170.690536 67.103317,180.957809 
	C70.601662,180.957809 73.749596,180.957809 77.602020,181.004150 
	C78.072220,181.001114 78.542412,180.998093 79.933464,181.012512 
	C81.260872,181.012955 82.588280,181.013763 83.915688,181.013794 
	C93.625175,181.014084 96.892128,177.794357 96.892342,168.224854 
	C96.892403,165.570038 96.899658,162.915192 96.890709,160.260406 
	C96.870544,154.283020 92.476944,149.942947 86.424400,149.933899 
	C83.936005,149.930176 81.447540,149.966537 78.283524,149.955887 
	C77.833374,149.979538 77.383232,150.003189 76.016907,149.949966 
M411.087738,161.595520 
	C411.392120,161.748825 411.696533,161.902145 412.895660,162.320770 
	C417.081818,162.320770 421.267944,162.320770 425.576660,162.320770 
	C425.760712,164.504730 425.894989,166.098129 424.885071,167.985916 
	C421.941772,167.454620 418.869232,166.153885 416.093536,166.620209 
	C413.590912,167.040695 410.230621,168.937744 409.421387,171.025681 
	C408.593719,173.161224 409.709961,176.825348 411.223389,178.917496 
	C413.702789,182.344910 420.363739,181.894226 423.442535,178.884155 
	C424.043915,178.296173 425.154114,178.228607 425.850983,178.805893 
	C426.428558,179.537125 426.959534,180.846298 427.591980,180.897354 
	C430.044220,181.095245 432.528717,180.892776 435.540955,180.932159 
	C435.634521,180.624069 435.728088,180.315979 435.967926,179.081146 
	C435.971893,175.287521 435.509888,171.421112 436.088287,167.717194 
	C436.971741,162.060165 433.644073,157.862106 429.722565,156.760254 
	C424.683624,155.344421 418.832825,156.589554 413.375549,157.130081 
	C412.530457,157.213776 411.918732,159.653519 411.087738,161.595520 
M282.287415,168.780365 
	C280.117004,162.543106 277.946564,156.305847 275.780365,150.080719 
	C272.200134,150.080719 268.897919,150.080719 265.170868,150.080719 
	C267.993500,157.951630 270.703369,165.563919 273.453491,173.161636 
	C276.394165,181.285950 276.410736,181.280685 285.146698,180.970993 
	C285.279541,180.966278 285.408691,180.856583 285.572327,180.780685 
	C285.402557,179.907288 285.230988,179.024689 285.677032,177.985931 
	C286.395782,178.308289 287.114532,178.630661 288.135406,179.088547 
	C291.544189,169.482788 294.931641,159.937164 298.439178,150.053116 
	C294.599426,150.053116 291.471283,150.053116 287.588562,150.053116 
	C286.079590,156.292679 284.541595,162.652252 282.287415,168.780365 
M174.102783,165.957382 
	C173.072708,162.970276 172.042648,159.983154 170.990234,156.451019 
	C170.668030,156.377960 170.345825,156.304901 169.139313,156.065521 
	C166.697174,156.065521 164.255035,156.065521 161.134430,156.065521 
	C164.216583,164.715408 167.092072,172.785294 169.977936,180.884323 
	C173.016281,180.884323 175.815552,180.884323 178.961746,180.884323 
	C179.972473,177.168350 180.974792,173.483292 182.478455,169.922546 
	C182.638412,169.986252 182.798355,170.049973 183.018723,170.872940 
	C184.134064,174.153976 185.249405,177.435028 186.465927,181.013702 
	C188.473389,181.013702 190.459641,180.899902 192.427078,181.043564 
	C194.699036,181.209442 196.319336,180.716049 196.425217,178.033203 
	C196.425217,178.033203 196.519806,178.071426 197.179443,177.898743 
	C199.543442,171.160950 201.907440,164.423157 204.709717,157.305206 
	C204.471893,156.958176 204.234085,156.611130 203.119354,156.068619 
	C200.496185,156.068619 197.873032,156.068619 194.929382,156.068619 
	C194.052307,160.829407 193.248489,165.192551 192.399780,169.799393 
	C190.851425,165.146271 189.358582,160.659973 187.919785,156.336090 
	C184.563950,156.336090 181.514465,156.336090 178.552048,156.336090 
	C178.719574,158.078400 178.860123,159.540054 178.319794,161.099518 
	C177.941681,161.733765 177.563568,162.368027 176.864853,163.630478 
	C176.576340,164.752975 176.287827,165.875488 175.373550,167.328156 
	C174.950211,167.122849 174.526871,166.917542 174.102783,165.957382 
M238.065552,158.519287 
	C238.065567,162.845932 237.813232,167.193771 238.174088,171.490112 
	C238.349442,173.577682 239.401398,175.734619 240.527039,177.571884 
	C243.602097,182.591003 248.463074,180.866943 252.993134,180.873871 
	C252.993134,178.726059 252.993134,176.953278 252.993134,175.214554 
	C251.467087,174.834229 250.123199,174.499298 248.508316,174.096848 
	C248.508316,164.896515 248.508316,155.973892 248.508316,146.866348 
	C244.888977,146.866348 241.630905,146.866348 238.065552,146.866348 
	C238.065552,150.587753 238.065552,154.059952 238.065552,158.519287 
M109.046791,146.611115 
	C106.451889,146.611115 103.856979,146.611115 101.398346,146.611115 
	C101.398346,158.467133 101.398346,169.675125 101.398346,180.679596 
	C104.974037,180.679596 108.209854,180.679596 111.693550,180.679596 
	C111.693550,170.062241 111.741211,159.788467 111.615868,149.516800 
	C111.604034,148.546829 110.505043,147.590149 109.046791,146.611115 
M218.583099,156.037430 
	C210.052444,156.037567 208.926346,156.777008 209.386337,162.564117 
	C213.899841,162.564117 218.464157,162.564117 223.469330,162.564117 
	C223.469330,168.920029 223.469330,174.822433 223.469330,180.696625 
	C227.169022,180.696625 230.386276,180.696625 233.853394,180.696625 
	C233.853394,176.412109 233.524231,172.419189 233.939041,168.505096 
	C234.427078,163.900131 233.200195,160.006760 229.208130,158.014053 
	C226.357071,156.590897 222.769455,156.643402 218.583099,156.037430 
M148.237137,156.059464 
	C145.248322,156.059952 142.244675,155.873917 139.274567,156.109818 
	C135.839157,156.382660 134.157196,158.374634 134.425568,162.454300 
	C139.366470,162.454300 144.071487,162.454300 149.126541,162.454300 
	C149.126541,168.876038 149.126541,174.790390 149.126541,180.642685 
	C152.712051,180.642685 155.903870,180.642685 159.168930,180.642685 
	C159.168930,175.630920 159.179993,170.982574 159.166138,166.334305 
	C159.148865,160.539093 154.954987,156.252182 148.237137,156.059464 
M397.599365,181.023071 
	C399.863647,181.023071 402.127930,181.023071 404.741943,181.023071 
	C404.741943,174.683350 404.879059,168.896194 404.692688,163.119492 
	C404.572845,159.404602 400.152740,156.036179 396.090179,156.022278 
	C392.043365,156.008423 390.137909,157.938080 390.027313,162.010468 
	C391.492096,162.326584 392.707153,162.588791 394.096405,162.888611 
	C394.096405,168.068649 393.952515,173.050598 394.212860,178.011337 
	C394.267609,179.054977 395.806915,180.020691 397.599365,181.023071 
M332.809174,181.011520 
	C335.745392,181.011520 338.681610,181.011520 341.617249,181.011520 
	C341.617249,172.425781 341.617249,164.377441 341.617249,156.349243 
	C338.078613,156.349243 334.849548,156.349243 331.900574,156.349243 
	C331.900574,164.716400 331.900574,172.765686 332.809174,181.011520 
M388.393341,168.542252 
	C388.393097,166.378021 388.439789,164.212570 388.382690,162.049835 
	C388.267578,157.689972 385.893616,156.011475 381.651398,156.008453 
	C377.481415,156.005478 374.104431,156.583450 373.877350,161.998779 
	C375.289429,162.242325 376.517517,162.454117 378.080261,162.723633 
	C378.080261,168.844330 378.080261,174.769791 378.080261,180.735565 
	C381.711578,180.735565 384.954254,180.735565 388.393372,180.735565 
	C388.393372,176.822861 388.393372,173.174881 388.393341,168.542252 
M116.922127,162.554443 
	C117.340179,168.555405 117.758224,174.556366 118.190498,180.761566 
	C121.335861,180.761566 124.557716,180.761566 128.094788,180.761566 
	C128.094788,175.744797 127.752747,170.930206 128.186737,166.186615 
	C128.662827,160.982910 124.954086,158.577957 121.718407,156.490540 
	C119.391266,154.989258 115.811668,155.441772 113.854210,158.528259 
	C112.229477,161.090134 112.810997,162.556656 116.922127,162.554443 
M363.652679,156.069626 
	C363.038788,156.814133 361.905029,157.549301 361.891479,158.304565 
	C361.758148,165.737000 361.810944,173.172775 361.810944,180.733505 
	C365.441406,180.733505 368.664093,180.733505 371.824646,180.733505 
	C371.824646,172.413269 371.824646,164.364624 371.824646,156.065323 
	C369.215546,156.065323 366.910706,156.065323 363.652679,156.069626 
M303.422272,178.102097 
	C305.562317,179.276413 307.702362,180.450714 310.439819,181.952850 
	C310.439819,172.363556 310.439819,164.338364 310.439819,156.337219 
	C306.820648,156.141876 301.771057,159.215469 300.343262,162.285126 
	C298.895477,165.397781 300.490631,175.019653 303.422272,178.102097 
M147.243271,175.528915 
	C145.571381,174.215683 140.633377,176.751297 142.452072,171.196945 
	C143.957672,171.043839 145.549316,170.881989 148.865494,170.544754 
	C147.057373,168.570999 146.188187,166.710831 145.041443,166.520172 
	C138.250656,165.391098 133.058197,167.619110 132.151947,171.631104 
	C131.325150,175.291351 133.678421,179.978088 136.830643,180.949173 
	C141.787857,182.476257 145.796417,180.725891 147.243271,175.528915 
M216.521835,166.390366 
	C215.193039,166.392700 213.847580,166.260513 212.538620,166.422791 
	C208.718430,166.896454 206.332489,170.229202 206.792572,174.773514 
	C207.189331,178.692535 209.268906,181.049652 213.541107,181.049805 
	C217.586441,181.049942 221.778534,181.455399 221.977234,175.345306 
	C220.001160,174.416061 215.172012,176.686203 217.209274,171.185730 
	C218.713211,171.002686 220.292435,170.810486 222.067490,170.594452 
	C221.933777,169.118622 221.821625,167.880646 221.686615,166.390442 
	C220.025101,166.390442 218.713867,166.390442 216.521835,166.390366 
M312.131683,167.821091 
	C312.870392,168.891327 313.545227,170.826614 314.358551,170.886688 
	C318.579590,171.198471 322.835938,171.031784 327.047485,171.031784 
	C327.453796,158.483139 323.699249,154.907150 312.421082,156.540527 
	C312.421082,158.400864 312.421082,160.252731 312.421082,162.170700 
	C313.390198,162.250610 314.164642,162.100128 314.671265,162.400864 
	C315.727753,163.027985 316.642700,163.893616 317.615784,164.661255 
	C316.559143,165.343307 315.542114,166.102295 314.429138,166.674820 
	C313.874939,166.959900 313.144958,166.903336 312.131683,167.821091 
M357.039734,160.507050 
	C354.905426,157.266281 352.069061,154.833389 348.082916,156.203354 
	C346.004211,156.917770 344.452698,159.166168 341.937073,161.352707 
	C344.870819,162.223053 346.341095,162.659225 347.680634,163.056625 
	C347.840424,165.016891 347.971741,166.627655 348.094330,168.131531 
	C351.579193,168.131531 354.796539,168.131531 358.495209,168.131531 
	C358.145050,165.524948 357.845123,163.292465 357.039734,160.507050 
M324.987244,175.086685 
	C320.731812,175.086685 316.476379,175.086685 312.265686,175.086685 
	C312.265686,177.375198 312.265686,178.986053 312.265686,181.025238 
	C315.408386,181.025238 318.381317,181.224976 321.315094,180.971649 
	C324.547150,180.692581 326.531891,179.030365 324.987244,175.086685 
z"/>
<path fill="#F8F8F8" opacity="1.000000" stroke="none" 
	d="
M196.496033,178.099518 
	C196.319336,180.716049 194.699036,181.209442 192.427078,181.043564 
	C190.459641,180.899902 188.473389,181.013702 186.465927,181.013702 
	C185.249405,177.435028 184.134064,174.153976 182.970520,170.187408 
	C182.336288,168.987518 181.750244,168.473160 181.164185,167.958786 
	C181.032608,168.104630 180.901016,168.250473 180.769424,168.396301 
	C181.171982,168.863617 181.574554,169.330933 181.977112,169.798248 
	C180.974792,173.483292 179.972473,177.168350 178.961746,180.884323 
	C175.815552,180.884323 173.016281,180.884323 169.977936,180.884323 
	C167.092072,172.785294 164.216583,164.715408 161.134430,156.065521 
	C164.255035,156.065521 166.697174,156.065521 169.702271,156.326965 
	C170.472534,156.800964 170.721649,156.936829 171.012589,156.996048 
	C172.042648,159.983154 173.072708,162.970276 174.100311,166.652771 
	C174.464478,167.752838 174.831146,168.157516 175.197800,168.562210 
	C175.464981,168.040802 175.732147,167.519394 175.999313,166.997986 
	C176.287827,165.875488 176.576340,164.752975 177.340210,163.319122 
	C178.527588,163.328186 179.239624,163.648605 179.738785,164.147156 
	C179.994492,164.994904 180.463074,165.664551 180.931656,166.334183 
	C181.164978,166.165527 181.398300,165.996872 181.631622,165.828232 
	C181.122269,165.239777 180.612900,164.651337 180.311371,163.869186 
	C180.013016,162.784225 179.506836,161.892960 179.000656,161.001694 
	C178.860123,159.540054 178.719574,158.078400 178.552048,156.336090 
	C181.514465,156.336090 184.563950,156.336090 187.919785,156.336090 
	C189.358582,160.659973 190.851425,165.146271 192.399780,169.799393 
	C193.248489,165.192551 194.052307,160.829407 194.929382,156.068619 
	C197.873032,156.068619 200.496185,156.068619 203.605011,156.525848 
	C204.150940,157.217194 204.211182,157.451294 204.271423,157.685379 
	C201.907440,164.423157 199.543442,171.160950 196.634552,177.791626 
	C195.802414,177.561768 195.515198,177.439011 195.227966,177.316254 
	C195.181137,177.509018 195.134308,177.701767 195.087479,177.894531 
	C195.556992,177.962860 196.026520,178.031189 196.496033,178.099518 
M195.684280,175.032761 
	C195.131577,174.734146 194.578873,174.435516 194.026169,174.136887 
	C193.933136,174.351837 193.840103,174.566788 193.747086,174.781738 
	C194.282211,174.992676 194.817352,175.203613 195.684280,175.032761 
M193.990402,172.305405 
	C194.234253,172.227798 194.478104,172.150192 194.721954,172.072571 
	C194.447098,171.800598 194.172226,171.528625 193.897369,171.256653 
	C193.821716,171.501053 193.746063,171.745468 193.990402,172.305405 
z"/>
<path fill="#F3F3F3" opacity="1.000000" stroke="none" 
	d="
M238.065552,158.025726 
	C238.065552,154.059952 238.065552,150.587753 238.065552,146.866348 
	C241.630905,146.866348 244.888977,146.866348 248.508316,146.866348 
	C248.508316,155.973892 248.508316,164.896515 248.508316,174.096848 
	C250.123199,174.499298 251.467087,174.834229 252.993134,175.214554 
	C252.993134,176.953278 252.993134,178.726059 252.993134,180.873871 
	C248.463074,180.866943 243.602097,182.591003 240.527039,177.571884 
	C239.401398,175.734619 238.349442,173.577682 238.174088,171.490112 
	C237.813232,167.193771 238.065567,162.845932 238.065552,158.025726 
z"/>
<path fill="#F8F8F8" opacity="1.000000" stroke="none" 
	d="
M78.959106,149.984665 
	C81.447540,149.966537 83.936005,149.930176 86.424400,149.933899 
	C92.476944,149.942947 96.870544,154.283020 96.890709,160.260406 
	C96.899658,162.915192 96.892403,165.570038 96.892342,168.224854 
	C96.892128,177.794357 93.625175,181.014084 83.915688,181.013794 
	C82.588280,181.013763 81.260872,181.012955 79.360718,180.557220 
	C78.787964,178.488297 78.787964,176.874634 78.787964,175.056641 
	C81.377792,174.897781 83.623055,174.760071 85.919083,174.619232 
	C85.919083,168.328339 85.919083,162.324142 85.919083,156.252884 
	C83.313469,156.117615 81.079536,156.001648 78.959106,155.891571 
	C78.959106,153.616760 78.959106,151.800720 78.959106,149.984665 
z"/>
<path fill="#F2F2F2" opacity="1.000000" stroke="none" 
	d="
M109.478790,146.619202 
	C110.505043,147.590149 111.604034,148.546829 111.615868,149.516800 
	C111.741211,159.788467 111.693550,170.062241 111.693550,180.679596 
	C108.209854,180.679596 104.974037,180.679596 101.398346,180.679596 
	C101.398346,169.675125 101.398346,158.467133 101.398346,146.611115 
	C103.856979,146.611115 106.451889,146.611115 109.478790,146.619202 
z"/>
<path fill="#F2F2F2" opacity="1.000000" stroke="none" 
	d="
M219.046799,156.037430 
	C222.769455,156.643402 226.357071,156.590897 229.208130,158.014053 
	C233.200195,160.006760 234.427078,163.900131 233.939041,168.505096 
	C233.524231,172.419189 233.853394,176.412109 233.853394,180.696625 
	C230.386276,180.696625 227.169022,180.696625 223.469330,180.696625 
	C223.469330,174.822433 223.469330,168.920029 223.469330,162.564117 
	C218.464157,162.564117 213.899841,162.564117 209.386337,162.564117 
	C208.926346,156.777008 210.052444,156.037567 219.046799,156.037430 
z"/>
<path fill="#F8F8F8" opacity="1.000000" stroke="none" 
	d="
M285.059448,178.142075 
	C285.230988,179.024689 285.402557,179.907288 285.572327,180.780685 
	C285.408691,180.856583 285.279541,180.966278 285.146698,180.970993 
	C276.410736,181.280685 276.394165,181.285950 273.453491,173.161636 
	C270.703369,165.563919 267.993500,157.951630 265.170868,150.080719 
	C268.897919,150.080719 272.200134,150.080719 275.780365,150.080719 
	C277.946564,156.305847 280.117004,162.543106 282.685181,169.287384 
	C283.741821,172.576950 284.400635,175.359512 285.059448,178.142075 
z"/>
<path fill="#FCFCFC" opacity="1.000000" stroke="none" 
	d="
M148.687836,156.059509 
	C154.954987,156.252182 159.148865,160.539093 159.166138,166.334305 
	C159.179993,170.982574 159.168930,175.630920 159.168930,180.642685 
	C155.903870,180.642685 152.712051,180.642685 149.126541,180.642685 
	C149.126541,174.790390 149.126541,168.876038 149.126541,162.454300 
	C144.071487,162.454300 139.366470,162.454300 134.425568,162.454300 
	C134.157196,158.374634 135.839157,156.382660 139.274567,156.109818 
	C142.244675,155.873917 145.248322,156.059952 148.687836,156.059509 
z"/>
<path fill="#FCFCFC" opacity="1.000000" stroke="none" 
	d="
M426.029297,167.691528 
	C425.894989,166.098129 425.760712,164.504730 425.576660,162.320770 
	C421.267944,162.320770 417.081818,162.320770 412.376831,161.970825 
	C411.704834,161.344193 411.485199,161.138474 411.199066,161.003723 
	C411.918732,159.653519 412.530457,157.213776 413.375549,157.130081 
	C418.832825,156.589554 424.683624,155.344421 429.722565,156.760254 
	C433.644073,157.862106 436.971741,162.060165 436.088287,167.717194 
	C435.509888,171.421112 435.971893,175.287521 435.718536,179.639832 
	C435.252899,180.368088 435.096924,180.581696 435.001221,180.839355 
	C432.528717,180.892776 430.044220,181.095245 427.591980,180.897354 
	C426.959534,180.846298 426.428558,179.537125 425.977692,177.933350 
	C426.079376,173.937698 426.054321,170.814621 426.029297,167.691528 
z"/>
<path fill="#FEFEFE" opacity="1.000000" stroke="none" 
	d="
M76.897537,180.957809 
	C73.749596,180.957809 70.601662,180.957809 67.103317,180.957809 
	C67.103317,170.690536 67.103317,160.522964 67.103317,149.949966 
	C70.108932,149.949966 73.062920,149.949966 76.521637,150.453308 
	C76.983421,160.957031 76.940475,170.957428 76.897537,180.957809 
z"/>
<path fill="#F3F3F3" opacity="1.000000" stroke="none" 
	d="
M397.130768,181.022690 
	C395.806915,180.020691 394.267609,179.054977 394.212860,178.011337 
	C393.952515,173.050598 394.096405,168.068649 394.096405,162.888611 
	C392.707153,162.588791 391.492096,162.326584 390.027313,162.010468 
	C390.137909,157.938080 392.043365,156.008423 396.090179,156.022278 
	C400.152740,156.036179 404.572845,159.404602 404.692688,163.119492 
	C404.879059,168.896194 404.741943,174.683350 404.741943,181.023071 
	C402.127930,181.023071 399.863647,181.023071 397.130768,181.022690 
z"/>
<path fill="#F1F1F1" opacity="1.000000" stroke="none" 
	d="
M332.354858,180.913239 
	C331.900574,172.765686 331.900574,164.716400 331.900574,156.349243 
	C334.849548,156.349243 338.078613,156.349243 341.617249,156.349243 
	C341.617249,164.377441 341.617249,172.425781 341.617249,181.011520 
	C338.681610,181.011520 335.745392,181.011520 332.354858,180.913239 
z"/>
<path fill="#FEFEFE" opacity="1.000000" stroke="none" 
	d="
M388.393372,169.034576 
	C388.393372,173.174881 388.393372,176.822861 388.393372,180.735565 
	C384.954254,180.735565 381.711578,180.735565 378.080261,180.735565 
	C378.080261,174.769791 378.080261,168.844330 378.080261,162.723633 
	C376.517517,162.454117 375.289429,162.242325 373.877350,161.998779 
	C374.104431,156.583450 377.481415,156.005478 381.651398,156.008453 
	C385.893616,156.011475 388.267578,157.689972 388.382690,162.049835 
	C388.439789,164.212570 388.393097,166.378021 388.393372,169.034576 
z"/>
<path fill="#F3F3F3" opacity="1.000000" stroke="none" 
	d="
M285.368225,178.063995 
	C284.400635,175.359512 283.741821,172.576950 283.043304,169.403107 
	C284.541595,162.652252 286.079590,156.292679 287.588562,150.053116 
	C291.471283,150.053116 294.599426,150.053116 298.439178,150.053116 
	C294.931641,159.937164 291.544189,169.482788 288.135406,179.088547 
	C287.114532,178.630661 286.395782,178.308289 285.368225,178.063995 
z"/>
<path fill="#FEFEFE" opacity="1.000000" stroke="none" 
	d="
M116.501892,162.464401 
	C112.810997,162.556656 112.229477,161.090134 113.854210,158.528259 
	C115.811668,155.441772 119.391266,154.989258 121.718407,156.490540 
	C124.954086,158.577957 128.662827,160.982910 128.186737,166.186615 
	C127.752747,170.930206 128.094788,175.744797 128.094788,180.761566 
	C124.557716,180.761566 121.335861,180.761566 118.190498,180.761566 
	C117.758224,174.556366 117.340179,168.555405 116.501892,162.464401 
z"/>
<path fill="#FEFEFE" opacity="1.000000" stroke="none" 
	d="
M364.129272,156.067474 
	C366.910706,156.065323 369.215546,156.065323 371.824646,156.065323 
	C371.824646,164.364624 371.824646,172.413269 371.824646,180.733505 
	C368.664093,180.733505 365.441406,180.733505 361.810944,180.733505 
	C361.810944,173.172775 361.758148,165.737000 361.891479,158.304565 
	C361.905029,157.549301 363.038788,156.814133 364.129272,156.067474 
z"/>
<path fill="#F1F1F1" opacity="1.000000" stroke="none" 
	d="
M303.147705,177.823608 
	C300.490631,175.019653 298.895477,165.397781 300.343262,162.285126 
	C301.771057,159.215469 306.820648,156.141876 310.439819,156.337219 
	C310.439819,164.338364 310.439819,172.363556 310.439819,181.952850 
	C307.702362,180.450714 305.562317,179.276413 303.147705,177.823608 
z"/>
<path fill="#F1F1F1" opacity="1.000000" stroke="none" 
	d="
M425.457184,167.838715 
	C426.054321,170.814621 426.079376,173.937698 426.067017,177.490906 
	C425.154114,178.228607 424.043915,178.296173 423.442535,178.884155 
	C420.363739,181.894226 413.702789,182.344910 411.223389,178.917496 
	C409.709961,176.825348 408.593719,173.161224 409.421387,171.025681 
	C410.230621,168.937744 413.590912,167.040695 416.093536,166.620209 
	C418.869232,166.153885 421.941772,167.454620 425.457184,167.838715 
z"/>
<path fill="#F1F1F1" opacity="1.000000" stroke="none" 
	d="
M147.366364,175.911896 
	C145.796417,180.725891 141.787857,182.476257 136.830643,180.949173 
	C133.678421,179.978088 131.325150,175.291351 132.151947,171.631104 
	C133.058197,167.619110 138.250656,165.391098 145.041443,166.520172 
	C146.188187,166.710831 147.057373,168.570999 148.865494,170.544754 
	C145.549316,170.881989 143.957672,171.043839 142.452072,171.196945 
	C140.633377,176.751297 145.571381,174.215683 147.366364,175.911896 
z"/>
<path fill="#F1F1F1" opacity="1.000000" stroke="none" 
	d="
M216.962250,166.390411 
	C218.713867,166.390442 220.025101,166.390442 221.686615,166.390442 
	C221.821625,167.880646 221.933777,169.118622 222.067490,170.594452 
	C220.292435,170.810486 218.713211,171.002686 217.209274,171.185730 
	C215.172012,176.686203 220.001160,174.416061 221.977234,175.345306 
	C221.778534,181.455399 217.586441,181.049942 213.541107,181.049805 
	C209.268906,181.049652 207.189331,178.692535 206.792572,174.773514 
	C206.332489,170.229202 208.718430,166.896454 212.538620,166.422791 
	C213.847580,166.260513 215.193039,166.392700 216.962250,166.390411 
z"/>
<path fill="#FCFCFC" opacity="1.000000" stroke="none" 
	d="
M312.313110,167.411194 
	C313.144958,166.903336 313.874939,166.959900 314.429138,166.674820 
	C315.542114,166.102295 316.559143,165.343307 317.615784,164.661255 
	C316.642700,163.893616 315.727753,163.027985 314.671265,162.400864 
	C314.164642,162.100128 313.390198,162.250610 312.421082,162.170700 
	C312.421082,160.252731 312.421082,158.400864 312.421082,156.540527 
	C323.699249,154.907150 327.453796,158.483139 327.047485,171.031784 
	C322.835938,171.031784 318.579590,171.198471 314.358551,170.886688 
	C313.545227,170.826614 312.870392,168.891327 312.313110,167.411194 
z"/>
<path fill="#0F0F0F" opacity="1.000000" stroke="none" 
	d="
M77.249779,180.980988 
	C76.940475,170.957428 76.983421,160.957031 76.979721,150.491745 
	C77.383232,150.003189 77.833374,149.979538 78.621315,149.970276 
	C78.959106,151.800720 78.959106,153.616760 78.959106,155.891571 
	C81.079536,156.001648 83.313469,156.117615 85.919083,156.252884 
	C85.919083,162.324142 85.919083,168.328339 85.919083,174.619232 
	C83.623055,174.760071 81.377792,174.897781 78.787964,175.056641 
	C78.787964,176.874634 78.787964,178.488297 78.900284,180.548508 
	C78.542412,180.998093 78.072220,181.001114 77.249779,180.980988 
z"/>
<path fill="#F6F6F6" opacity="1.000000" stroke="none" 
	d="
M357.292480,160.783508 
	C357.845123,163.292465 358.145050,165.524948 358.495209,168.131531 
	C354.796539,168.131531 351.579193,168.131531 348.094330,168.131531 
	C347.971741,166.627655 347.840424,165.016891 347.680634,163.056625 
	C346.341095,162.659225 344.870819,162.223053 341.937073,161.352707 
	C344.452698,159.166168 346.004211,156.917770 348.082916,156.203354 
	C352.069061,154.833389 354.905426,157.266281 357.292480,160.783508 
z"/>
<path fill="#F1F1F1" opacity="1.000000" stroke="none" 
	d="
M325.404358,175.236145 
	C326.531891,179.030365 324.547150,180.692581 321.315094,180.971649 
	C318.381317,181.224976 315.408386,181.025238 312.265686,181.025238 
	C312.265686,178.986053 312.265686,177.375198 312.265686,175.086685 
	C316.476379,175.086685 320.731812,175.086685 325.404358,175.236145 
z"/>
<path fill="#F6F6F6" opacity="1.000000" stroke="none" 
	d="
M178.660217,161.050598 
	C179.506836,161.892960 180.013016,162.784225 180.272980,163.846405 
	C180.026749,164.017319 179.951660,163.969009 179.951660,163.969025 
	C179.239624,163.648605 178.527588,163.328186 177.500504,163.005035 
	C177.563568,162.368027 177.941681,161.733765 178.660217,161.050598 
z"/>
<path fill="#F6F6F6" opacity="1.000000" stroke="none" 
	d="
M175.686432,167.163071 
	C175.732147,167.519394 175.464981,168.040802 175.197800,168.562210 
	C174.831146,168.157516 174.464478,167.752838 174.100677,167.030197 
	C174.526871,166.917542 174.950211,167.122849 175.686432,167.163071 
z"/>
<path fill="#F6F6F6" opacity="1.000000" stroke="none" 
	d="
M182.227783,169.860397 
	C181.574554,169.330933 181.171982,168.863617 180.769424,168.396301 
	C180.901016,168.250473 181.032608,168.104630 181.164185,167.958786 
	C181.750244,168.473160 182.336288,168.987518 182.940323,169.807785 
	C182.798355,170.049973 182.638412,169.986252 182.227783,169.860397 
z"/>
<path fill="#F1F1F1" opacity="1.000000" stroke="none" 
	d="
M411.143402,161.299622 
	C411.485199,161.138474 411.704834,161.344193 411.929443,161.838165 
	C411.696533,161.902145 411.392120,161.748825 411.143402,161.299622 
z"/>
<path fill="#F6F6F6" opacity="1.000000" stroke="none" 
	d="
M171.001404,156.723541 
	C170.721649,156.936829 170.472534,156.800964 170.144409,156.410126 
	C170.345825,156.304901 170.668030,156.377960 171.001404,156.723541 
z"/>
<path fill="#F2F2F2" opacity="1.000000" stroke="none" 
	d="
M204.490570,157.495300 
	C204.211182,157.451294 204.150940,157.217194 204.043488,156.623596 
	C204.234085,156.611130 204.471893,156.958176 204.490570,157.495300 
z"/>
<path fill="#F1F1F1" opacity="1.000000" stroke="none" 
	d="
M435.271088,180.885757 
	C435.096924,180.581696 435.252899,180.368088 435.645386,180.103195 
	C435.728088,180.315979 435.634521,180.624069 435.271088,180.885757 
z"/>
<path fill="#F6F6F6" opacity="1.000000" stroke="none" 
	d="
M180.065155,164.040100 
	C180.612900,164.651337 181.122269,165.239777 181.631622,165.828232 
	C181.398300,165.996872 181.164978,166.165527 180.931656,166.334183 
	C180.463074,165.664551 179.994492,164.994904 179.738785,164.147141 
	C179.951660,163.969009 180.026749,164.017319 180.065155,164.040100 
z"/>
<path fill="#F2F2F2" opacity="1.000000" stroke="none" 
	d="
M195.518387,175.223663 
	C194.817352,175.203613 194.282211,174.992676 193.747086,174.781738 
	C193.840103,174.566788 193.933136,174.351837 194.026169,174.136887 
	C194.578873,174.435516 195.131577,174.734146 195.518387,175.223663 
z"/>
<path fill="#F2F2F2" opacity="1.000000" stroke="none" 
	d="
M193.830399,172.147644 
	C193.746063,171.745468 193.821716,171.501053 193.897369,171.256653 
	C194.172226,171.528625 194.447098,171.800598 194.721954,172.072571 
	C194.478104,172.150192 194.234253,172.227798 193.830399,172.147644 
z"/>
<path fill="#F2F2F2" opacity="1.000000" stroke="none" 
	d="
M196.460632,178.066360 
	C196.026520,178.031189 195.556992,177.962860 195.087479,177.894531 
	C195.134308,177.701767 195.181137,177.509018 195.227966,177.316254 
	C195.515198,177.439011 195.802414,177.561768 196.304718,177.877975 
	C196.519806,178.071426 196.425217,178.033203 196.460632,178.066360 
z"/>
</svg>