<?xml version="1.0" encoding="UTF-8"?>
<!DOCTYPE svg PUBLIC "-//W3C//DTD SVG 1.1//EN" "http://www.w3.org/Graphics/SVG/1.1/DTD/svg11.dtd">
<svg xmlns="http://www.w3.org/2000/svg" version="1.1" width="365px" height="365px" style="shape-rendering:geometricPrecision; text-rendering:geometricPrecision; image-rendering:optimizeQuality; fill-rule:evenodd; clip-rule:evenodd" xmlns:xlink="http://www.w3.org/1999/xlink">
<g><path style="opacity:0.004" fill="#000000" d="M 15.5,2.5 C 16.8333,3.16667 16.8333,3.16667 15.5,2.5 Z"/></g>
<g><path style="opacity:0.004" fill="#000000" d="M 141.5,4.5 C 142.833,5.16667 142.833,5.16667 141.5,4.5 Z"/></g>
<g><path style="opacity:0.004" fill="#000000" d="M 258.5,7.5 C 259.833,8.16667 259.833,8.16667 258.5,7.5 Z"/></g>
<g><path style="opacity:0.004" fill="#000000" d="M 93.5,21.5 C 94.8333,22.1667 94.8333,22.1667 93.5,21.5 Z"/></g>
<g><path style="opacity:0.004" fill="#000000" d="M 128.5,38.5 C 129.833,39.1667 129.833,39.1667 128.5,38.5 Z"/></g>
<g><path style="opacity:0.004" fill="#000000" d="M 151.5,42.5 C 152.833,43.1667 152.833,43.1667 151.5,42.5 Z"/></g>
<g><path style="opacity:0.004" fill="#000000" d="M 171.5,49.5 C 172.833,50.1667 172.833,50.1667 171.5,49.5 Z"/></g>
<g><path style="opacity:0.004" fill="#000000" d="M 39.5,59.5 C 40.8333,60.1667 40.8333,60.1667 39.5,59.5 Z"/></g>
<g><path style="opacity:0.004" fill="#000000" d="M 212.5,75.5 C 213.833,76.1667 213.833,76.1667 212.5,75.5 Z"/></g>
<g><path style="opacity:0.004" fill="#000000" d="M 336.5,82.5 C 337.833,83.1667 337.833,83.1667 336.5,82.5 Z"/></g>
<g><path style="opacity:0.004" fill="#000000" d="M 239.5,96.5 C 240.833,97.1667 240.833,97.1667 239.5,96.5 Z"/></g>
<g><path style="opacity:0.004" fill="#000000" d="M 44.5,105.5 C 46.9752,105.747 46.9752,106.413 44.5,107.5C 43.537,107.03 43.537,106.363 44.5,105.5 Z"/></g>
<g><path style="opacity:0.004" fill="#000000" d="M 223.5,105.5 C 224.833,106.167 224.833,106.167 223.5,105.5 Z"/></g>
<g><path style="opacity:0.978" fill="#fafafa" d="M 72.5,106.5 C 74.8333,106.5 77.1667,106.5 79.5,106.5C 79.5,114.833 79.5,123.167 79.5,131.5C 77.1667,131.5 74.8333,131.5 72.5,131.5C 72.5,123.167 72.5,114.833 72.5,106.5 Z"/></g>
<g><path style="opacity:0.641" fill="#acacac" d="M 82.5,113.5 C 80.8624,114.705 80.5291,116.038 81.5,117.5C 80.8333,117.5 80.5,117.833 80.5,118.5C 80.8182,123.032 80.4849,127.366 79.5,131.5C 79.5,123.167 79.5,114.833 79.5,106.5C 77.1667,106.5 74.8333,106.5 72.5,106.5C 74.6353,104.631 77.3019,103.964 80.5,104.5C 79.9455,108.012 80.6122,111.012 82.5,113.5 Z"/></g>
<g><path style="opacity:0.978" fill="#f1f1f1" d="M 172.5,105.5 C 174.833,105.5 177.167,105.5 179.5,105.5C 179.5,112.5 179.5,119.5 179.5,126.5C 180.833,126.5 182.167,126.5 183.5,126.5C 184.451,127.919 184.784,129.585 184.5,131.5C 180.207,132.03 176.373,131.03 173,128.5C 172.5,120.841 172.334,113.174 172.5,105.5 Z"/></g>
<g><path style="opacity:0.919" fill="#eaeaea" d="M 55.5,107.5 C 55.5,115.5 55.5,123.5 55.5,131.5C 52.5,131.5 49.5,131.5 46.5,131.5C 46.5,123.5 46.5,115.5 46.5,107.5C 49.5,107.5 52.5,107.5 55.5,107.5 Z"/></g>
<g><path style="opacity:0.964" fill="#ededed" d="M 203.5,116.5 C 204.362,121.614 205.695,126.614 207.5,131.5C 204.833,131.5 202.167,131.5 199.5,131.5C 196.827,123.49 194.16,115.49 191.5,107.5C 194.518,107.335 197.518,107.502 200.5,108C 201.937,110.689 202.937,113.523 203.5,116.5 Z"/></g>
<g><path style="opacity:0.962" fill="#e0e0e0" d="M 207.5,131.5 C 205.695,126.614 204.362,121.614 203.5,116.5C 204.222,116.918 204.722,117.584 205,118.5C 206.544,115.095 207.711,111.595 208.5,108C 211.554,107.179 214.554,107.345 217.5,108.5C 214.849,115.433 212.349,122.433 210,129.5C 209.292,130.381 208.458,131.047 207.5,131.5 Z"/></g>
<g><path style="opacity:0.973" fill="#efefef" d="M 56.5,107.5 C 59.5,107.5 62.5,107.5 65.5,107.5C 65.427,109.027 66.0937,110.027 67.5,110.5C 68.8164,113.087 69.483,116.087 69.5,119.5C 70.9904,129.674 66.6571,133.674 56.5,131.5C 56.5,129.833 56.5,128.167 56.5,126.5C 58.4147,126.784 60.0813,126.451 61.5,125.5C 61.5,121.5 61.5,117.5 61.5,113.5C 60.0813,112.549 58.4147,112.216 56.5,112.5C 56.5,110.833 56.5,109.167 56.5,107.5 Z"/></g>
<g><path style="opacity:0.165" fill="#4f4f4f" d="M 65.5,107.5 C 66.9063,107.973 67.573,108.973 67.5,110.5C 66.0937,110.027 65.427,109.027 65.5,107.5 Z"/></g>
<g><path style="opacity:0.691" fill="#9e9e9e" d="M 172.5,105.5 C 174.948,104.527 177.615,104.194 180.5,104.5C 180.5,111.5 180.5,118.5 180.5,125.5C 181.791,125.263 182.791,125.596 183.5,126.5C 182.167,126.5 180.833,126.5 179.5,126.5C 179.5,119.5 179.5,112.5 179.5,105.5C 177.167,105.5 174.833,105.5 172.5,105.5 Z"/></g>
<g><path style="opacity:0.004" fill="#000000" d="M 304.5,110.5 C 305.833,111.167 305.833,111.167 304.5,110.5 Z"/></g>
<g><path style="opacity:0.006" fill="#2a2a2a" d="M 55.5,107.5 C 55.8333,107.5 56.1667,107.5 56.5,107.5C 56.5,109.167 56.5,110.833 56.5,112.5C 58.4147,112.216 60.0813,112.549 61.5,113.5C 59.8333,113.5 58.1667,113.5 56.5,113.5C 56.5,117.5 56.5,121.5 56.5,125.5C 58.1667,125.5 59.8333,125.5 61.5,125.5C 60.0813,126.451 58.4147,126.784 56.5,126.5C 56.5,128.167 56.5,129.833 56.5,131.5C 56.1667,131.5 55.8333,131.5 55.5,131.5C 55.5,123.5 55.5,115.5 55.5,107.5 Z"/></g>
<g><path style="opacity:0.968" fill="#e2e2e2" d="M 84.5,131.5 C 84.5,126.833 84.5,122.167 84.5,117.5C 83.5,117.5 82.5,117.5 81.5,117.5C 80.5291,116.038 80.8624,114.705 82.5,113.5C 86.5962,111.78 90.0962,112.78 93,116.5C 93.4993,121.489 93.6659,126.489 93.5,131.5C 90.5,131.5 87.5,131.5 84.5,131.5 Z"/></g>
<g><path style="opacity:0.969" fill="#e7e6e6" d="M 107.5,129.5 C 107.5,128.5 107.5,127.5 107.5,126.5C 107.5,125.5 107.5,124.5 107.5,123.5C 107.5,122.167 107.5,120.833 107.5,119.5C 104.038,118.518 100.371,118.185 96.5,118.5C 96.2606,116.533 96.5939,114.699 97.5,113C 102.554,112.219 107.554,112.386 112.5,113.5C 113.167,114.167 113.833,114.833 114.5,115.5C 115.495,120.792 115.828,126.125 115.5,131.5C 112.302,132.036 109.635,131.369 107.5,129.5 Z"/></g>
<g><path style="opacity:0.982" fill="#eaeaea" d="M 127.5,117.5 C 128.75,117.577 129.583,118.244 130,119.5C 130.334,117.153 130.167,114.819 129.5,112.5C 131.857,112.337 134.19,112.503 136.5,113C 137.38,114.356 137.714,115.856 137.5,117.5C 138.635,122.237 139.968,126.903 141.5,131.5C 135.748,132.625 132.581,130.292 132,124.5C 131.45,130.966 127.95,133.299 121.5,131.5C 121.66,129.801 121.494,128.134 121,126.5C 119.229,122.19 117.395,117.857 115.5,113.5C 118.5,112.167 121.5,112.167 124.5,113.5C 124.815,115.483 125.815,116.816 127.5,117.5 Z"/></g>
<g><path style="opacity:0.996" fill="#e8e8e8" d="M 143.5,127.5 C 141.731,125.612 140.398,123.279 139.5,120.5C 140.309,118.929 140.643,117.262 140.5,115.5C 140.5,114.5 140.5,113.5 140.5,112.5C 143.167,112.5 145.833,112.5 148.5,112.5C 148.66,114.199 148.494,115.866 148,117.5C 146.491,120.946 144.991,124.28 143.5,127.5 Z"/></g>
<g><path style="opacity:0.97" fill="#f3f3f3" d="M 162.5,131.5 C 162.5,126.833 162.5,122.167 162.5,117.5C 158.833,117.5 155.167,117.5 151.5,117.5C 151.737,116.209 151.404,115.209 150.5,114.5C 155.685,111.523 161.018,111.19 166.5,113.5C 167.167,114.167 167.833,114.833 168.5,115.5C 169.495,120.792 169.828,126.125 169.5,131.5C 167.167,131.5 164.833,131.5 162.5,131.5 Z"/></g>
<g><path style="opacity:0.984" fill="#ebebeb" d="M 225.5,112.5 C 225.5,118.833 225.5,125.167 225.5,131.5C 219.205,131.196 216.538,127.862 217.5,121.5C 216.633,115.367 219.3,112.367 225.5,112.5 Z"/></g>
<g><path style="opacity:0.998" fill="#e3e3e3" d="M 226.5,112.5 C 235.005,111.341 239.005,115.007 238.5,123.5C 234.289,123.676 230.289,123.676 226.5,123.5C 226.5,122.5 226.5,121.5 226.5,120.5C 227.833,120.5 229.167,120.5 230.5,120.5C 230.5,119.5 230.5,118.5 230.5,117.5C 227.09,117.616 225.756,115.95 226.5,112.5 Z"/></g>
<g><path style="opacity:0.999" fill="#f0f0f0" d="M 260.5,116.5 C 260.5,118.167 260.5,119.833 260.5,121.5C 257.833,121.5 255.167,121.5 252.5,121.5C 252.5,120.167 252.5,118.833 252.5,117.5C 251.5,117.5 250.5,117.5 249.5,117.5C 249.5,116.5 249.5,115.5 249.5,114.5C 249.611,113.883 249.944,113.383 250.5,113C 254.872,111.581 258.206,112.748 260.5,116.5 Z"/></g>
<g><path style="opacity:0.972" fill="#f8f8f8" d="M 262.5,112.5 C 265.167,112.5 267.833,112.5 270.5,112.5C 270.5,118.833 270.5,125.167 270.5,131.5C 267.833,131.5 265.167,131.5 262.5,131.5C 262.5,125.167 262.5,118.833 262.5,112.5 Z"/></g>
<g><path style="opacity:0.962" fill="#f5f5f5" d="M 282.5,114.5 C 282.5,120.167 282.5,125.833 282.5,131.5C 279.833,131.5 277.167,131.5 274.5,131.5C 274.5,127.167 274.5,122.833 274.5,118.5C 273.791,117.596 272.791,117.263 271.5,117.5C 271.433,116.041 271.766,114.708 272.5,113.5C 273.622,112.844 274.955,112.511 276.5,112.5C 278.883,112.361 280.883,113.028 282.5,114.5 Z"/></g>
<g><path style="opacity:0.969" fill="#efefef" d="M 286.5,118.5 C 285.791,117.596 284.791,117.263 283.5,117.5C 283.5,116.5 283.5,115.5 283.5,114.5C 287.166,111.661 290.666,111.995 294,115.5C 294.499,120.823 294.666,126.156 294.5,131.5C 291.833,131.5 289.167,131.5 286.5,131.5C 286.5,127.167 286.5,122.833 286.5,118.5 Z"/></g>
<g><path style="opacity:0.973" fill="#f4f4f4" d="M 309.5,131.5 C 309.5,126.833 309.5,122.167 309.5,117.5C 305.833,117.5 302.167,117.5 298.5,117.5C 298.286,115.856 298.62,114.356 299.5,113C 304.554,112.219 309.554,112.386 314.5,113.5C 315.167,114.167 315.833,114.833 316.5,115.5C 317.495,120.792 317.828,126.125 317.5,131.5C 314.833,131.5 312.167,131.5 309.5,131.5 Z"/></g>
<g><path style="opacity:0.259" fill="#939393" d="M 129.5,112.5 C 130.167,114.819 130.334,117.153 130,119.5C 129.583,118.244 128.75,117.577 127.5,117.5C 127.796,115.597 128.463,113.93 129.5,112.5 Z"/></g>
<g><path style="opacity:0.702" fill="#cccccc" d="M 248.5,114.5 C 248.5,115.833 248.5,117.167 248.5,118.5C 248.818,123.032 248.485,127.366 247.5,131.5C 247.5,125.5 247.5,119.5 247.5,113.5C 245.5,113.5 243.5,113.5 241.5,113.5C 241.5,119.5 241.5,125.5 241.5,131.5C 240.51,125.355 240.177,119.022 240.5,112.5C 243.698,111.964 246.365,112.631 248.5,114.5 Z"/></g>
<g><path style="opacity:0.964" fill="#fefefe" d="M 247.5,131.5 C 245.5,131.5 243.5,131.5 241.5,131.5C 241.5,125.5 241.5,119.5 241.5,113.5C 243.5,113.5 245.5,113.5 247.5,113.5C 247.5,119.5 247.5,125.5 247.5,131.5 Z"/></g>
<g><path style="opacity:0.095" fill="#3b3b3b" d="M 270.5,112.5 C 271.167,112.833 271.833,113.167 272.5,113.5C 271.766,114.708 271.433,116.041 271.5,117.5C 272.791,117.263 273.791,117.596 274.5,118.5C 273.5,118.5 272.5,118.5 271.5,118.5C 271.818,123.032 271.485,127.366 270.5,131.5C 270.5,125.167 270.5,118.833 270.5,112.5 Z"/></g>
<g><path style="opacity:0.307" fill="#808080" d="M 97.5,120.5 C 100.625,119.521 103.958,119.187 107.5,119.5C 107.5,120.833 107.5,122.167 107.5,123.5C 107.167,123.5 106.833,123.5 106.5,123.5C 106.5,122.5 106.5,121.5 106.5,120.5C 103.5,120.5 100.5,120.5 97.5,120.5 Z"/></g>
<g><path style="opacity:0.959" fill="#ebebeb" d="M 97.5,120.5 C 100.5,120.5 103.5,120.5 106.5,120.5C 106.5,121.5 106.5,122.5 106.5,123.5C 105.5,123.5 104.5,123.5 103.5,123.5C 102.566,124.568 102.232,125.901 102.5,127.5C 103.5,127.5 104.5,127.5 105.5,127.5C 105.5,128.5 105.5,129.5 105.5,130.5C 102.091,132.014 98.7578,131.68 95.5,129.5C 93.7786,125.816 94.4453,122.816 97.5,120.5 Z"/></g>
<g><path style="opacity:0.95" fill="#f0f0f0" d="M 151.5,120.5 C 154.833,120.5 158.167,120.5 161.5,120.5C 161.5,121.5 161.5,122.5 161.5,123.5C 160.167,123.5 158.833,123.5 157.5,123.5C 157.5,124.5 157.5,125.5 157.5,126.5C 158.833,126.5 160.167,126.5 161.5,126.5C 161.443,127.609 161.11,128.609 160.5,129.5C 160.389,130.117 160.056,130.617 159.5,131C 156.833,131.667 154.167,131.667 151.5,131C 150.619,130.292 149.953,129.458 149.5,128.5C 149.584,125.673 150.25,123.006 151.5,120.5 Z"/></g>
<g><path style="opacity:0.908" fill="#f1f1f1" d="M 299.5,120.5 C 302.5,120.5 305.5,120.5 308.5,120.5C 308.5,121.5 308.5,122.5 308.5,123.5C 307.5,123.5 306.5,123.5 305.5,123.5C 305.5,124.5 305.5,125.5 305.5,126.5C 306.5,126.5 307.5,126.5 308.5,126.5C 308.5,127.5 308.5,128.5 308.5,129.5C 300.469,133.867 296.636,131.534 297,122.5C 297.995,121.934 298.828,121.267 299.5,120.5 Z"/></g>
<g><path style="opacity:0.075" fill="#565656" d="M 80.5,118.5 C 80.5,117.833 80.8333,117.5 81.5,117.5C 82.5,117.5 83.5,117.5 84.5,117.5C 84.5,122.167 84.5,126.833 84.5,131.5C 83.5151,127.366 83.1818,123.032 83.5,118.5C 82.5,118.5 81.5,118.5 80.5,118.5 Z"/></g>
<g><path style="opacity:0.527" fill="#848484" d="M 150.5,114.5 C 151.404,115.209 151.737,116.209 151.5,117.5C 155.167,117.5 158.833,117.5 162.5,117.5C 162.5,122.167 162.5,126.833 162.5,131.5C 161.833,130.833 161.167,130.167 160.5,129.5C 161.11,128.609 161.443,127.609 161.5,126.5C 161.5,125.5 161.5,124.5 161.5,123.5C 161.5,122.5 161.5,121.5 161.5,120.5C 158.167,120.5 154.833,120.5 151.5,120.5C 154.641,119.679 157.975,119.179 161.5,119C 157.848,118.501 154.182,118.335 150.5,118.5C 150.5,117.167 150.5,115.833 150.5,114.5 Z"/></g>
<g><path style="opacity:0.277" fill="#535353" d="M 262.5,112.5 C 262.5,118.833 262.5,125.167 262.5,131.5C 261.523,128.713 261.19,125.713 261.5,122.5C 258.167,122.5 254.833,122.5 251.5,122.5C 251.5,121.167 251.5,119.833 251.5,118.5C 250.5,118.5 249.5,118.5 248.5,118.5C 248.5,117.167 248.5,115.833 248.5,114.5C 248.833,114.5 249.167,114.5 249.5,114.5C 249.5,115.5 249.5,116.5 249.5,117.5C 250.5,117.5 251.5,117.5 252.5,117.5C 252.5,118.833 252.5,120.167 252.5,121.5C 255.167,121.5 257.833,121.5 260.5,121.5C 260.5,119.833 260.5,118.167 260.5,116.5C 261.167,115.167 261.833,113.833 262.5,112.5 Z"/></g>
<g><path style="opacity:0.146" fill="#565656" d="M 298.5,117.5 C 302.167,117.5 305.833,117.5 309.5,117.5C 309.5,122.167 309.5,126.833 309.5,131.5C 308.662,131.158 308.328,130.492 308.5,129.5C 308.5,128.5 308.5,127.5 308.5,126.5C 308.5,125.5 308.5,124.5 308.5,123.5C 308.5,122.5 308.5,121.5 308.5,120.5C 305.5,120.5 302.5,120.5 299.5,120.5C 302.305,119.681 305.305,119.181 308.5,119C 304.975,118.821 301.641,118.321 298.5,117.5 Z"/></g>
<g><path style="opacity:0.757" fill="#898989" d="M 151.5,120.5 C 150.25,123.006 149.584,125.673 149.5,128.5C 147.816,125.282 148.483,122.615 151.5,120.5 Z"/></g>
<g><path style="opacity:0.059" fill="#717171" d="M 282.5,114.5 C 282.833,114.5 283.167,114.5 283.5,114.5C 283.5,115.5 283.5,116.5 283.5,117.5C 284.791,117.263 285.791,117.596 286.5,118.5C 285.5,118.5 284.5,118.5 283.5,118.5C 283.818,123.032 283.485,127.366 282.5,131.5C 282.5,125.833 282.5,120.167 282.5,114.5 Z"/></g>
<g><path style="opacity:0.378" fill="#a6a6a6" d="M 140.5,115.5 C 140.643,117.262 140.309,118.929 139.5,120.5C 140.398,123.279 141.731,125.612 143.5,127.5C 143.34,129.153 142.674,130.486 141.5,131.5C 139.968,126.903 138.635,122.237 137.5,117.5C 138.117,117.611 138.617,117.944 139,118.5C 139.232,117.263 139.732,116.263 140.5,115.5 Z"/></g>
<g><path style="opacity:0.145" fill="#919191" d="M 225.5,112.5 C 225.833,112.5 226.167,112.5 226.5,112.5C 225.756,115.95 227.09,117.616 230.5,117.5C 230.5,118.5 230.5,119.5 230.5,120.5C 229.167,120.5 227.833,120.5 226.5,120.5C 226.5,121.5 226.5,122.5 226.5,123.5C 226.5,124.5 226.5,125.5 226.5,126.5C 226.5,128.167 226.5,129.833 226.5,131.5C 226.167,131.5 225.833,131.5 225.5,131.5C 225.5,125.167 225.5,118.833 225.5,112.5 Z"/></g>
<g><path style="opacity:0.905" fill="#8a8a8a" d="M 103.5,123.5 C 103.5,124.5 103.5,125.5 103.5,126.5C 104.833,126.5 106.167,126.5 107.5,126.5C 107.5,127.5 107.5,128.5 107.5,129.5C 106.833,129.833 106.167,130.167 105.5,130.5C 105.5,129.5 105.5,128.5 105.5,127.5C 104.5,127.5 103.5,127.5 102.5,127.5C 102.232,125.901 102.566,124.568 103.5,123.5 Z"/></g>
<g><path style="opacity:0.849" fill="#eeeeee" d="M 226.5,126.5 C 230.167,126.5 233.833,126.5 237.5,126.5C 237.703,128.39 237.037,129.89 235.5,131C 232.518,131.498 229.518,131.665 226.5,131.5C 226.5,129.833 226.5,128.167 226.5,126.5 Z"/></g>
<g><path style="opacity:0.004" fill="#000000" d="M 80.5,133.5 C 81.8333,134.167 81.8333,134.167 80.5,133.5 Z"/></g>
<g><path style="opacity:0.004" fill="#000000" d="M 353.5,136.5 C 354.833,137.167 354.833,137.167 353.5,136.5 Z"/></g>
<g><path style="opacity:0.004" fill="#000000" d="M 74.5,151.5 C 75.8333,152.167 75.8333,152.167 74.5,151.5 Z"/></g>
<g><path style="opacity:0.004" fill="#000000" d="M 258.5,152.5 C 259.833,153.167 259.833,153.167 258.5,152.5 Z"/></g>
<g><path style="opacity:0.004" fill="#000000" d="M 120.5,159.5 C 121.833,160.167 121.833,160.167 120.5,159.5 Z"/></g>
<g><path style="opacity:0.004" fill="#000000" d="M 209.5,175.5 C 210.833,176.167 210.833,176.167 209.5,175.5 Z"/></g>
<g><path style="opacity:0.004" fill="#000000" d="M 96.5,178.5 C 97.8333,179.167 97.8333,179.167 96.5,178.5 Z"/></g>
<g><path style="opacity:0.004" fill="#000000" d="M 88.5,197.5 C 89.8333,198.167 89.8333,198.167 88.5,197.5 Z"/></g>
<g><path style="opacity:0.004" fill="#000000" d="M 302.5,241.5 C 303.833,242.167 303.833,242.167 302.5,241.5 Z"/></g>
<g><path style="opacity:0.004" fill="#000000" d="M 320.5,286.5 C 321.833,287.167 321.833,287.167 320.5,286.5 Z"/></g>
<g><path style="opacity:0.004" fill="#000000" d="M 117.5,288.5 C 118.833,289.167 118.833,289.167 117.5,288.5 Z"/></g>
<g><path style="opacity:0.004" fill="#000000" d="M 220.5,303.5 C 221.833,304.167 221.833,304.167 220.5,303.5 Z"/></g>
<g><path style="opacity:0.004" fill="#000000" d="M 152.5,306.5 C 153.833,307.167 153.833,307.167 152.5,306.5 Z"/></g>
<g><path style="opacity:0.004" fill="#000000" d="M 255.5,312.5 C 256.833,313.167 256.833,313.167 255.5,312.5 Z"/></g>
<g><path style="opacity:0.004" fill="#000000" d="M 10.5,314.5 C 11.8333,315.167 11.8333,315.167 10.5,314.5 Z"/></g>
<g><path style="opacity:0.004" fill="#000000" d="M 93.5,319.5 C 94.8333,320.167 94.8333,320.167 93.5,319.5 Z"/></g>
<g><path style="opacity:0.004" fill="#000000" d="M 77.5,324.5 C 78.8333,325.167 78.8333,325.167 77.5,324.5 Z"/></g>
<g><path style="opacity:0.004" fill="#000000" d="M 98.5,349.5 C 99.8333,350.167 99.8333,350.167 98.5,349.5 Z"/></g>
</svg>
